<?xml version="1.0" encoding="UTF-8"?>
<svg id="Layer_1" data-name="Layer 1" xmlns="http://www.w3.org/2000/svg" width="960" height="960" viewBox="0 0 960 960">
  <defs>
    <style>
      .cls-1 {
        stroke-width: 40px;
      }

      .cls-1, .cls-2 {
        fill: none;
        stroke: #000;
        stroke-linecap: round;
        stroke-linejoin: round;
      }

      .cls-2 {
        stroke-width: 20px;
      }
    </style>
  </defs>
  <path class="cls-2" d="m159.54,845.885c-33.025,0-59.894-26.906-59.894-59.979V174.094c0-33.072,26.868-59.979,59.895-59.979,1.311,0,2.641.043,3.955.128l709.402,45.919c31.459,2.036,56.102,28.326,56.102,59.85v520.326c0,31.541-24.656,57.831-56.131,59.853l-709.402,45.568c-1.306.084-2.626.126-3.927.126Z"/>
  <path class="cls-2" d="m869.024,252.806v454.719c0,18.452-14.331,33.733-32.745,34.916l-615.25,39.52c-20.164,1.295-37.231-14.71-37.231-34.916V212.983c0-20.212,17.078-36.22,37.248-34.915l615.25,39.823c18.407,1.191,32.728,16.469,32.728,34.915Z"/>
  <path class="cls-2" d="m126.496,112.44l-82.424,48.281c-14.291,8.371-23.072,23.691-23.072,40.253v560.917c0,17.078,9.332,32.791,24.328,40.963l87.738,47.811"/>
  <g>
    <path class="cls-1" d="m939,220.01v520.33c0,36.9-28.66,67.46-65.49,69.83l-709.4,45.57c-16.49,1.06-31.94-3.66-44.44-12.38l-74.34-40.51c-15-8.17-24.33-23.88-24.33-40.96V200.97c0-16.56,8.78-31.88,23.07-40.25l77.93-45.64.12-.07,4.38-2.57c11.13-6,24.03-9.06,37.64-8.18l709.4,45.92c36.82,2.39,65.46,32.94,65.46,69.83Z"/>
    <path class="cls-1" d="m126.5,112.44l-4.38,2.57c1.43-.91,2.89-1.77,4.38-2.57Z"/>
    <line class="cls-1" x1="133.07" y1="850.66" x2="119.67" y2="843.36"/>
  </g>
</svg>