<?xml version="1.0" encoding="iso-8859-1"?>
<!-- Generator: Adobe Illustrator 19.0.0, SVG Export Plug-In . SVG Version: 6.00 Build 0)  -->
<svg version="1.1" id="Capa_1" xmlns="http://www.w3.org/2000/svg" xmlns:xlink="http://www.w3.org/1999/xlink" x="0px" y="0px"
	 viewBox="0 0 512 512" style="enable-background:new 0 0 512 512;" xml:space="preserve">
<g>
	<g>
		<g>
			<path d="M469.333,114.551V59.733c-0.015-14.132-11.468-25.585-25.6-25.6h-60.046c-79.042-45.511-176.332-45.511-255.374,0H68.267
				c-14.132,0.015-25.585,11.468-25.6,25.6v54.818c-56.889,85.719-56.889,197.179,0,282.898v54.817
				c0.015,14.132,11.468,25.585,25.6,25.6h60.046c79.042,45.511,176.332,45.511,255.374,0h60.046
				c14.132-0.015,25.585-11.468,25.6-25.6v-54.818C526.222,311.73,526.222,200.271,469.333,114.551z M42.667,363.532
				c-16.86-33.336-25.63-70.175-25.6-107.532c-0.03-37.357,8.74-74.196,25.6-107.532V363.532z M128,460.8H68.267
				c-4.711-0.005-8.529-3.823-8.533-8.533V59.733c0.005-4.711,3.822-8.529,8.533-8.533H128V460.8z M344.536,34.133H167.464
				C224.295,11.378,287.705,11.378,344.536,34.133z M256,494.933c-30.327-0.029-60.372-5.82-88.536-17.067h177.072
				C316.372,489.113,286.327,494.905,256,494.933z M452.267,452.267c-0.005,4.711-3.822,8.529-8.533,8.533H145.067V51.2h298.667
				c4.711,0.005,8.529,3.822,8.533,8.533V452.267z M469.333,148.468c16.86,33.336,25.63,70.175,25.6,107.532
				c0.03,37.357-8.74,74.196-25.6,107.532V148.468z"/>
			<path d="M93.867,119.467c14.138,0,25.6-11.461,25.6-25.6c0-14.139-11.461-25.6-25.6-25.6c-14.139,0-25.6,11.461-25.6,25.6
				C68.282,107.999,79.735,119.451,93.867,119.467z M93.867,85.333c4.713,0,8.533,3.821,8.533,8.533
				c0,4.713-3.821,8.533-8.533,8.533c-4.713,0-8.533-3.821-8.533-8.533C85.338,89.156,89.156,85.338,93.867,85.333z"/>
			<path d="M93.867,230.4c-14.139,0-25.6,11.461-25.6,25.6s11.461,25.6,25.6,25.6c14.138,0,25.6-11.462,25.6-25.6
				C119.451,241.868,107.999,230.415,93.867,230.4z M93.867,264.533c-4.713,0-8.533-3.82-8.533-8.533s3.821-8.533,8.533-8.533
				c4.713,0,8.533,3.82,8.533,8.533C102.395,260.711,98.578,264.529,93.867,264.533z"/>
			<path d="M93.867,392.533c-14.139,0-25.6,11.462-25.6,25.6s11.461,25.6,25.6,25.6c14.138,0,25.6-11.461,25.6-25.6
				C119.451,404.001,107.999,392.549,93.867,392.533z M93.867,426.667c-4.713,0-8.533-3.82-8.533-8.533s3.821-8.533,8.533-8.533
				c4.713,0,8.533,3.82,8.533,8.533C102.395,422.844,98.578,426.662,93.867,426.667z"/>
			<path d="M196.267,180.837V204.8c0.02,6.069,3.272,11.668,8.533,14.692v96.241c-0.001,2.263,0.898,4.434,2.499,6.035
				c1.6,1.6,3.771,2.499,6.035,2.499H384c2.263,0.001,4.434-0.898,6.035-2.499c1.6-1.6,2.499-3.771,2.499-6.035v-96.241
				c5.262-3.024,8.514-8.623,8.533-14.692v-25.6c0.001-2.263-0.898-4.434-2.499-6.035c-1.6-1.6-3.771-2.499-6.035-2.499H249.234
				l133.107-53.075c2.104-0.836,3.789-2.475,4.684-4.555s0.924-4.431,0.083-6.533l-9.483-23.783
				c-3.509-8.738-13.422-12.996-22.175-9.525l-158.533,63.212c-8.741,3.507-12.999,13.422-9.525,22.175L196.267,180.837z
				 M370.467,187.733H384l0.009,17.067H353.4L370.467,187.733z M319.267,187.733h27.067L329.267,204.8H302.2L319.267,187.733z
				 M268.067,187.733h27.067L278.067,204.8H251L268.067,187.733z M375.467,221.867V307.2h-153.6v-85.333H375.467z M349.204,94.063
				l12.571-5.013l6.317,15.85l-28.415,11.33L349.204,94.063z M301.645,113.024l25.136-10.022l-9.527,22.17l-25.136,10.023
				L301.645,113.024z M254.09,131.985l25.134-10.021l-9.528,22.172l-25.135,10.023L254.09,131.985z M226.867,204.8h-13.533v-17.067
				h30.6L226.867,204.8z M231.667,140.925l-9.53,22.175l-12.57,5.012l-6.325-15.854L231.667,140.925z"/>
			<path d="M247.467,358.4c-4.713,0-8.533,3.82-8.533,8.533s3.82,8.533,8.533,8.533h102.4c4.713,0,8.533-3.82,8.533-8.533
				s-3.82-8.533-8.533-8.533H247.467z"/>
			<path d="M409.6,392.533H187.733c-4.713,0-8.533,3.821-8.533,8.533s3.82,8.533,8.533,8.533H409.6c4.713,0,8.533-3.82,8.533-8.533
				S414.313,392.533,409.6,392.533z"/>
		</g>
	</g>
</g>
<g>
</g>
<g>
</g>
<g>
</g>
<g>
</g>
<g>
</g>
<g>
</g>
<g>
</g>
<g>
</g>
<g>
</g>
<g>
</g>
<g>
</g>
<g>
</g>
<g>
</g>
<g>
</g>
<g>
</g>
</svg>
