<?xml version="1.0" encoding="iso-8859-1"?>
<!-- Generator: Adobe Illustrator 16.0.0, SVG Export Plug-In . SVG Version: 6.00 Build 0)  -->
<!DOCTYPE svg PUBLIC "-//W3C//DTD SVG 1.1//EN" "http://www.w3.org/Graphics/SVG/1.1/DTD/svg11.dtd">
<svg version="1.1" id="Capa_1" xmlns="http://www.w3.org/2000/svg" xmlns:xlink="http://www.w3.org/1999/xlink" x="0px" y="0px"
	 width="223.022px" height="223.022px" viewBox="0 0 223.022 223.022" style="enable-background:new 0 0 223.022 223.022;"
	 xml:space="preserve">
<g>
	<path d="M195.724,209.005V14.017C195.724,6.286,189.44,0,181.707,0h-98.36C75.616,0,69.33,6.286,69.33,14.017v13.555H30.803
		c-1.935,0-3.504,1.565-3.504,3.504v22.631c0,0.455,0.09,0.91,0.27,1.338c0.178,0.432,0.433,0.816,0.76,1.144l40.215,40.21
		c-4.002,4.069-6.536,9.954-6.536,16.512c0,7.104,2.972,13.429,7.57,17.491c-0.144,0.383-0.245,0.783-0.245,1.215v77.389
		c0,7.728,6.287,14.018,14.017,14.018h98.357C189.434,223.022,195.724,216.732,195.724,209.005z M34.307,34.581h65.271v15.623
		H34.307V34.581z M159.627,81.293c0.335,0.269,0.705,0.466,1.088,0.592v46.219h-14.646c-0.261-0.15-0.534-0.294-0.835-0.373
		c-5.753-1.516-9.932-7.751-9.932-14.821c0-7.073,4.175-13.305,9.932-14.821c1.379-0.364,2.341-1.538,2.532-2.922
		c0.127-0.106,0.284-0.157,0.396-0.284c1.308-1.431,1.205-3.648-0.226-4.952l-41.35-37.762V38.417L159.627,81.293z M102.276,135.12
		h6.43h32.071h19.938v5.469h-58.438V135.12z M101.722,57.211l36.667,33.486h-56.78c-2.565,0-5.012,0.578-7.262,1.598L39.263,57.211
		H101.722z M69.013,112.91c0-8.384,5.65-15.204,12.595-15.204h51.986c-3.323,3.999-5.302,9.364-5.302,15.204
		c0,5.839,1.975,11.201,5.298,15.201H108.71h-9.935H81.612C74.663,128.111,69.013,121.288,69.013,112.91z M76.338,209.005v-74.727
		c1.678,0.534,3.441,0.835,5.267,0.835h13.66v8.977c0,1.937,1.569,3.504,3.504,3.504h61.939v14.018c0,1.937,1.574,3.504,3.505,3.504
		c1.937,0,3.504-1.567,3.504-3.504V144.09v-12.48V80.501V52.393c0-1.939-1.567-3.504-3.504-3.504c-1.931,0-3.505,1.565-3.505,3.504
		v20.769l-55.422-44.81c-0.123-0.098-0.273-0.128-0.402-0.212c-0.207-0.126-0.407-0.253-0.642-0.337
		c-0.243-0.084-0.48-0.117-0.729-0.147c-0.147-0.017-0.281-0.083-0.431-0.083H76.338V14.017c0-3.866,3.143-7.009,7.008-7.009h98.36
		c3.863,0,7.008,3.143,7.008,7.009v194.988c0,3.863-3.145,7.009-7.008,7.009h-98.36C79.481,216.014,76.338,212.865,76.338,209.005z"
		/>
	<path d="M132.523,178.694c-6.715,0-12.173,5.466-12.173,12.177c0,6.714,5.465,12.179,12.173,12.179
		c6.714,0,12.176-5.465,12.176-12.179C144.699,184.16,139.237,178.694,132.523,178.694z M132.523,196.035
		c-2.848,0-5.164-2.313-5.164-5.168c0-2.851,2.316-5.167,5.164-5.167c2.851,0,5.167,2.316,5.167,5.167
		C137.69,193.722,135.374,196.035,132.523,196.035z"/>
	<path d="M132.523,17.15c-6.715,0-12.173,5.463-12.173,12.178s5.465,12.178,12.173,12.178c6.714,0,12.176-5.463,12.176-12.178
		S139.237,17.15,132.523,17.15z M132.523,34.492c-2.848,0-5.164-2.315-5.164-5.167s2.316-5.169,5.164-5.169
		c2.851,0,5.167,2.316,5.167,5.169S135.374,34.492,132.523,34.492z"/>
</g>
<g>
</g>
<g>
</g>
<g>
</g>
<g>
</g>
<g>
</g>
<g>
</g>
<g>
</g>
<g>
</g>
<g>
</g>
<g>
</g>
<g>
</g>
<g>
</g>
<g>
</g>
<g>
</g>
<g>
</g>
</svg>
