<?xml version="1.0" encoding="UTF-8"?>
<svg id="Layer_1" data-name="Layer 1" xmlns="http://www.w3.org/2000/svg" width="960" height="960" viewBox="0 0 960 960">
  <defs>
    <style>
      .cls-1 {
        stroke-width: 32px;
      }

      .cls-1, .cls-2 {
        fill: none;
        stroke: #000;
        stroke-linejoin: round;
      }

      .cls-2 {
        stroke-linecap: round;
        stroke-width: 16px;
      }
    </style>
  </defs>
  <g id="homey-smartphone-app-_-custom-devices-_--light-led-strip" data-name="homey-smartphone-app-/-custom-devices-/--light-led-strip">
    <path id="Shape" class="cls-1" d="m343.408,74.847c14.566-1.282,27.836-1.096,39.815.483,14.836,1.956,31.459,7.273,49.799,16.205,9.287,4.523,16.142,12.154,19.834,21.088,3.713,8.983,4.226,19.283.801,29.061l-1.467,4.046c-1.71,4.712-3.397,9.39-5.062,14.035l-2.487,6.96c-38.457,107.959-64.696,197.527-78.64,268.723-19.676,100.462-22.684,213.297-18.837,296.544.031.673.063,1.344.095,2.013l.061,1.262.03-.033c54.976-63.598,99.844-160.642,130.905-266.209l1.054-3.602c7.945-27.327,15.386-54.035,22.449-79.781l3.012-11.003,2.967-10.875,10.082-37.052,2.804-10.274,2.773-10.123c18.312-66.669,34.791-122.772,52.15-160.836,17.141-37.587,36.476-57.358,56.263-61.166,38.618-7.43,113.456,11.6,117.582,14.137,8.882,5.462,15.863,13.473,20.096,22.851,4.114,9.113,5.646,19.51,3.815,30.112-8.772,51.467-15.329,89.192-19.671,113.174-3.041,16.799-6.94,37.843-11.698,63.131l-.017.088.129-.155c57.486-69.389,119.821-135.292,170.222-180.153l1.908-1.693c.66-.584,1.638-1.395,2.944-2.42l26.288-20.633-1.803,146.782c-3.043,4.001-5.163,6.745-6.354,8.236l-49.823,62.411c-.071.097-.182.251-.332.457l-.461.633c-3.773,5.185-17.06,23.505-30.493,42.052l-1.876,2.59-.892,1.232c-.149.205-.297.41-.446.616l-.89,1.229c-14.075,19.437-27.247,37.651-28.42,39.361-44.358,64.655-103.019,195.109-176.36,391.137-4.277,11.432-11.749,25.113-22.608,40.949-.168.245-.335.488-.504.728-.206.245-.413.487-.623.729-11.203,12.87-28.108,20.292-46.126,18.899l-1.902-.152-1.9-.164-1.872-.173-1.818-.18c-6.885-.705-13.092-1.609-18.622-2.697l-1.493-.302-1.464-.312c-2.833-.619-5.483-1.292-7.951-2.013l-.617-.182-1.229-.373-1.266-.399-1.246-.406c-.451-.149-.907-.302-1.369-.459l-1.249-.432c-.242-.085-.484-.17-.729-.257l-1.31-.471-1.332-.491c-.247-.092-.495-.185-.744-.279l-1.36-.518-1.408-.548-1.403-.557c-.255-.102-.512-.205-.769-.31l-1.41-.575c-.259-.107-.519-.214-.781-.323l-1.443-.604c-.263-.111-.528-.223-.793-.336l-1.476-.633c-.268-.116-.536-.232-.806-.35l-1.528-.67-1.569-.697-1.59-.716-1.594-.727c-.281-.129-.564-.259-.847-.39l-1.61-.748c-.286-.134-.573-.268-.861-.404l-1.659-.784-1.69-.807-.856-.412c-12.734-6.142-22.341-16.416-27.801-28.555-2.864-6.367-4.587-13.246-5.024-20.312l-.003-.05-1.498,2.043c-18.926,25.567-40.772,46.444-65.391,59.219l-2.002,1.018c-10.421,6.474-29.126,11.7-57.498,6.653-18.69-3.324-42.092-11.18-70.281-26.48-23.734-12.882-41.444-38.584-52.847-74.267-7.723-24.167-12.667-52.991-15.291-84.76l-.03-.368-.058.08c-2.033,2.777-4.049,5.482-6.055,8.125l-1.002,1.316-1.702,2.216-.913,1.179-1.776,2.274c-6.332,8.059-12.573,15.5-18.72,22.325l-1.724,1.901c-4.735,5.184-9.417,10.004-14.043,14.462-45.716,44.054-81.314,72.207-109.975,91.303-3.54,2.359-13.235,8.67-29.093,18.921l-.109-123.83,4.128-4.573c.636-.705,1.219-1.351,1.746-1.935l.751-.834.673-.747c.417-.464.781-.869,1.092-1.216,54.683-60.98,95.102-116.264,121.1-165.957,17.651-33.74,34.845-70.666,50.979-111.94,16.47-42.133,49.797-158.371,62.639-203.103,2.374-8.27,4.058-14.135,4.823-16.704l35.589-119.626c2.873-9.14,8.365-16.958,15.525-22.693,7.119-5.702,15.887-9.344,25.37-10.179Z"/>
    <path id="Path-12" class="cls-2" d="m318.972,99.081c-49.056,157.634-79.596,287.3-91.621,389-18.66,157.817-15.579,325.565,52.623,363.513,68.202,37.948,106.283,29.033,116.706,17.233,10.423-11.8-54.482,8.305-62.082-79.075-7.6-87.38-7.945-231.888,16.108-357.79,15.343-80.309,45.319-183.114,89.926-308.416h.002c3.618-10.165-.822-21.441-10.398-26.412-17.978-9.328-34.153-14.963-48.523-16.905-11.823-1.598-25.017-1.639-39.583-.123h0c-10.819,1.125-19.926,8.588-23.158,18.974h0Z"/>
    <path id="Path-14" class="cls-2" d="m652.423,90.99c14.538-1.089,28.948-.495,43.23,1.782,11.944,1.905,23.933,3.947,35.968,6.128h0c16.837,3.051,28.075,19.094,25.19,35.96-19.261,112.608-38.277,217.238-57.051,313.89-16.342,84.137-45.241,217.236-86.695,399.297h0c-3.74,16.43-18.83,27.732-35.648,26.701-16.568-1.015-29.804-2.982-39.706-5.901-10.127-2.985-23.413-8.596-39.86-16.833v.003c-15.773-7.899-23.722-25.878-18.95-42.86,40.506-144.087,72.764-272.104,96.775-384.049,27.943-130.276,42.628-252.705,45.403-272.921,2.036-14.836,3.689-26.949,4.959-36.34h0c1.823-13.476,12.824-23.84,26.385-24.858h0Z"/>
  </g>
</svg>