<?xml version="1.0" encoding="UTF-8"?>
<svg id="Layer_1" data-name="Layer 1" xmlns="http://www.w3.org/2000/svg" width="960" height="960" viewBox="0 0 960 960">
  <defs>
    <style>
      .cls-1 {
        stroke-width: 40px;
      }

      .cls-1, .cls-2 {
        fill: none;
        stroke: #000;
        stroke-linecap: round;
        stroke-linejoin: round;
      }

      .cls-2 {
        stroke-width: 20px;
      }
    </style>
  </defs>
  <path class="cls-2" d="m362.659,929c-13.909,0-25.226-11.339-25.226-25.276V56.276c0-13.937,11.315-25.276,25.224-25.276.692,0,1.396.029,2.09.085l297.709,24.125c13.027,1.056,23.232,12.121,23.232,25.191v799.294c0,13.074-10.208,24.14-23.24,25.191l-297.708,24.029c-.692.056-1.393.084-2.082.084Z"/>
  <path class="cls-2" d="m648.658,107.51v198.387c0,9.976-8.267,17.966-18.237,17.627l-238.919-8.135c-9.501-.324-17.037-8.12-17.037-17.627V88.146c0-10.302,8.793-18.411,19.061-17.579l238.919,19.364c9.158.742,16.212,8.391,16.212,17.579Z"/>
  <path d="m475.349,411.608v37.508c0,6.115,4.957,11.071,11.071,11.071h50.257c6.115,0,11.071-4.957,11.071-11.071v-36.393c0-6.019-4.808-10.935-10.826-11.069l-50.257-1.115c-6.209-.138-11.317,4.858-11.317,11.069Z"/>
  <path d="m362.707,426.322v21.997c0,6.082,4.907,11.026,10.989,11.071l51.302.383c6.147.046,11.154-4.924,11.154-11.071v-21.598c0-6.049-4.854-10.978-10.902-11.07l-51.302-.783c-6.18-.094-11.24,4.889-11.24,11.07Z"/>
  <path d="m586.971,430.404v19.906c0,6.082,4.907,11.026,10.989,11.071l51.302.383c6.147.046,11.154-4.924,11.154-11.071v-19.506c0-6.049-4.854-10.978-10.902-11.07l-51.302-.783c-6.18-.094-11.24,4.889-11.24,11.07Z"/>
  <path d="m362.707,514.587v22.073c0,6.154,5.018,11.127,11.172,11.071l51.302-.466c6.075-.055,10.971-4.996,10.971-11.071v-21.607c0-6.115-4.957-11.071-11.071-11.071h-51.302c-6.115,0-11.071,4.957-11.071,11.071Z"/>
  <path d="m586.971,514.553v19.907c0,6.159,5.027,11.134,11.186,11.071l51.302-.531c6.07-.063,10.957-5.001,10.957-11.071v-19.507c0-6.126-4.974-11.087-11.1-11.071l-51.302.131c-6.103.016-11.043,4.968-11.043,11.071Z"/>
  <path d="m362.707,603.027v26.116c0,6.236,5.148,11.242,11.382,11.067l51.302-1.442c5.991-.168,10.76-5.074,10.76-11.067v-25.607c0-6.193-5.08-11.182-11.273-11.07l-51.302.933c-6.035.11-10.87,5.033-10.87,11.07Z"/>
  <path d="m586.971,598.95v23.533c0,6.215,5.115,11.213,11.329,11.068l51.302-1.195c6.012-.14,10.813-5.054,10.813-11.068v-23.27c0-6.193-5.08-11.182-11.273-11.07l-51.302.933c-6.035.11-10.87,5.033-10.87,11.07Z"/>
  <path d="m362.707,692.535v20.233c0,6.311,5.267,11.345,11.572,11.06l51.302-2.32c5.914-.267,10.571-5.14,10.571-11.06v-19.812c0-6.275-5.21-11.296-11.481-11.064l-51.302,1.899c-5.951.22-10.662,5.109-10.662,11.064Z"/>
  <path d="m476.544,688.135v19.443c0,6.311,5.267,11.345,11.572,11.06l51.302-2.32c5.914-.267,10.571-5.14,10.571-11.06v-19.022c0-6.275-5.21-11.296-11.481-11.064l-51.302,1.899c-5.951.22-10.662,5.109-10.662,11.064Z"/>
  <path d="m476.544,770.051v16.988c0,6.384,5.385,11.445,11.757,11.05l51.302-3.181c5.837-.362,10.386-5.202,10.386-11.05v-16.55c0-6.347-5.325-11.394-11.662-11.056l-51.302,2.742c-5.876.314-10.48,5.171-10.48,11.056Z"/>
  <path d="m586.971,684.337v18.273c0,6.311,5.268,11.346,11.572,11.06l51.302-2.323c5.914-.268,10.57-5.14,10.57-11.06v-17.826c0-6.273-5.207-11.293-11.476-11.064l-51.302,1.876c-5.953.218-10.667,5.107-10.667,11.064Z"/>
  <path d="m362.707,776.52v17.571c0,6.386,5.389,11.448,11.763,11.05l51.302-3.209c5.835-.365,10.38-5.204,10.38-11.05v-17.397c0-6.372-5.365-11.428-11.725-11.052l-51.302,3.035c-5.85.346-10.418,5.191-10.418,11.052Z"/>
  <path d="m586.971,764.113v16.162c0,6.39,5.394,11.453,11.771,11.049l51.302-3.25c5.831-.369,10.371-5.206,10.371-11.049v-15.719c0-6.352-5.333-11.402-11.676-11.055l-51.302,2.807c-5.871.321-10.466,5.175-10.466,11.055Z"/>
  <path d="m495.627,546.809h35.278c8.759,0,14.049-9.69,9.313-17.058l-17.639-27.442c-4.358-6.78-14.269-6.78-18.627,0l-17.639,27.442c-4.736,7.368.554,17.058,9.313,17.058Z"/>
  <path d="m531.615,589.099l-35.555.672c-8.847.167-13.933,10.131-8.878,17.394l19.248,27.657c4.638,6.664,14.632,6.235,18.682-.801l16.306-28.328c4.295-7.462-1.196-16.755-9.804-16.593Z"/>
  <path class="cls-2" d="m348.107,24.155l-66.641,39.897c-10.641,6.371-17.155,17.862-17.155,30.264v771.555c0,12.415,6.527,23.917,17.186,30.283l65.856,39.335"/>
  <path class="cls-1" d="m695.69,80.4v799.29c0,18.39-14.12,33.69-32.44,35.16l-297.7,24.03c-6.52.53-12.75-.75-18.2-3.39l-5.21-3.11-60.64-36.23c-10.66-6.36-17.19-17.86-17.19-30.28V94.32c0-12.41,6.51-23.9,17.16-30.27l59.88-35.84c6.65-5.08,15.14-7.83,24.21-7.09l297.7,24.12c18.32,1.49,32.43,16.78,32.43,35.16Z"/>
  <path class="cls-1" d="m347.35,935.49c-1.83-.89-3.57-1.93-5.21-3.11l5.21,3.11Z"/>
  <line class="cls-1" x1="348.11" y1="24.16" x2="341.35" y2="28.21"/>
</svg>