<?xml version="1.0" encoding="UTF-8"?>
<svg id="Layer_1" data-name="Layer 1" xmlns="http://www.w3.org/2000/svg" width="960" height="960" viewBox="0 0 960 960">
  <defs>
    <style>
      .cls-1 {
        stroke-width: 40px;
      }

      .cls-1, .cls-2, .cls-3, .cls-4 {
        fill: none;
        stroke: #000;
      }

      .cls-1, .cls-3 {
        stroke-linecap: round;
      }

      .cls-1, .cls-3, .cls-4 {
        stroke-linejoin: round;
      }

      .cls-2, .cls-3, .cls-4 {
        stroke-width: 20px;
      }
    </style>
  </defs>
  <path class="cls-3" d="m397.822,50.255c-23.066,2.088-41.136,21.908-41.136,45.123v788.317c0,12.837,5.206,24.688,14.66,33.369,8.465,7.773,19.172,11.938,30.501,11.938,1.318,0,2.644-.057,3.977-.17,1.629-.139,164.059-14.016,250.354-21.478,25.396-2.196,44.546-23.078,44.546-48.572v-160.995"/>
  <path class="cls-3" d="m442.643,782.062c-29.719,0-53.896-24.2-53.896-53.946V84.949c0-14.172,5.443-27.549,15.327-37.665,10.242-10.504,23.922-16.284,38.527-16.284,1.323,0,2.667.049,3.995.146l208.904,15.167c25.359,1.842,45.224,23.2,45.224,48.626v625.402c0,25.591-19.999,46.959-45.529,48.646-75.883,5.017-205.904,12.758-210.69,13.042-.622.021-1.244.032-1.861.032Z"/>
  <path class="cls-3" d="m422.127,35.035l-41.06,20.338c-14.849,7.355-24.073,22.218-24.073,38.789v634.545c0,20.062,13.619,37.363,33.12,42.075l43.975,10.626"/>
  <polyline class="cls-3" points="283.83 877.2 370.24 928.97 377.18 933.13 377.28 933.19"/>
  <path class="cls-3" d="m378.96,45.08l-.04.03-.06.03-9.65,5.69-85.38,50.4v.01"/>
  <ellipse class="cls-2" cx="545.763" cy="255.435" rx="80.622" ry="86.366"/>
  <ellipse cx="472.582" cy="840.967" rx="19.423" ry="20.807"/>
  <ellipse cx="644.364" cy="828.243" rx="17.665" ry="18.924"/>
  <ellipse cx="510.233" cy="668.335" rx="7.5" ry="8.034"/>
  <ellipse cx="534.052" cy="667.525" rx="7.5" ry="8.034"/>
  <ellipse cx="559.816" cy="666.229" rx="7.5" ry="8.034"/>
  <ellipse cx="523" cy="649.539" rx="7.5" ry="8.034"/>
  <ellipse cx="546.819" cy="648.729" rx="7.5" ry="8.034"/>
  <ellipse cx="572.583" cy="647.432" rx="7.5" ry="8.034"/>
  <ellipse cx="523" cy="686.483" rx="7.5" ry="8.034"/>
  <ellipse cx="546.819" cy="685.673" rx="7.5" ry="8.034"/>
  <ellipse cx="572.583" cy="684.377" rx="7.5" ry="8.034"/>
  <ellipse cx="584.608" cy="665.256" rx="7.5" ry="8.034"/>
  <path class="cls-4" d="m547.496,211.208c16.729,16.989,27.653,32.267,26.696,54.521-.957,22.254-19.246,26.537-30.162,26.068-11.251-.484-28.77-6.307-27.813-28.561.957-22.254,13.117-37.08,31.278-52.028Z"/>
  <g>
    <path class="cls-1" d="m377.18,933.13c-2.42-1.21-4.74-2.6-6.94-4.16"/>
    <path class="cls-1" d="m710.72,94.94v763.84c0,30.49-23.31,55.91-53.68,58.54-87.3,7.55-250.37,21.48-250.37,21.48-10.6.9-20.7-1.24-29.49-5.67l-6.94-4.16-57.246-34.297c-18.091-10.839-29.164-30.38-29.164-51.47V135.486c0-21.229,11.218-40.878,29.5-51.669l55.88-32.986c3-2.21,6.23-4.13,9.65-5.69.02-.01.04-.02.06-.03l.04-.03c.83-.38,1.68-.74,2.54-1.08l29.71-14.72c2.07-1.18,4.21-2.24,6.41-3.17l.07-.04c9.04-3.85,19.11-5.67,29.63-4.9l208.9,15.17c30.72,2.23,54.5,27.8,54.5,58.6Z"/>
    <line class="cls-1" x1="377.28" y1="933.19" x2="377.18" y2="933.13"/>
  </g>
</svg>