<svg enable-background="new 0 0 512 512" height="512" viewBox="0 0 512 512" width="512" xmlns="http://www.w3.org/2000/svg"><g id="_x34_6_Water_Leak_Sensor"><g><g><g><path d="m490.325 113.732h-41.016c-11.746 0-21.302 9.554-21.302 21.302v12.373h-344.014v-12.373c0-11.749-9.556-21.302-21.302-21.302h-41.016c-11.746 0-21.302 9.554-21.302 21.302v162.04c0 11.749 9.556 21.302 21.302 21.302h41.016c11.746 0 21.302-9.554 21.302-21.302v-12.373c.635 0 147.536.026 148.164.026 2.096 0 4.009-1.227 4.868-3.167l10.402-23.45c.679-1.524.598-3.282-.213-4.743l-9.861-17.761 13.322-28.339 13.319 28.339-9.861 17.761c-.811 1.461-.892 3.219-.213 4.743l10.402 23.45c.95 2.147 3.196 3.324 5.24 3.141h158.446v12.373c0 11.749 9.556 21.302 21.302 21.302h41.016c11.746 0 21.302-9.554 21.302-21.302v-162.04c-.001-11.748-9.557-21.302-21.303-21.302zm-427.634 193.993h-41.016c-5.874 0-10.651-4.78-10.651-10.651v-162.04c0-5.872 4.777-10.651 10.651-10.651h41.016c5.874 0 10.651 4.78 10.651 10.651-.001 17.359-.011 142.764 0 162.04 0 5.872-4.777 10.651-10.651 10.651zm209.951-33.674-7.91-17.833 9.897-17.823c.832-1.498.895-3.302.164-4.852l-19.3-41.06c-1.908-4.065-7.724-4.075-9.637 0l-19.303 41.06c-.731 1.55-.668 3.354.164 4.852l9.897 17.823-7.91 17.833h-144.711v-115.993h344.014v115.992h-155.365zm228.334 23.023c0 5.872-4.777 10.651-10.651 10.651h-41.016c-5.874 0-10.651-4.78-10.651-10.651 0 .533.008-13.28 0-162.04 0-5.872 4.777-10.651 10.651-10.651h41.016c5.874 0 10.651 4.78 10.651 10.651z"/><path d="m245.963 303.939c-2.613 4.301-25.52 42.433-25.52 57.151 0 16.58 13.491 30.071 30.071 30.071 16.583 0 30.073-13.491 30.073-30.071 0-14.718-22.909-52.85-25.523-57.151-1.93-3.172-7.172-3.172-9.101 0zm4.55 76.571c-10.708 0-19.42-8.711-19.42-19.42 0-7.499 10.558-28.396 19.42-43.889 8.862 15.493 19.422 36.39 19.422 43.889 0 10.709-8.713 19.42-19.422 19.42z"/><path d="m245.963 424.404c-2.613 4.301-25.52 42.433-25.52 57.151 0 16.58 13.491 30.071 30.071 30.071 16.583 0 30.073-13.491 30.073-30.071 0-14.718-22.909-52.85-25.523-57.151-1.93-3.172-7.172-3.172-9.101 0zm4.55 76.571c-10.708 0-19.42-8.711-19.42-19.42 0-7.499 10.558-28.396 19.42-43.889 8.862 15.493 19.422 36.39 19.422 43.889 0 10.709-8.713 19.42-19.422 19.42z"/><path d="m191.583 37.635c35.506-35.5 93.296-35.485 128.833.047 2.08 2.08 5.45 2.08 7.531 0 2.08-2.08 2.08-5.45 0-7.531-39.682-39.682-104.233-39.708-143.894-.047-2.08 2.08-2.08 5.45 0 7.531 2.08 2.08 5.45 2.08 7.53 0z"/><path d="m309.222 56.404c2.08-2.08 2.08-5.45 0-7.531-29.353-29.353-77.106-29.384-106.444-.042-2.08 2.08-2.08 5.45 0 7.531 2.08 2.08 5.45 2.08 7.531 0 25.182-25.187 66.174-25.161 91.382.042 2.08 2.08 5.451 2.081 7.531 0z"/><path d="m290.497 75.127c2.08-2.08 2.08-5.45 0-7.531-19.037-19.03-49.987-19.05-68.993-.042-2.08 2.08-2.08 5.45 0 7.531 2.08 2.08 5.45 2.08 7.531 0 14.856-14.859 39.05-14.838 53.932.042 2.079 2.08 5.449 2.08 7.53 0z"/><path d="m233.671 102.041c0 12.321 10.022 22.342 22.34 22.342 12.282 0 22.272-10.022 22.272-22.342 0-12.279-9.991-22.27-22.272-22.27-12.319 0-22.34 9.991-22.34 22.27zm33.96 0c0 6.449-5.214 11.691-11.621 11.691-6.446 0-11.689-5.242-11.689-11.691 0-6.407 5.242-11.618 11.689-11.618 6.408-.001 11.621 5.21 11.621 11.618z"/></g></g></g></g></svg>