<?xml version="1.0" encoding="UTF-8" standalone="no"?>
<!-- Created with Inkscape (http://www.inkscape.org/) -->
<svg xmlns="http://www.w3.org/2000/svg" xmlns:svg="http://www.w3.org/2000/svg" version="1.1" id="svg9" width="682.66669" height="682.66669" viewBox="0 0 682.66669 682.66669">
  <defs id="defs13">
    <clipPath clipPathUnits="userSpaceOnUse" id="clipPath23">
      <path d="M 0,512 H 512 V 0 H 0 Z" id="path21"/>
    </clipPath>
    <clipPath clipPathUnits="userSpaceOnUse" id="clipPath37">
      <path d="M 0,512 H 512 V 0 H 0 Z" id="path35"/>
    </clipPath>
  </defs>
  <mask id="custom"><rect id="bg" x="0" y="0" width="100%" height="100%" fill="white"/><g transform="matrix(1.3333333,0,0,-1.3333333,0,682.66667)"/></mask><g mask="url(#custom)"><g id="g15" transform="matrix(1.3333333,0,0,-1.3333333,0,682.66667)">
    <g id="g17">
      <g id="g19" clip-path="url(#clipPath23)">
        <path d="M 459.348,7.5 H 52.652 v 497 h 406.696 z" style="fill:none;stroke:#000000;stroke-width:15;stroke-linecap:round;stroke-linejoin:round;stroke-miterlimit:10;stroke-dasharray:none;stroke-opacity:1" id="path25"/>
      </g>
    </g>
    <g id="g27" transform="translate(152.7524,456.6233)">
      <path d="M 0,0 H 267.418 V -401.247 H -60.923 V 0 h 28.68" style="fill:none;stroke:#000000;stroke-width:15;stroke-linecap:round;stroke-linejoin:round;stroke-miterlimit:10;stroke-dasharray:none;stroke-opacity:1" id="path29"/>
    </g>
    <g id="g31">
      <g id="g33" clip-path="url(#clipPath37)">
        <g id="g39" transform="translate(52.6519,504.5)">
          <path d="M 0,0 39.178,-47.877" style="fill:none;stroke:#000000;stroke-width:15;stroke-linecap:round;stroke-linejoin:round;stroke-miterlimit:10;stroke-dasharray:none;stroke-opacity:1" id="path41"/>
        </g>
        <g id="g43" transform="translate(459.3481,504.5)">
          <path d="M 0,0 -39.178,-47.877" style="fill:none;stroke:#000000;stroke-width:15;stroke-linecap:round;stroke-linejoin:round;stroke-miterlimit:10;stroke-dasharray:none;stroke-opacity:1" id="path45"/>
        </g>
        <g id="g47" transform="translate(459.3481,7.5)">
          <path d="M 0,0 -39.178,47.877" style="fill:none;stroke:#000000;stroke-width:15;stroke-linecap:round;stroke-linejoin:round;stroke-miterlimit:10;stroke-dasharray:none;stroke-opacity:1" id="path49"/>
        </g>
        <g id="g51" transform="translate(91.8296,55.3767)">
          <path d="M 0,0 -39.178,-47.877" style="fill:none;stroke:#000000;stroke-width:15;stroke-linecap:round;stroke-linejoin:round;stroke-miterlimit:10;stroke-dasharray:none;stroke-opacity:1" id="path53"/>
        </g>
        <g id="g55" transform="translate(189.5972,320.3411)">
          <path d="m 0,0 c 5.229,0.542 16.273,4.891 20.913,1.157 8.017,-6.453 1.871,-37.583 0.369,-50.847 -0.199,-1.755 1.289,-3.216 3.045,-3.019 3.723,0.42 7.483,0.511 11.222,0.272" style="fill:none;stroke:#000000;stroke-width:15;stroke-linecap:round;stroke-linejoin:round;stroke-miterlimit:10;stroke-dasharray:none;stroke-opacity:1" id="path57"/>
        </g>
        <g id="g59" transform="translate(242.9434,318.0405)">
          <path d="M 0,0 C 7.07,-6.199 19.281,-5.088 25.115,2.287" style="fill:none;stroke:#000000;stroke-width:15;stroke-linecap:round;stroke-linejoin:round;stroke-miterlimit:10;stroke-dasharray:none;stroke-opacity:1" id="path61"/>
        </g>
        <g id="g63" transform="translate(208.2539,244.5942)">
          <path d="M 0,0 C 5.529,-5.656 15.915,-5.369 21.124,0.583" style="fill:none;stroke:#000000;stroke-width:15;stroke-linecap:round;stroke-linejoin:round;stroke-miterlimit:10;stroke-dasharray:none;stroke-opacity:1" id="path65"/>
        </g>
        <g id="g67" transform="translate(175.3208,369.5725)">
          <path d="m 0,0 c -3.116,-28.998 -6.236,-58.161 -4.461,-87.272 0.81,-13.291 2.752,-26.867 9.157,-38.541 10.021,-18.264 30.782,-29.722 51.614,-29.735 20.833,-0.013 45.739,16.41 58.279,33.046" style="fill:none;stroke:#000000;stroke-width:15;stroke-linecap:round;stroke-linejoin:round;stroke-miterlimit:10;stroke-dasharray:none;stroke-opacity:1" id="path69"/>
        </g>
        <g id="g71" transform="translate(227.2378,423.8972)">
          <path d="m 0,0 c 0.557,-8.207 -2.233,-17.349 -6.948,-24.09 -4.715,-6.74 -11.094,-12.158 -17.853,-16.847 -8.065,-5.597 -16.96,-10.333 -26.632,-12.014" style="fill:none;stroke:#000000;stroke-width:15;stroke-linecap:round;stroke-linejoin:round;stroke-miterlimit:10;stroke-dasharray:none;stroke-opacity:1" id="path73"/>
        </g>
        <g id="g75" transform="translate(313.6973,130.8926)">
          <path d="M 0,0 C -3.403,-24.247 -9.545,-47.917 -11.859,-65.327" style="fill:none;stroke:#000000;stroke-width:15;stroke-linecap:round;stroke-linejoin:round;stroke-miterlimit:10;stroke-dasharray:none;stroke-opacity:1" id="path77"/>
        </g>
        <g id="g79" transform="translate(227.6167,423.8843)">
          <path d="m 0,0 c -0.97,-8.592 -0.931,-18.78 3.366,-26.284 8.059,-14.078 28.246,-14.276 41.675,-23.375 10.354,-7.016 16.174,-19.205 18.655,-31.464 7.068,-34.93 -9.27,-72.138 0.955,-106.278 2.552,-8.521 4.506,-17.678 9.858,-24.783 9.872,-13.104 13.541,-29.873 13.894,-47.807" style="fill:none;stroke:#000000;stroke-width:15;stroke-linecap:round;stroke-linejoin:round;stroke-miterlimit:10;stroke-dasharray:none;stroke-opacity:1" id="path81"/>
        </g>
        <g id="g83" transform="translate(227.2378,423.8972)">
          <path d="m 0,0 c -18.878,3.745 -37.103,-8.921 -50.093,-23.122 -37.988,-41.524 -52.765,-103.02 -37.794,-157.271 9.907,-35.897 32.07,-71.472 27.045,-108.37" style="fill:none;stroke:#000000;stroke-width:15;stroke-linecap:round;stroke-linejoin:round;stroke-miterlimit:10;stroke-dasharray:none;stroke-opacity:1" id="path85"/>
        </g>
        <g id="g87" transform="translate(227.6167,423.8843)">
          <path d="m 0,0 c 12.102,5.406 27.867,5.996 40.863,3.389 25.917,-5.198 46.472,-26.228 57.582,-50.213 11.11,-23.986 14.186,-50.817 16.343,-77.162 2.158,-26.346 3.608,-53.09 11.84,-78.209 4.237,-12.928 10.22,-25.245 14.166,-38.264 6.412,-21.152 7.258,-43.963 2.43,-65.531" style="fill:none;stroke:#000000;stroke-width:15;stroke-linecap:round;stroke-linejoin:round;stroke-miterlimit:10;stroke-dasharray:none;stroke-opacity:1" id="path89"/>
        </g>
        <g id="g91" transform="translate(220.313,215.1453)">
          <path d="m 0,0 c 0.569,-10.602 5.417,-24.45 1.783,-34.686 -4.407,-12.412 -17.275,-15.771 -27.223,-22.725 -9.067,-6.339 -17.408,-13.716 -24.803,-21.945 -7.132,-7.936 -15.356,-17.152 -15.93,-28.367 -0.734,-14.356 15.087,-24.231 26.09,-30.204 16.58,-9.001 35.223,-13.48 53.669,-16.746 12.22,-2.164 24.646,-3.852 37.017,-2.851 19.714,1.597 38.39,10.001 54.726,21.153 16.336,11.153 31.023,25.325 45.198,39.12" style="fill:none;stroke:#000000;stroke-width:15;stroke-linecap:round;stroke-linejoin:round;stroke-miterlimit:10;stroke-dasharray:none;stroke-opacity:1" id="path93"/>
        </g>
        <g id="g95" transform="translate(173.8003,139.7815)">
          <path d="M 0,0 C -29.811,-17.746 -54.178,-35.676 -61.539,-84.405" style="fill:none;stroke:#000000;stroke-width:15;stroke-linecap:round;stroke-linejoin:round;stroke-miterlimit:10;stroke-dasharray:none;stroke-opacity:1" id="path97"/>
        </g>
        <g id="g99" transform="translate(370.8403,117.894)">
          <path d="M 0,0 C 18.976,-9.114 37.506,-20.659 49.33,-29.133" style="fill:none;stroke:#000000;stroke-width:15;stroke-linecap:round;stroke-linejoin:round;stroke-miterlimit:10;stroke-dasharray:none;stroke-opacity:1" id="path101"/>
        </g>
        <g id="g103" transform="translate(373.5439,135.9778)">
          <path d="M 0,0 C 14.875,-0.779 34.588,-6.506 46.626,-15.279" style="fill:none;stroke:#000000;stroke-width:15;stroke-linecap:round;stroke-linejoin:round;stroke-miterlimit:10;stroke-dasharray:none;stroke-opacity:1" id="path105"/>
        </g>
        <g id="g107" transform="translate(91.8296,100.6953)">
          <path d="M 0,0 C 19.403,20.037 47.708,35.224 75.14,40.27" style="fill:none;stroke:#000000;stroke-width:15;stroke-linecap:round;stroke-linejoin:round;stroke-miterlimit:10;stroke-dasharray:none;stroke-opacity:1" id="path109"/>
        </g>
        <g id="g111" transform="translate(207.5562,66.3494)">
          <path d="M 0,0 C 2.329,4.336 5.096,9.325 7.425,13.661" style="fill:none;stroke:#000000;stroke-width:15;stroke-linecap:round;stroke-linejoin:round;stroke-miterlimit:10;stroke-dasharray:none;stroke-opacity:1" id="path113"/>
        </g>
        <g id="g115" transform="translate(91.8296,174.9673)">
          <path d="m 0,0 c 12.616,12.645 29.004,5.033 31.647,-5.918 0,29.543 21.583,34.758 29.276,36.321" style="fill:none;stroke:#000000;stroke-width:15;stroke-linecap:round;stroke-linejoin:round;stroke-miterlimit:10;stroke-dasharray:none;stroke-opacity:1" id="path117"/>
        </g>
        <g id="g119" transform="translate(346.6499,256.6045)">
          <path d="M 0,0 C 10.546,7.286 27.031,5.389 35.562,-4.178 30.056,15.047 39.1,47.271 73.463,48.694" style="fill:none;stroke:#000000;stroke-width:15;stroke-linecap:round;stroke-linejoin:round;stroke-miterlimit:10;stroke-dasharray:none;stroke-opacity:1" id="path121"/>
        </g>
      </g>
    </g>
  </g></g>
</svg>
