<?xml version="1.0" encoding="UTF-8" standalone="no"?>
<!-- Created with Inkscape (http://www.inkscape.org/) -->

<svg
   width="200mm"
   height="200mm"
   viewBox="0 0 200 200"
   version="1.1"
   id="svg23308"
   inkscape:version="1.3.2 (091e20e, 2023-11-25, custom)"
   sodipodi:docname="icon.svg"
   xmlns:inkscape="http://www.inkscape.org/namespaces/inkscape"
   xmlns:sodipodi="http://sodipodi.sourceforge.net/DTD/sodipodi-0.dtd"
   xmlns="http://www.w3.org/2000/svg"
   xmlns:svg="http://www.w3.org/2000/svg">
  <sodipodi:namedview
     id="namedview23310"
     pagecolor="#ffffff"
     bordercolor="#cccccc"
     borderopacity="1"
     inkscape:pageshadow="0"
     inkscape:pageopacity="1"
     inkscape:pagecheckerboard="0"
     inkscape:document-units="mm"
     showgrid="false"
     width="200mm"
     inkscape:zoom="2.1997092"
     inkscape:cx="224.57514"
     inkscape:cy="352.5466"
     inkscape:window-width="3840"
     inkscape:window-height="2089"
     inkscape:window-x="-8"
     inkscape:window-y="-8"
     inkscape:window-maximized="1"
     inkscape:current-layer="layer1"
     inkscape:showpageshadow="2"
     inkscape:deskcolor="#d1d1d1" />
  <defs
     id="defs23305">
    <inkscape:path-effect
       effect="simplify"
       id="path-effect33205"
       is_visible="true"
       lpeversion="1"
       steps="1"
       threshold="0.000408163"
       smooth_angles="360"
       helper_size="0"
       simplify_individual_paths="false"
       simplify_just_coalesce="false" />
    <inkscape:path-effect
       effect="simplify"
       id="path-effect33201"
       is_visible="true"
       lpeversion="1"
       steps="1"
       threshold="0.000408163"
       smooth_angles="360"
       helper_size="0"
       simplify_individual_paths="false"
       simplify_just_coalesce="false" />
    <inkscape:path-effect
       effect="simplify"
       id="path-effect33197"
       is_visible="true"
       lpeversion="1"
       steps="1"
       threshold="0.000408163"
       smooth_angles="360"
       helper_size="0"
       simplify_individual_paths="false"
       simplify_just_coalesce="false" />
    <pattern
       id="EMFhbasepattern"
       patternUnits="userSpaceOnUse"
       width="6"
       height="6"
       x="0"
       y="0" />
    <pattern
       id="EMFhbasepattern-9"
       patternUnits="userSpaceOnUse"
       width="6"
       height="6"
       x="0"
       y="0" />
  </defs>
  <g
     inkscape:label="Layer 1"
     inkscape:groupmode="layer"
     id="layer1">
    <rect
       style="fill:none;fill-rule:evenodd;stroke:#000000;stroke-width:5.55658;stroke-linecap:square;stroke-linejoin:round;stroke-miterlimit:4;stroke-dasharray:none;stroke-dashoffset:1;paint-order:markers fill stroke"
       id="rect26366"
       width="175.79541"
       height="149.91502"
       x="13.008107"
       y="26.01844"
       rx="14.163923"
       ry="15.99684" />
    <g
       id="g2"
       transform="matrix(1.0895137,0,0,1.0803434,-9.0324451,-12.919017)">
      <g
         id="g22519"
         transform="matrix(0.23075853,0,0,-0.22708115,136.50377,132.4905)"
         style="stroke-width:19.7285;stroke-dasharray:none">
        <path
           d="M 43.263091,6.3561974 C 67.390472,25.739226 86.735,50.271 86.735,101.59 c 0,56.798 -46.044,102.842 -102.843,102.842 -8.137,0 -16.051,-0.949 -23.642,-2.735 -11.333,57.667 -62.153,101.173 -123.142,101.173 -68.995,0 -124.978,-55.673 -125.496,-124.546 -5.302,0.967 -10.757,1.499 -16.338,1.499 -50.003,0 -90.539,-40.536 -90.539,-90.539 0,-44.584 32.226,-81.641 74.655,-89.149"
           style="fill:none;stroke:#000000;stroke-width:19.7285;stroke-linecap:butt;stroke-linejoin:miter;stroke-miterlimit:10;stroke-dasharray:none;stroke-opacity:1"
           id="path22521"
           sodipodi:nodetypes="csscscssc" />
      </g>
      <g
         id="g1"
         transform="matrix(1.1840327,0,0,1.2358435,-15.134255,-27.077766)">
        <g
           id="g22523"
           transform="matrix(0.19181702,0,0,-0.14062941,110.06455,140.36147)"
           style="stroke-width:20.6226;stroke-dasharray:none">
          <path
             d="m 0,0 v 0 c -26.406,0 -47.813,21.406 -47.813,47.813 v 75.351 c 0,26.406 21.407,47.813 47.813,47.813 26.406,0 47.813,-21.407 47.813,-47.813 V 47.813 C 47.813,21.406 26.406,0 0,0 Z"
             style="fill:none;stroke:#000000;stroke-width:20.6226;stroke-linecap:butt;stroke-linejoin:miter;stroke-miterlimit:10;stroke-dasharray:none;stroke-opacity:1"
             id="path22525" />
        </g>
        <g
           id="g22527"
           transform="matrix(0.21002387,0,0,-0.14202874,92.104791,133.56756)"
           style="stroke-width:19.6111;stroke-dasharray:none">
          <path
             d="m 0,0 c 0,-26.406 -21.406,-47.813 -47.813,-47.813 v 0 c -26.406,0 -47.813,21.407 -47.813,47.813 v 75.352 c 0,26.406 21.407,47.812 47.813,47.812 v 0 C -21.406,123.164 0,101.758 0,75.352"
             style="fill:none;stroke:#000000;stroke-width:19.6111;stroke-linecap:butt;stroke-linejoin:miter;stroke-miterlimit:10;stroke-dasharray:none;stroke-opacity:1"
             id="path22529" />
        </g>
        <g
           id="g22531"
           transform="matrix(0.11952069,0,0,-0.12148785,125.11396,136.92423)"
           style="stroke-width:23.4237;stroke-dasharray:none">
          <path
             d="m 0,0 v 8.74 c 0,18.778 15.222,34 34,34 18.777,0 34,-15.222 34,-34 0,-10.247 -5.044,-19.837 -13.487,-25.643 L 10.905,-46.893 C 4.078,-51.588 0,-59.343 0,-67.628 h 83"
             style="fill:none;stroke:#000000;stroke-width:23.4237;stroke-linecap:butt;stroke-linejoin:miter;stroke-miterlimit:10;stroke-dasharray:none;stroke-opacity:1"
             id="path22533" />
        </g>
      </g>
    </g>
  </g>
</svg>
