<?xml version="1.0" encoding="UTF-8"?>
<svg id="Layer_1" data-name="Layer 1" xmlns="http://www.w3.org/2000/svg" width="960" height="960" viewBox="0 0 960 960">
  <defs>
    <style>
      .cls-1 {
        stroke-width: 40px;
      }

      .cls-1, .cls-2 {
        fill: none;
        stroke: #000;
        stroke-linecap: round;
        stroke-linejoin: round;
      }

      .cls-2 {
        stroke-width: 20px;
      }
    </style>
  </defs>
  <path class="cls-2" d="m290.221,824.643c-35.54,0-65.713-25.445-71.745-60.503L124.963,220.559c-3.651-21.218,2.206-42.823,16.07-59.277,13.883-16.476,34.146-25.925,55.594-25.925,1.27,0,2.56.033,3.834.098l566.811,28.896c25.521,1.301,46.997,19.68,52.226,44.695l108.292,518.125c3.368,16.119-.467,32.844-10.523,45.884-10.056,13.041-25.256,21.001-41.703,21.84l-581.574,29.652c-1.252.064-2.52.097-3.768.097Z"/>
  <path class="cls-2" d="m877.872,703.728c3.469,16.595-8.695,32.369-25.627,33.232l-549.035,27.99c-13.961.718-26.25-9.114-28.612-22.895L186.071,227.57c-2.996-17.454,10.951-33.168,28.625-32.271l541.63,27.61c12.533.639,23.06,9.647,25.627,21.931l95.919,458.888Z"/>
  <path class="cls-2" d="m165.717,142.232l-100.266,55.739c-15.709,8.723-24.229,26.478-21.206,44.186l80.057,490.375c2.318,13.58,11.191,25.249,23.724,31.145l.051.024.052.024,114.977,55.69"/>
  <path class="cls-2" d="m66.909,443.067l-45.357,213.215c-3.341,15.693,8.908,30.365,24.952,29.891l59.802-1.804"/>
  <g>
    <path class="cls-1" d="m876.07,804.88l-581.57,29.65c-12.59.64-24.73-1.57-35.75-6.11l-.09-.04-8.86-4.29-106.03-51.36c-15.5-7.3-26.46-21.7-29.34-38.59l-8.12-49.77-59.81,1.8c-16.04.48-28.29-14.19-24.95-29.89l45.36-213.21-32.52-199.23c-3.74-21.92,6.76-43.81,26.2-54.61l91.89-51.08,8.38-4.66c12-5.78,25.64-8.76,40.11-8.02l566.81,28.89c30.08,1.54,55.34,23.16,61.51,52.64l108.29,518.12c8.32,39.83-20.87,77.69-61.51,79.76Z"/>
    <path class="cls-1" d="m152.48,138.15c2.69-1.71,5.49-3.27,8.38-4.66l-8.38,4.66Z"/>
    <path class="cls-1" d="m258.66,828.38c-3.05-1.26-6-2.69-8.86-4.29l8.86,4.29Z"/>
  </g>
</svg>