<?xml version="1.0" encoding="UTF-8" standalone="no"?>
<!-- Created with Inkscape (http://www.inkscape.org/) -->

<svg
   width="1100"
   height="1100"
   viewBox="0 0 291.04167 291.04168"
   version="1.1"
   id="svg5"
   inkscape:version="1.1.1 (3bf5ae0d25, 2021-09-20)"
   sodipodi:docname="icon.svg"
   xmlns:inkscape="http://www.inkscape.org/namespaces/inkscape"
   xmlns:sodipodi="http://sodipodi.sourceforge.net/DTD/sodipodi-0.dtd"
   xmlns="http://www.w3.org/2000/svg"
   xmlns:svg="http://www.w3.org/2000/svg">
  <sodipodi:namedview
     id="namedview7"
     pagecolor="#ffffff"
     bordercolor="#cccccc"
     borderopacity="1"
     inkscape:pageshadow="0"
     inkscape:pageopacity="1"
     inkscape:pagecheckerboard="0"
     inkscape:document-units="mm"
     showgrid="false"
     inkscape:zoom="1.0998546"
     inkscape:cx="-88.193476"
     inkscape:cy="450.9687"
     inkscape:window-width="3840"
     inkscape:window-height="2066"
     inkscape:window-x="-11"
     inkscape:window-y="-11"
     inkscape:window-maximized="1"
     inkscape:current-layer="layer1"
     units="px" />
  <defs
     id="defs2">
    <pattern
       id="EMFhbasepattern"
       patternUnits="userSpaceOnUse"
       width="6"
       height="6"
       x="0"
       y="0" />
  </defs>
  <g
     inkscape:label="Layer 1"
     inkscape:groupmode="layer"
     id="layer1">
    <g
       id="g17040"
       transform="matrix(0.59731264,0,0,0.61000697,84.790741,54.209626)"
       style="stroke-width:1.65666">
      <path
         id="rect42"
         style="fill:none;fill-rule:evenodd;stroke:#000000;stroke-width:24.8497;stroke-linecap:square;stroke-linejoin:round;stroke-dashoffset:1;paint-order:stroke fill markers"
         d="m 20.275456,-48.385343 c 4.725082,-0.428791 -0.424972,-3.287304 12.311376,-3.262696 48.401537,0.09352 87.068098,0.197299 133.280748,0.410847 2.81504,0.01301 13.98373,1.317684 13.98373,1.317684 5.59757,0.543084 8.25377,10.882688 8.29341,18.847839 l 1.68393,338.426309 c 0.1647,33.0995 -34.78779,59.20973 -63.04706,62.41613 -17.7612,2.01526 -39.261637,3.43229 -57.980342,-2.93011 C 46.63859,359.30768 14.333214,333.1373 12.32005,305.30986 10.311145,277.54129 11.919291,79.581911 11.718645,-33.282063 c -2.62e-4,-0.147376 7.287865,-14.988126 8.556811,-15.10328 z"
         sodipodi:nodetypes="sssssssssss" />
      <path
         style="font-variation-settings:normal;opacity:0.99;fill:none;fill-opacity:1;stroke:#000000;stroke-width:24.8497;stroke-linecap:square;stroke-linejoin:miter;stroke-miterlimit:4;stroke-dasharray:none;stroke-dashoffset:1;stroke-opacity:1;paint-order:stroke fill markers;stop-color:#000000;stop-opacity:1"
         d="m 11.907216,-33.482516 c -34.267106,-7.601682 -47.159881,21.186964 -47.628865,21.773194 -11.086472,104.408815 -14.253192,210.872942 0.680412,312.989692 10.894174,16.20387 24.704031,29.63091 54.43299,27.89689"
         id="path12960"
         sodipodi:nodetypes="cccc" />
      <path
         style="font-variation-settings:normal;opacity:0.99;fill:none;fill-opacity:1;stroke:#000000;stroke-width:24.8497;stroke-linecap:square;stroke-linejoin:miter;stroke-miterlimit:4;stroke-dasharray:none;stroke-dashoffset:1;stroke-opacity:1;paint-order:stroke fill markers;stop-color:#000000"
         d="m 193.44624,-33.482517 c 34.26711,-7.60168 47.15988,21.18697 47.62887,21.7732 5.04802,104.330594 9.22501,234.311147 -0.68041,312.989687 -10.89418,16.20387 -24.70403,29.63091 -54.43299,27.89689"
         id="path12960-1"
         sodipodi:nodetypes="cccc" />
      <rect
         style="fill:none;fill-rule:evenodd;stroke:#000000;stroke-width:16.5666;stroke-linecap:square;stroke-linejoin:round;stroke-miterlimit:4;stroke-dasharray:none;stroke-dashoffset:1;paint-order:stroke fill markers"
         id="rect13645"
         width="23.814434"
         height="64.639175"
         x="-17.841967"
         y="116.69072"
         rx="12.978374"
         ry="9.890729" />
      <rect
         style="fill:none;fill-rule:evenodd;stroke:#000000;stroke-width:16.5666;stroke-linecap:square;stroke-linejoin:round;stroke-miterlimit:4;stroke-dasharray:none;stroke-dashoffset:1;paint-order:stroke fill markers"
         id="rect13645-9"
         width="23.814434"
         height="64.639175"
         x="191.00691"
         y="116.58836"
         rx="12.978374"
         ry="9.890729" />
      <path
         style="font-variation-settings:normal;opacity:0.99;fill:none;fill-opacity:1;stroke:#000000;stroke-width:24.8497;stroke-linecap:square;stroke-linejoin:miter;stroke-miterlimit:4;stroke-dasharray:none;stroke-dashoffset:1;stroke-opacity:1;paint-order:stroke fill markers;stop-color:#000000;stop-opacity:1"
         d="m -7.5535099,-71.928068 -0.2405624,37.046563"
         id="path14256" />
      <path
         style="font-variation-settings:normal;opacity:0.99;fill:none;fill-opacity:1;stroke:#000000;stroke-width:24.8497;stroke-linecap:square;stroke-linejoin:miter;stroke-miterlimit:4;stroke-dasharray:none;stroke-dashoffset:1;stroke-opacity:1;paint-order:stroke fill markers;stop-color:#000000"
         d="m 214.94224,-71.206382 -0.24057,37.046563"
         id="path14256-6" />
    </g>
  </g>
</svg>
