<svg id="Layer_1" height="512" viewBox="0 0 512 512" width="512" xmlns="http://www.w3.org/2000/svg" data-name="Layer 1"><path d="m402.651 109.349a34.794 34.794 0 0 1 10.254 24.705 6 6 0 0 0 6 5.991h.01a6 6 0 0 0 5.99-6.01 47.007 47.007 0 0 0 -46.939-46.935h-.01a6 6 0 0 0 -.011 12 34.794 34.794 0 0 1 24.706 10.249z"/><path d="m377.959 46.042a6 6 0 0 0 0 12 76.074 76.074 0 0 1 76.005 76.006 6 6 0 0 0 6 6 6 6 0 0 0 6-6 88.075 88.075 0 0 0 -88-88z"/><path d="m377.958 5a6 6 0 0 0 0 12 117.1 117.1 0 0 1 117.042 117.047 6 6 0 0 0 6 6 6 6 0 0 0 6-6 129.1 129.1 0 0 0 -129.042-129.047z"/><path d="m329.225 75.111a27.787 27.787 0 0 0 -39.247 0l-276.85 276.851a27.785 27.785 0 0 0 0 39.246l107.664 107.664a27.75 27.75 0 0 0 39.247 0l276.849-276.85a27.749 27.749 0 0 0 0-39.246zm99.175 138.426-276.85 276.85a15.753 15.753 0 0 1 -22.276 0l-107.661-107.664a15.773 15.773 0 0 1 0-22.277l276.85-276.846a15.771 15.771 0 0 1 22.276 0l107.661 107.662a15.749 15.749 0 0 1 0 22.275z"/><path d="m265.369 192a38.627 38.627 0 0 0 54.631 54.632 38.627 38.627 0 1 0 -54.631-54.632zm53.941 27.313a26.629 26.629 0 1 1 -7.8-18.827 26.454 26.454 0 0 1 7.8 18.831z"/><path d="m241.158 317.741a22.314 22.314 0 1 0 15.778 6.536 22.165 22.165 0 0 0 -15.778-6.536zm7.293 29.605a10.315 10.315 0 1 1 3.02-7.293 10.248 10.248 0 0 1 -3.02 7.294z"/><path d="m187.326 371.573a22.314 22.314 0 1 0 15.778 6.536 22.165 22.165 0 0 0 -15.778-6.536zm7.293 29.606a10.315 10.315 0 1 1 3.02-7.292 10.248 10.248 0 0 1 -3.02 7.292z"/><path d="m187.724 286.62a22.313 22.313 0 1 0 -15.779 6.536 22.341 22.341 0 0 0 15.779-6.536zm-23.071-23.07a10.313 10.313 0 1 1 0 14.586 10.28 10.28 0 0 1 0-14.586z"/><path d="m102.335 308.9a22.314 22.314 0 1 0 31.556 0 22.169 22.169 0 0 0 -31.556 0zm23.071 23.072a10.309 10.309 0 1 1 0-14.587 10.25 10.25 0 0 1 0 14.583z"/><path d="m84.725 396.513a6 6 0 0 0 -8.485 8.487l16.215 16.215a6 6 0 0 0 8.485-8.487z"/><path d="m354.155 210.1h-.007a6.04 6.04 0 0 0 -2.38 5.267q.135 1.962.138 3.948a59.153 59.153 0 1 1 -17.324-41.9q1.512 1.513 2.9 3.118a6 6 0 1 0 9.115-7.8q-1.685-1.953-3.527-3.8a71.328 71.328 0 1 0 20.839 50.384q0-2.457-.167-4.886a6 6 0 0 0 -9.587-4.331z"/></svg>