<?xml version="1.0" encoding="UTF-8"?>
<svg id="Layer_1" data-name="Layer 1" xmlns="http://www.w3.org/2000/svg" width="960" height="960" viewBox="0 0 960 960">
  <defs>
    <style>
      .cls-1 {
        stroke-width: 40px;
      }

      .cls-1, .cls-2 {
        fill: none;
        stroke: #000;
        stroke-linecap: round;
        stroke-linejoin: round;
      }

      .cls-2 {
        stroke-width: 20px;
      }
    </style>
  </defs>
  <path class="cls-2" d="m393.424,929.051c-2.177,0-4.287-.394-6.426-1.2h0c-1.597-.98-2.587-2.703-2.629-4.577l.034-883.396c.113-4.856,4.001-8.903,8.859-8.927.031,0,.062,0,.093,0,.302,0,.605.007.909.022l219.729,20.867c12.133.572,21.805,10.465,22.104,22.528l-1.537,811.779c-.3,12.117-9.973,22.007-22.024,22.574l-218.34,20.314c-.203.009-.489.016-.772.016Z"/>
  <path class="cls-2" d="m378.677,25.164l-48.43,30.431c-9.746,6.124-15.774,16.725-16.054,28.232l-.235,793.559c.346,14.508,11.818,25.759,23.559,31.778"/>
  <line class="cls-2" x1="506.552" y1="122.172" x2="506.552" y2="99.344"/>
  <path class="cls-1" d="m644.504,886.452c-.428,17.332-14.178,31.391-31.5,32.207l-218.247,20.309c-4.368.209-8.437-.617-12.208-2.179l-.04-.02-7.9-4.845-37.102-22.765c-12.367-6.407-23.212-17.272-23.55-31.779l.239-793.556c.279-11.502,6.308-22.108,16.048-28.227l44.823-28.167,1.244-.786c5.114-3.801,11.542-5.94,18.427-5.611l219.805,20.871c17.322.816,31.072,14.875,31.5,32.217l-1.539,812.331Z"/>
  <line class="cls-1" x1="378.679" y1="25.162" x2="376.311" y2="26.645"/>
  <path d="m436.199,221.232l47.961,1.951c6.351.258,11.366,5.482,11.366,11.838v8.582c0,6.721-5.584,12.096-12.3,11.839l-47.961-1.831c-6.363-.243-11.396-5.472-11.396-11.839v-8.702c0-6.732,5.603-12.112,12.329-11.838Z"/>
  <path d="m591.43,238.931v8.323c0,6.721-5.584,12.096-12.3,11.839l-47.951-1.831c-6.363-.243-11.396-5.472-11.396-11.839v-8.443c0-6.732,5.603-12.112,12.329-11.838l47.951,1.951c6.351.258,11.366,5.482,11.366,11.838Z"/>
  <path d="m436.05,303.842l47.961,1.345c6.411.18,11.516,5.429,11.516,11.843v9.027c0,6.648-5.468,11.994-12.114,11.845l-47.961-1.079c-6.438-.145-11.581-5.405-11.581-11.845v-9.293c0-6.673,5.509-12.03,12.18-11.843Z"/>
  <path d="m591.43,319.727v8.49c0,6.648-5.468,11.994-12.114,11.845l-47.951-1.079c-6.438-.145-11.581-5.405-11.581-11.845v-8.756c0-6.673,5.509-12.03,12.18-11.843l47.951,1.345c6.411.18,11.516,5.429,11.516,11.843Z"/>
  <path d="m435.897,382.373l47.961.726c6.473.098,11.668,5.373,11.668,11.846v11.301c0,6.588-5.374,11.91-11.961,11.847l-47.961-.459c-6.499-.062-11.734-5.348-11.734-11.847v-11.568c0-6.613,5.414-11.946,12.027-11.846Z"/>
  <path d="m591.43,396.408v10.754c0,6.588-5.374,11.91-11.961,11.847l-47.951-.46c-6.499-.062-11.734-5.348-11.734-11.847v-11.02c0-6.613,5.414-11.947,12.027-11.846l47.951.726c6.473.098,11.668,5.373,11.668,11.846Z"/>
  <path d="m435.717,465.559h47.961c6.543,0,11.848,5.304,11.848,11.848v10.968c0,6.532-5.286,11.831-11.818,11.848l-47.961.12c-6.555.016-11.877-5.293-11.877-11.848v-11.088c0-6.543,5.304-11.848,11.848-11.848Z"/>
  <path d="m591.43,477.407v10.72c0,6.532-5.286,11.831-11.818,11.848l-47.951.12c-6.555.016-11.877-5.293-11.877-11.848v-10.84c0-6.543,5.304-11.848,11.848-11.848h47.951c6.543,0,11.848,5.304,11.848,11.848Z"/>
  <path d="m435.584,548.038l47.961-.539c6.595-.074,11.981,5.252,11.981,11.847v11.181c0,6.466-5.184,11.737-11.649,11.846l-47.961.806c-6.62.111-12.047-5.225-12.047-11.846v-11.448c0-6.491,5.224-11.774,11.715-11.847Z"/>
  <path d="m591.43,558.271v10.654c0,6.466-5.184,11.737-11.649,11.846l-47.951.806c-6.62.111-12.047-5.225-12.047-11.846v-10.92c0-6.491,5.224-11.774,11.714-11.847l47.951-.539c6.595-.074,11.981,5.252,11.981,11.847Z"/>
  <path d="m435.584,628.038l47.961-.539c6.595-.074,11.981,5.252,11.981,11.847v11.181c0,6.466-5.184,11.737-11.649,11.846l-47.961.806c-6.62.111-12.047-5.225-12.047-11.846v-11.448c0-6.491,5.224-11.774,11.715-11.847Z"/>
  <path d="m591.43,638.271v10.654c0,6.466-5.184,11.737-11.649,11.846l-47.951.806c-6.62.111-12.047-5.225-12.047-11.846v-10.92c0-6.491,5.224-11.774,11.714-11.847l47.951-.539c6.595-.074,11.981,5.252,11.981,11.847Z"/>
</svg>