<?xml version="1.0" encoding="UTF-8"?>
<svg id="Layer_1" data-name="Layer 1" xmlns="http://www.w3.org/2000/svg" width="960" height="960" viewBox="0 0 960 960">
  <defs>
    <style>
      .cls-1 {
        stroke-width: 40px;
      }

      .cls-1, .cls-2 {
        fill: none;
        stroke: #000;
        stroke-linecap: round;
        stroke-linejoin: round;
      }

      .cls-2 {
        stroke-width: 20px;
      }
    </style>
  </defs>
  <path class="cls-2" d="m395.968,929c-29.87,0-54.17-24.344-54.17-54.266V85.267c0-29.923,24.297-54.267,54.162-54.267,1.759,0,3.546.086,5.311.257l210.745,20.336c27.962,2.698,49.049,25.918,49.049,54.01v751.486c0,13.645-5.087,26.69-14.324,36.733-9.237,10.042-21.812,16.2-35.41,17.339l-210.745,17.646c-1.535.128-3.088.193-4.618.193Z"/>
  <path class="cls-2" d="m366.249,28.27l-45.121,25.983c-19.918,11.47-32.193,32.704-32.193,55.688v739.269c0,22.704,11.981,43.723,31.516,55.292l46.502,27.539"/>
  <line class="cls-2" x1="366.91" y1="932.02" x2="359.9" y2="927.87"/>
  <path class="cls-2" d="m366.91,932.02c-2.43-1.24-4.77-2.63-7.01-4.15l7.01,4.15Z"/>
  <circle class="cls-2" cx="421.253" cy="107.668" r="37.586"/>
  <circle class="cls-2" cx="507.853" cy="307.717" r="120.375"/>
  <circle class="cls-2" cx="507.853" cy="307.717" r="48.213"/>
  <circle class="cls-2" cx="593.653" cy="120.929" r="37.586"/>
  <circle class="cls-2" cx="421.253" cy="521.028" r="37.586"/>
  <circle class="cls-2" cx="593.653" cy="521.028" r="37.586"/>
  <circle class="cls-2" cx="421.253" cy="657.444" r="37.586"/>
  <circle class="cls-2" cx="593.653" cy="651.55" r="37.586"/>
  <circle class="cls-2" cx="421.253" cy="804.665" r="37.586"/>
  <circle class="cls-2" cx="593.653" cy="793.86" r="37.586"/>
  <line class="cls-2" x1="587.579" y1="397.889" x2="539.79" y2="343.834"/>
  <line class="cls-2" x1="598.021" y1="227.982" x2="543.967" y2="275.782"/>
  <line class="cls-2" x1="475.914" y1="271.605" x2="428.115" y2="217.55"/>
  <line class="cls-2" x1="471.737" y1="339.657" x2="417.683" y2="387.446"/>
  <g>
    <path class="cls-1" d="m671.06,105.6v751.49c0,33.41-25.6,61.25-58.9,64.04l-210.74,17.64c-12.4,1.04-24.21-1.5-34.47-6.73l-.04-.02-7.01-4.15-39.45-23.37c-19.53-11.57-31.51-32.59-31.51-55.29V109.94c0-22.98,12.27-44.22,32.19-55.69l43.08-24.8c11.09-6.36,24.22-9.48,38.02-8.15l210.75,20.34c32.94,3.18,58.08,30.86,58.08,63.96Z"/>
    <path class="cls-1" d="m366.91,932.02c-2.43-1.24-4.77-2.63-7.01-4.15l7.01,4.15Z"/>
    <line class="cls-1" x1="366.25" y1="28.27" x2="364.21" y2="29.45"/>
  </g>
</svg>