<?xml version="1.0" encoding="UTF-8" standalone="no"?>
<!-- Created with Inkscape (http://www.inkscape.org/) -->

<svg
   version="1.1"
   id="svg1041"
   xml:space="preserve"
   width="682.66669"
   height="682.66669"
   viewBox="0 0 682.66669 682.66669"
   xmlns="http://www.w3.org/2000/svg"
   xmlns:svg="http://www.w3.org/2000/svg"><defs
     id="defs1045"><clipPath
       clipPathUnits="userSpaceOnUse"
       id="clipPath1055"><path
         d="M 0,512 H 512 V 0 H 0 Z"
         id="path1053" /></clipPath></defs><g
     id="g1047"
     transform="matrix(1.3333333,0,0,-1.3333333,0,682.66667)"><g
       id="g1049"><g
         id="g1051"
         clip-path="url(#clipPath1055)"><g
           id="g1057"
           transform="translate(308.5,450.8555)"><path
             d="m 0,0 -45,-77.942 m -180,-311.769 45,77.942 m 135,0 45,-77.942 M -225,0 l 45,-77.942 m 67.5,-341.913 v 90 m 0,360 v -90 m 218.5,-105 h 88 m -88,-30 h 88 m -88,-30 h 88 m -88,-62 v -13 c 0,-8.25 6.75,-15 15,-15 h 30 c 8.25,0 15,6.75 15,15 v 13 m -437,0 v -13 c 0,-8.25 6.75,-15 15,-15 h 30 c 8.25,0 15,6.75 15,15 v 13 m 199.151,122.002 c -7.538,25.324 -24.371,46.643 -46.543,60.001 -15.801,9.52 -34.315,14.997 -54.108,14.997 -57.99,0 -105,-47.01 -105,-105 0,-57.991 47.01,-105 105,-105 19.793,0 38.307,5.476 54.108,14.996 30.496,18.373 50.892,51.806 50.892,90.004 m -105,75 c -41.422,0 -75,-33.579 -75,-75 0,-41.422 33.578,-75 75,-75 41.422,0 75,33.578 75,75 0,41.421 -33.578,75 -75,75 z m 96.108,15 H 166 c 16.5,0 30,-13.5 30,-30 v -135 c 0,-8.25 -6.75,-15 -15,-15 H -56.392 m -112.214,0 H -286 c -8.25,0 -15,6.75 -15,15 v 135 c 0,16.5 13.5,30 30,30 h 102.394"
             style="fill:none;stroke:#000000;stroke-width:15;stroke-linecap:round;stroke-linejoin:round;stroke-miterlimit:10;stroke-dasharray:none;stroke-opacity:1"
             id="path1059" /></g></g></g></g></svg>
