<?xml version="1.0" encoding="UTF-8"?>
<svg id="Layer_1" data-name="Layer 1" xmlns="http://www.w3.org/2000/svg" width="960" height="960" viewBox="0 0 960 960">
  <defs>
    <style>
      .cls-1 {
        stroke-width: 40px;
      }

      .cls-1, .cls-2, .cls-3, .cls-4 {
        fill: none;
        stroke: #000;
      }

      .cls-1, .cls-3 {
        stroke-linecap: round;
      }

      .cls-1, .cls-3, .cls-4 {
        stroke-linejoin: round;
      }

      .cls-2, .cls-3, .cls-4 {
        stroke-width: 20px;
      }
    </style>
  </defs>
  <path class="cls-2" d="m697.871,893.034c-16.304,0-29.569-13.288-29.569-29.622v-507.36c0-16.333,13.264-29.622,29.569-29.622.782,0,1.577.031,2.362.093l159.555,5.511c15.313,1.198,27.308,14.169,27.308,29.529v487.307c0,15.355-11.99,28.325-27.297,29.528l-159.555,14.541c-.789.062-1.587.094-2.373.094Z"/>
  <line class="cls-2" x1="806.303" y1="360.42" x2="754.963" y2="359.399"/>
  <ellipse cx="728.948" cy="445.348" rx="26.457" ry="28.342"/>
  <ellipse cx="830.254" cy="450.19" rx="26.457" ry="28.342"/>
  <ellipse cx="728.948" cy="535.567" rx="26.457" ry="28.342"/>
  <ellipse cx="830.254" cy="539.47" rx="26.457" ry="28.342"/>
  <ellipse cx="728.948" cy="625.705" rx="26.457" ry="28.342"/>
  <ellipse cx="830.254" cy="627.729" rx="26.457" ry="28.342"/>
  <ellipse cx="728.948" cy="718.807" rx="26.457" ry="28.342"/>
  <ellipse cx="830.254" cy="718.013" rx="26.457" ry="28.342"/>
  <path class="cls-2" d="m677.865,324.413l-38.788,23.359c-8.246,4.965-13.287,13.887-13.287,23.513v477.064c0,9.653,5.071,18.597,13.355,23.553l42.164,25.227"/>
  <g>
    <path class="cls-2" d="m96.128,375.524c-3.191-5.558-6.152-11.261-8.884-17.09-14.306-30.499-22.293-64.555-22.293-100.476,0-130.861,106.086-236.958,236.958-236.958s236.958,106.097,236.958,236.958c0,35.922-7.987,69.977-22.293,100.476-2.732,5.829-5.693,11.532-8.884,17.09"/>
    <path class="cls-2" d="m85.982,355.712c71.072,6.746,143.092,10.198,215.926,10.198s144.854-3.451,215.926-10.198"/>
    <path class="cls-3" d="m95.977,353.565c25.121,45.035,69.2,151.03,82.173,354.929.128,2.02.783,3.965,1.894,5.623l16.275,24.312c2.11,3.152,5.634,5.034,9.427,5.034h193.092c3.878,0,7.445-1.947,9.543-5.209l15.494-24.1c1.04-1.618,1.654-3.501,1.777-5.446,12.956-204.033,57.055-310.085,82.187-355.142"/>
    <line class="cls-4" x1="338.762" y1="780.963" x2="204.393" y2="780.963"/>
    <line class="cls-4" x1="338.762" y1="817.458" x2="204.393" y2="817.458"/>
    <line class="cls-4" x1="338.762" y1="854.996" x2="204.393" y2="854.996"/>
    <path class="cls-3" d="m399.428,743.45v120.44c0,15.45-12.53,27.97-27.98,27.97h-139.08c-15.45,0-27.98-12.52-27.98-27.97v-120.47"/>
    <path class="cls-2" d="m365.602,901.861s-25.437,37.139-63.694,37.139c-38.257,0-63.694-37.139-63.694-37.139"/>
    <g>
      <path class="cls-1" d="m538.868,257.96c0,35.92-7.99,69.97-22.3,100.47v.01c-.01.02-.02.04-.03.06-2.96,5.31-5.91,10.97-8.84,17q-.01.01-.01.02c-32.21,66.24-62.06,176.28-72.06,333.82-.23,3.63-1.37,7.16-3.34,10.22l-15.5,24.1c-3.81,5.94-10.32,9.6-17.36,9.79v120.44c0,15.45-12.53,27.97-27.98,27.97h-5.85s-25.43,37.14-63.69,37.14-63.69-37.14-63.69-37.14h-5.85c-15.45,0-27.98-12.52-27.98-27.97v-120.47c-6.6-.42-12.67-3.89-16.38-9.43l-16.27-24.31c-2.1-3.14-3.33-6.78-3.57-10.55-10.01-157.42-39.84-267.39-72.04-333.61q0-.01-.01-.02c-2.93-6.03-5.88-11.7-8.84-17-.01-.02-.02-.04-.03-.06v-.01c-14.31-30.5-22.3-64.55-22.3-100.47,0-130.86,106.09-236.96,236.96-236.96s236.96,106.1,236.96,236.96Z"/>
      <path class="cls-1" d="m516.538,358.5c-2.72,5.8-5.67,11.48-8.84,17"/>
      <path class="cls-1" d="m96.118,375.5c-3.17-5.52-6.12-11.2-8.84-17"/>
    </g>
  </g>
  <g>
    <path class="cls-1" d="m895.052,361.567v487.306c0,19.608-15.08,35.922-34.632,37.458l-159.554,14.542c-7.019.549-13.711-.86-19.56-3.748l-.04-.024-5.141-3.072-36.98-22.131c-8.284-4.95-13.353-13.894-13.353-23.547v-477.07c0-9.621,5.037-18.542,13.282-23.507l36.924-22.234c6.931-4.997,15.613-7.671,24.86-6.947l159.554,5.509c19.552,1.528,34.64,17.849,34.64,37.465Z"/>
    <path class="cls-1" d="m681.265,897.1c-1.798-.883-3.517-1.918-5.141-3.072l5.141,3.072Z"/>
    <line class="cls-1" x1="677.867" y1="324.409" x2="675.997" y2="325.539"/>
  </g>
</svg>