<?xml version="1.0" encoding="UTF-8" standalone="no"?>
<!-- Created with Inkscape (http://www.inkscape.org/) -->

<svg
   version="1.1"
   id="svg2700"
   xml:space="preserve"
   width="682.66669"
   height="682.66669"
   viewBox="0 0 682.66669 682.66669"
   xmlns="http://www.w3.org/2000/svg"
   xmlns:svg="http://www.w3.org/2000/svg"><defs
     id="defs2704"><clipPath
       clipPathUnits="userSpaceOnUse"
       id="clipPath2714"><path
         d="M 0,512 H 512 V 0 H 0 Z"
         id="path2712" /></clipPath></defs><g
     id="g2706"
     transform="matrix(1.3333333,0,0,-1.3333333,0,682.66667)"><g
       id="g2708"><g
         id="g2710"
         clip-path="url(#clipPath2714)"><g
           id="g2716"
           transform="translate(435,7.5)"><path
             d="m 0,0 h -358 c -8.284,0 -15,6.716 -15,15 0,8.284 6.716,15 15,15 H 0 C 8.284,30 15,23.284 15,15 15,6.716 8.284,0 0,0 Z"
             style="fill:none;stroke:#000000;stroke-width:15;stroke-linecap:round;stroke-linejoin:round;stroke-miterlimit:10;stroke-dasharray:none;stroke-opacity:1"
             id="path2718" /></g><g
           id="g2720"
           transform="translate(394,319.5)"><path
             d="M 0,0 V 24.5 C 0,39.13 -11.87,51 -26.5,51 h -223 C -264.13,51 -276,39.13 -276,24.5 v -66.97"
             style="fill:none;stroke:#000000;stroke-width:15;stroke-linecap:round;stroke-linejoin:round;stroke-miterlimit:10;stroke-dasharray:none;stroke-opacity:1"
             id="path2722" /></g><g
           id="g2724"
           transform="translate(394,268.25)"><path
             d="M 0,0 V 19.417"
             style="fill:none;stroke:#000000;stroke-width:15;stroke-linecap:round;stroke-linejoin:round;stroke-miterlimit:10;stroke-dasharray:none;stroke-opacity:1"
             id="path2726" /></g><g
           id="g2728"
           transform="translate(118,242.9702)"><path
             d="M 0,0 V -205.47 H 276 V -6.845"
             style="fill:none;stroke:#000000;stroke-width:15;stroke-linecap:round;stroke-linejoin:round;stroke-miterlimit:10;stroke-dasharray:none;stroke-opacity:1"
             id="path2730" /></g><g
           id="g2732"
           transform="translate(191.8335,142)"><path
             d="m 0,0 h 202.167 v -104 h -276 V 0 h 42.166"
             style="fill:none;stroke:#000000;stroke-width:15;stroke-linecap:round;stroke-linejoin:round;stroke-miterlimit:10;stroke-dasharray:none;stroke-opacity:1"
             id="path2734" /></g><g
           id="g2736"
           transform="translate(368.5,467.5)"><path
             d="m 0,0 h -65 c -10.217,0 -18.5,8.283 -18.5,18.5 0,10.217 8.283,18.5 18.5,18.5 H 0 C 10.217,37 18.5,28.717 18.5,18.5 18.5,8.283 10.217,0 0,0 Z"
             style="fill:none;stroke:#000000;stroke-width:15;stroke-linecap:round;stroke-linejoin:round;stroke-miterlimit:10;stroke-dasharray:none;stroke-opacity:1"
             id="path2738" /></g><g
           id="g2740"
           transform="translate(286.5,405)"><path
             d="m 0,0 h -47 c -10.217,0 -18.5,8.283 -18.5,18.5 0,10.217 8.283,18.5 18.5,18.5 H 0 C 10.217,37 18.5,28.717 18.5,18.5 18.5,8.283 10.217,0 0,0 Z"
             style="fill:none;stroke:#000000;stroke-width:15;stroke-linecap:round;stroke-linejoin:round;stroke-miterlimit:10;stroke-dasharray:none;stroke-opacity:1"
             id="path2742" /></g><g
           id="g2744"
           transform="translate(197.5,460)"><path
             d="m 0,0 h -39 c -10.217,0 -18.5,8.283 -18.5,18.5 0,10.217 8.283,18.5 18.5,18.5 H 0 C 10.217,37 18.5,28.717 18.5,18.5 18.5,8.283 10.217,0 0,0 Z"
             style="fill:none;stroke:#000000;stroke-width:15;stroke-linecap:round;stroke-linejoin:round;stroke-miterlimit:10;stroke-dasharray:none;stroke-opacity:1"
             id="path2746" /></g><g
           id="g2748"
           transform="translate(276.0557,99.7642)"><path
             d="m 0,0 c 1.876,-3.327 2.944,-7.169 2.944,-11.264 0,-12.7 -10.299,-23 -23,-23 -12.7,0 -23,10.3 -23,23 0,4.095 1.069,7.937 2.945,11.264"
             style="fill:none;stroke:#000000;stroke-width:15;stroke-linecap:round;stroke-linejoin:round;stroke-miterlimit:10;stroke-dasharray:none;stroke-opacity:1"
             id="path2750" /></g><g
           id="g2752"
           transform="translate(256,92.5)"><path
             d="M 0,0 V 25"
             style="fill:none;stroke:#000000;stroke-width:15;stroke-linecap:round;stroke-linejoin:round;stroke-miterlimit:10;stroke-dasharray:none;stroke-opacity:1"
             id="path2754" /></g><g
           id="g2756"
           transform="translate(42.5,444)"><path
             d="m 0,0 c 0,-9.665 -7.835,-17.5 -17.5,-17.5 -9.665,0 -17.5,7.835 -17.5,17.5 0,9.665 7.835,17.5 17.5,17.5 C -7.835,17.5 0,9.665 0,0 Z"
             style="fill:none;stroke:#000000;stroke-width:15;stroke-linecap:round;stroke-linejoin:round;stroke-miterlimit:10;stroke-dasharray:none;stroke-opacity:1"
             id="path2758" /></g><g
           id="g2760"
           transform="translate(504.5,302)"><path
             d="m 0,0 c 0,-9.665 -7.835,-17.5 -17.5,-17.5 -9.665,0 -17.5,7.835 -17.5,17.5 0,9.665 7.835,17.5 17.5,17.5 C -7.835,17.5 0,9.665 0,0 Z"
             style="fill:none;stroke:#000000;stroke-width:15;stroke-linecap:round;stroke-linejoin:round;stroke-miterlimit:10;stroke-dasharray:none;stroke-opacity:1"
             id="path2762" /></g><g
           id="g2764"
           transform="translate(449.5,418)"><path
             d="m 0,0 c 0,-9.665 -7.835,-17.5 -17.5,-17.5 -9.665,0 -17.5,7.835 -17.5,17.5 0,9.665 7.835,17.5 17.5,17.5 C -7.835,17.5 0,9.665 0,0 Z"
             style="fill:none;stroke:#000000;stroke-width:15;stroke-linecap:round;stroke-linejoin:round;stroke-miterlimit:10;stroke-dasharray:none;stroke-opacity:1"
             id="path2766" /></g><g
           id="g2768"
           transform="translate(131.5,260)"><path
             d="m 0,0 c 0,-9.665 -7.835,-17.5 -17.5,-17.5 -9.665,0 -17.5,7.835 -17.5,17.5 0,9.665 7.835,17.5 17.5,17.5 C -7.835,17.5 0,9.665 0,0 Z"
             style="fill:none;stroke:#000000;stroke-width:15;stroke-linecap:round;stroke-linejoin:round;stroke-miterlimit:10;stroke-dasharray:none;stroke-opacity:1"
             id="path2770" /></g></g></g></g></svg>
