<?xml version="1.0" encoding="UTF-8"?>
<svg id="Layer_1" data-name="Layer 1" xmlns="http://www.w3.org/2000/svg" width="960" height="960" viewBox="0 0 960 960">
  <defs>
    <style>
      .cls-1 {
        stroke-width: 40px;
      }

      .cls-1, .cls-2 {
        fill: none;
        stroke: #000;
        stroke-linecap: round;
        stroke-linejoin: round;
      }

      .cls-2 {
        stroke-width: 20px;
      }
    </style>
  </defs>
  <path class="cls-2" d="m398.838,929c-15.522,0-28.151-12.656-28.151-28.212V59.213c0-15.557,12.628-28.213,28.149-28.213.951,0,1.917.048,2.873.144l205.383,20.576c14.479,1.451,25.397,13.518,25.397,28.069v801.637c0,14.637-10.989,26.711-25.562,28.084l-205.384,19.362c-.899.085-1.811.128-2.706.128Z"/>
  <path d="m396.373,117.844l48.754,3.743c3.207.246,5.683,2.92,5.683,6.137v23.609c0,3.569-3.026,6.39-6.587,6.139l-48.754-3.432c-3.223-.227-5.722-2.908-5.722-6.139v-23.92c0-3.585,3.051-6.411,6.626-6.137Z"/>
  <path d="m483.039,124.5l44.805,3.436c3.207.246,5.684,2.92,5.684,6.137v23.085c0,3.569-3.026,6.39-6.587,6.139l-44.805-3.154c-3.223-.227-5.722-2.908-5.722-6.139v-23.367c0-3.585,3.051-6.411,6.625-6.137Z"/>
  <path d="m612.389,140.124v22.582c0,3.569-3.027,6.39-6.587,6.139l-40.948-2.887c-3.223-.227-5.722-2.908-5.722-6.139v-22.843c0-3.585,3.052-6.411,6.626-6.136l40.948,3.147c3.207.246,5.683,2.92,5.683,6.136Z"/>
  <path d="m396.279,190.277l48.754,2.989c3.247.199,5.778,2.89,5.778,6.143v25.537c0,3.529-2.961,6.335-6.485,6.146l-48.754-2.621c-3.266-.176-5.824-2.875-5.824-6.146v-25.905c0-3.547,2.991-6.36,6.531-6.143Z"/>
  <path d="m482.946,195.591l44.805,2.752c3.246.199,5.777,2.89,5.777,6.143v24.911c0,3.529-2.962,6.336-6.486,6.146l-44.805-2.414c-3.266-.176-5.823-2.875-5.823-6.146v-25.249c0-3.547,2.991-6.36,6.532-6.143Z"/>
  <path d="m612.389,209.319v24.316c0,3.529-2.961,6.335-6.485,6.146l-40.948-2.2c-3.266-.176-5.824-2.875-5.824-6.146v-24.623c0-3.547,2.99-6.36,6.531-6.143l40.948,2.508c3.247.199,5.778,2.89,5.778,6.143Z"/>
  <path d="m396.181,267.829l48.754,2.211c3.287.149,5.876,2.858,5.876,6.148v27.677c0,3.487-2.895,6.278-6.38,6.15l-48.754-1.785c-3.309-.121-5.929-2.839-5.929-6.15v-28.103c0-3.509,2.928-6.307,6.433-6.148Z"/>
  <path d="m533.528,279.933v26.959c0,3.487-2.895,6.278-6.38,6.15l-44.805-1.642c-3.309-.121-5.929-2.839-5.929-6.15v-27.345c0-3.508,2.928-6.307,6.433-6.148l44.805,2.028c3.288.149,5.876,2.857,5.876,6.148Z"/>
  <path d="m612.389,283.503v26.272c0,3.487-2.895,6.278-6.38,6.15l-40.948-1.498c-3.309-.121-5.93-2.839-5.93-6.15v-26.627c0-3.508,2.928-6.307,6.433-6.148l40.948,1.853c3.288.149,5.876,2.857,5.876,6.148Z"/>
  <path d="m396.059,348.139l48.754,1.245c3.337.085,5.997,2.815,5.997,6.153v32.586c0,3.432-2.807,6.201-6.239,6.154l-48.754-.672c-3.366-.046-6.07-2.788-6.07-6.154v-33.16c0-3.461,2.852-6.241,6.312-6.153Z"/>
  <path d="m482.725,350.344l44.805,1.143c3.337.085,5.998,2.815,5.998,6.153v31.632c0,3.432-2.808,6.201-6.24,6.154l-44.805-.62c-3.366-.047-6.069-2.788-6.069-6.154v-32.155c0-3.461,2.852-6.241,6.311-6.153Z"/>
  <path d="m612.389,359.65v30.708c0,3.432-2.808,6.202-6.24,6.154l-40.948-.568c-3.365-.047-6.069-2.788-6.069-6.154v-31.181c0-3.46,2.852-6.241,6.311-6.153l40.948,1.041c3.337.085,5.998,2.814,5.998,6.153Z"/>
  <path d="m395.964,435.537l48.754.491c3.375.034,6.093,2.779,6.093,6.154v29.593c0,3.399-2.755,6.155-6.155,6.155h-48.754c-3.399,0-6.155-2.755-6.155-6.155v-30.085c0-3.423,2.793-6.189,6.217-6.154Z"/>
  <path d="m482.63,436.419l44.805.451c3.375.034,6.093,2.779,6.093,6.154v28.752c0,3.399-2.755,6.155-6.155,6.155h-44.805c-3.399,0-6.155-2.755-6.155-6.155v-29.203c0-3.423,2.793-6.189,6.216-6.154Z"/>
  <path d="m612.389,443.824v27.953c0,3.399-2.755,6.155-6.155,6.155h-40.948c-3.399,0-6.155-2.755-6.155-6.155v-28.371c0-3.424,2.794-6.189,6.217-6.154l40.948.418c3.374.034,6.092,2.78,6.092,6.154Z"/>
  <path d="m395.825,521.768l48.754-.606c3.429-.043,6.231,2.725,6.231,6.154v28.145c0,3.366-2.703,6.107-6.069,6.154l-48.754.68c-3.432.048-6.24-2.721-6.24-6.154v-28.219c0-3.369,2.709-6.112,6.078-6.154Z"/>
  <path d="m482.491,520.69l44.805-.563c3.429-.043,6.232,2.725,6.232,6.154v28.021c0,3.365-2.703,6.107-6.068,6.154l-44.805.627c-3.432.048-6.241-2.721-6.241-6.154v-28.086c0-3.369,2.709-6.112,6.077-6.154Z"/>
  <path d="m612.389,525.296v27.899c0,3.365-2.703,6.107-6.068,6.154l-40.948.576c-3.433.048-6.241-2.721-6.241-6.154v-27.962c0-3.369,2.709-6.112,6.078-6.154l40.948-.513c3.429-.043,6.232,2.725,6.232,6.154Z"/>
  <path d="m395.696,685.5l48.754-1.63c3.478-.116,6.36,2.671,6.36,6.151v27.462c0,3.286-2.582,5.993-5.864,6.148l-48.754,2.301c-3.509.166-6.445-2.635-6.445-6.148v-28.134c0-3.319,2.632-6.04,5.949-6.151Z"/>
  <path d="m482.363,682.597l44.805-1.497c3.478-.116,6.36,2.672,6.36,6.151v26.333c0,3.287-2.582,5.993-5.865,6.148l-44.805,2.108c-3.509.165-6.444-2.635-6.444-6.148v-26.945c0-3.319,2.632-6.04,5.949-6.151Z"/>
  <path d="m612.389,684.606v25.256c0,3.286-2.582,5.993-5.864,6.148l-40.948,1.932c-3.509.166-6.445-2.635-6.445-6.148v-25.816c0-3.319,2.631-6.04,5.948-6.151l40.948-1.372c3.478-.117,6.361,2.671,6.361,6.151Z"/>
  <path class="cls-2" d="m371.79,927.71l-42.16-25.96c-7.53-4.64-12.12-12.85-12.12-21.69V78.96c0-8.94,4.69-17.23,12.36-21.84l42.84-25.73"/>
  <path class="cls-1" d="m642.49,79.79v801.64c0,19.71-15,36.19-34.62,38.04l-205.39,19.36c-11.91,1.12-22.95-3.33-30.69-11.12l-42.16-25.96c-7.53-4.64-12.12-12.85-12.12-21.69V78.96c0-8.94,4.69-17.23,12.36-21.84l42.84-25.73c7.74-7.28,18.47-11.35,29.99-10.2l205.39,20.58c19.53,1.96,34.4,18.39,34.4,38.02Z"/>
</svg>