<?xml version="1.0" encoding="UTF-8"?>
<svg id="Layer_1" data-name="Layer 1" xmlns="http://www.w3.org/2000/svg" width="960" height="960" viewBox="0 0 960 960">
  <defs>
    <style>
      .cls-1 {
        stroke-width: 40px;
      }

      .cls-1, .cls-2 {
        fill: none;
        stroke: #000;
        stroke-linecap: round;
        stroke-linejoin: round;
      }

      .cls-2 {
        stroke-width: 20px;
      }
    </style>
  </defs>
  <path class="cls-2" d="m235.947,881.193c-53.437,0-96.911-43.542-96.911-97.062V175.869c0-53.521,43.473-97.062,96.909-97.062,2.595,0,5.23.104,7.833.312l595.853,47.344c24.405,1.939,46.995,12.911,63.607,30.896s25.761,41.372,25.761,65.854v513.608c0,24.483-9.149,47.872-25.763,65.856s-39.204,28.957-63.61,30.895l-595.854,47.31c-2.601.207-5.234.312-7.826.312Z"/>
  <path class="cls-2" d="m269.904,189.295l531.62,42.24c11.132.885,19.715,10.176,19.715,21.344v454.274c0,11.168-8.584,20.46-19.716,21.344l-531.62,42.209c-12.454.989-23.106-8.851-23.106-21.344V210.639c0-12.494,10.653-22.333,23.107-21.344Z"/>
  <path class="cls-2" d="m189.312,79.548l-124.036,68.424c-27.314,15.068-44.276,43.796-44.276,74.991v514.664c0,31.313,17.088,60.129,44.564,75.149l124.305,67.953"/>
  <path class="cls-1" d="m939,223.21v513.61c0,55.84-42.92,102.3-98.58,106.72l-595.86,47.31c-19.66,1.56-38.42-2.28-54.89-10.23l-9.42-5.15-114.69-62.69c-27.47-15.02-44.56-43.84-44.56-75.15V222.96c0-31.19,16.96-59.92,44.28-74.99l114.67-63.25,9.31-5.14.05-.03c16.56-8.07,35.45-11.97,55.26-10.4l595.85,47.34c55.67,4.43,98.58,50.89,98.58,106.72Z"/>
  <path class="cls-1" d="m189.26,79.58l-9.31,5.14c3.01-1.88,6.11-3.59,9.31-5.14Z"/>
  <path class="cls-1" d="m189.67,880.62c-3.24-1.56-6.38-3.27-9.42-5.15l9.42,5.15Z"/>
  <line class="cls-1" x1="189.87" y1="880.73" x2="189.67" y2="880.62"/>
</svg>