<?xml version="1.0" encoding="UTF-8"?>
<svg id="Layer_1" data-name="Layer 1" xmlns="http://www.w3.org/2000/svg" width="960" height="960" viewBox="0 0 960 960">
  <defs>
    <style>
      .cls-1 {
        stroke-width: 20px;
      }

      .cls-1, .cls-2 {
        fill: none;
        stroke: #000;
        stroke-miterlimit: 10;
      }

      .cls-2 {
        stroke-width: 40px;
      }
    </style>
  </defs>
  <ellipse class="cls-1" cx="480" cy="60.536" rx="205.393" ry="39.536"/>
  <path class="cls-1" d="m685.393,60.536v238.661c0,21.835-91.958,39.536-205.393,39.536s-205.393-17.701-205.393-39.536V60.536"/>
  <path class="cls-1" d="m685.393,299.196v578.571c0,33.818-91.958,61.232-205.393,61.232s-205.393-27.415-205.393-61.232V299.196"/>
  <path class="cls-2" d="m685.39,60.54v817.23c0,33.82-91.95,61.23-205.39,61.23s-205.39-27.41-205.39-61.23V60.54c0-21.84,91.95-39.54,205.39-39.54s205.39,17.7,205.39,39.54Z"/>
  <line class="cls-1" x1="483.134" y1="263.408" x2="483.134" y2="304.018"/>
</svg>