<?xml version="1.0" encoding="UTF-8"?>
<svg id="Layer_1" data-name="Layer 1" xmlns="http://www.w3.org/2000/svg" width="960" height="960" viewBox="0 0 960 960">
  <defs>
    <style>
      .cls-1 {
        stroke-width: 40px;
      }

      .cls-1, .cls-2 {
        fill: none;
        stroke: #000;
        stroke-linecap: round;
        stroke-linejoin: round;
      }

      .cls-2 {
        stroke-width: 20px;
      }
    </style>
  </defs>
  <path class="cls-2" d="m248.276,929c-15.269,0-27.689-12.445-27.689-27.742V58.742c0-15.297,12.421-27.742,27.689-27.742.727,0,1.465.029,2.194.085l259.011,20.082c14.353,1.112,25.596,13.261,25.596,27.656v802.353c0,14.396-11.243,26.544-25.595,27.656l-259.012,20.082c-.729.057-1.468.085-2.194.085Z"/>
  <path class="cls-2" d="m467.879,795.011l-160.333,8.892c-21.631,1.2-39.829-16.017-39.829-37.682v-152.93c0-20.674,16.634-37.5,37.306-37.737l160.333-1.841c21.011-.241,38.173,16.725,38.173,37.737v145.879c0,20.031-15.649,36.572-35.65,37.682Z"/>
  <path class="cls-2" d="m229.422,26.077l-71.037,44.301c-11.052,6.893-17.769,18.997-17.769,32.023v757.361c0,13.342,7.045,25.693,18.529,32.484l72.47,42.856"/>
  <ellipse cx="382.123" cy="477.814" rx="16.156" ry="17.307"/>
  <path class="cls-2" d="m695.136,894.347c-10.072,0-18.267-8.212-18.267-18.307v-367.146c0-10.093,8.212-18.304,18.305-18.304h95.905c10.093,0,18.305,8.211,18.305,18.304v359.426c0,9.471-7.396,17.486-16.836,18.246l-95.905,7.72c-.501.041-1.009.061-1.507.061Z"/>
  <path class="cls-2" d="m684.069,902.078l-49.436-18.954c-10.945-4.197-18.171-14.706-18.171-26.429v-348.181c0-15.714,12.8-28.42,28.514-28.304l51.368.379"/>
  <g>
    <path class="cls-1" d="m229.42,26.08l-2.08,1.3c.68-.46,1.37-.9,2.08-1.3Z"/>
    <path class="cls-1" d="m231.62,935.1c-1.71-.84-3.34-1.81-4.9-2.9l4.9,2.9Z"/>
    <path class="cls-1" d="m819.38,508.89v359.43c0,14.75-11.33,27.03-26.03,28.21l-95.91,7.72c-4.75.38-9.3-.42-13.37-2.17l-49.44-18.96c-10.94-4.19-18.17-14.7-18.17-26.43v-348.18c0-15.71,12.8-28.42,28.51-28.3l51.37.38h94.74c15.63,0,28.3,12.67,28.3,28.3Z"/>
    <path class="cls-1" d="m545.08,78.82v802.36c0,19.71-15.17,36.1-34.83,37.62l-259.01,20.08c-7.04.55-13.75-.87-19.62-3.78l-4.9-2.9-67.57-39.95c-11.49-6.8-18.53-19.15-18.53-32.49V102.4c0-13.02,6.71-25.13,17.77-32.02l68.9-42.97.05-.03,2.08-1.3c6.36-3.7,13.88-5.58,21.82-4.96l259.01,20.08c19.66,1.52,34.83,17.91,34.83,37.62Z"/>
  </g>
</svg>