<?xml version="1.0" encoding="UTF-8" standalone="no"?>
<svg
   id="Capa_1"
   enable-background="new 0 0 511.996 511.996"
   height="512"
   viewBox="0 0 511.996 511.996"
   width="512"
   version="1.1"
   sodipodi:docname="air-filter.svg"
   xml:space="preserve"
   inkscape:version="1.3.2 (091e20e, 2023-11-25, custom)"
   xmlns:inkscape="http://www.inkscape.org/namespaces/inkscape"
   xmlns:sodipodi="http://sodipodi.sourceforge.net/DTD/sodipodi-0.dtd"
   xmlns="http://www.w3.org/2000/svg"
   xmlns:svg="http://www.w3.org/2000/svg"><defs
     id="defs27" /><sodipodi:namedview
     id="namedview27"
     pagecolor="#ffffff"
     bordercolor="#000000"
     borderopacity="0.25"
     inkscape:showpageshadow="2"
     inkscape:pageopacity="0.0"
     inkscape:pagecheckerboard="0"
     inkscape:deskcolor="#d1d1d1"
     inkscape:zoom="3.6972656"
     inkscape:cx="255.86476"
     inkscape:cy="256"
     inkscape:window-width="3840"
     inkscape:window-height="2089"
     inkscape:window-x="-8"
     inkscape:window-y="-8"
     inkscape:window-maximized="1"
     inkscape:current-layer="Capa_1" /><path
     d="m 285.448,27.613 c -2.838,-1.844 -6.418,-2.128 -9.511,-0.753 l -134.998,60 c -3.611,1.604 -5.938,5.186 -5.938,9.138 v 25 c 0,5.522 4.478,10 10,10 5.522,0 10,-4.478 10,-10 V 102.497 L 269.999,51.386 V 460.61 L 155.001,409.498 v -18.5 c 0,-5.522 -4.478,-10 -10,-10 -5.522,0 -10,4.478 -10,10 v 24.999 c 0,3.952 2.327,7.533 5.938,9.138 l 134.998,60.001 c 3.084,1.372 6.666,1.096 9.511,-0.753 2.838,-1.845 4.551,-5 4.551,-8.385 v -440 c 0,-3.385 -1.713,-6.54 -4.551,-8.385 z"
     id="path1" /><path
     d="m 55.003,65.998 h -0.007 c -5.522,0 -9.997,4.478 -9.997,10 0,5.522 4.481,10 10.004,10 5.523,0 10,-4.478 10,-10 0,-5.522 -4.478,-10 -10,-10 z"
     id="path2" /><path
     d="m 55.003,155.998 h -0.007 c -5.522,0 -9.997,4.478 -9.997,10 0,5.522 4.481,10 10.004,10 5.523,0 10,-4.478 10,-10 0,-5.522 -4.478,-10 -10,-10 z"
     id="path3" /><path
     d="m 235,175.998 c 5.522,0 10,-4.478 10,-10 0,-5.522 -4.478,-10 -10,-10 h -0.008 c -5.522,0 -9.996,4.478 -9.996,10 0,5.522 4.482,10 10.004,10 z"
     id="path4" /><path
     d="M 10.004,110.998 H 9.996 c -5.522,0 -9.996,4.478 -9.996,10 0,5.522 4.481,10 10.004,10 5.523,0 10,-4.478 10,-10 0,-5.522 -4.478,-10 -10,-10 z"
     id="path5" /><path
     d="m 100.002,110.998 h -0.007 c -5.522,0 -9.997,4.478 -9.997,10 0,5.522 4.481,10 10.004,10 5.523,0 10,-4.478 10,-10 0,-5.522 -4.478,-10 -10,-10 z"
     id="path6" /><path
     d="m 190,130.998 c 5.522,0 10,-4.478 10,-10 0,-5.522 -4.478,-10 -10,-10 h -0.007 c -5.522,0 -9.997,4.478 -9.997,10 0,5.522 4.482,10 10.004,10 z"
     id="path7" /><path
     d="m 55.003,245.998 h -0.007 c -5.522,0 -9.997,4.478 -9.997,10 0,5.522 4.481,10 10.004,10 5.523,0 10,-4.478 10,-10 0,-5.522 -4.478,-10 -10,-10 z"
     id="path8" /><path
     d="m 235,265.998 c 5.522,0 10,-4.478 10,-10 0,-5.522 -4.478,-10 -10,-10 h -0.008 c -5.522,0 -9.996,4.478 -9.996,10 0,5.522 4.482,10 10.004,10 z"
     id="path9" /><path
     d="M 10.004,200.998 H 9.996 c -5.522,0 -9.996,4.478 -9.996,10 0,5.522 4.481,10 10.004,10 5.523,0 10,-4.478 10,-10 0,-5.522 -4.478,-10 -10,-10 z"
     id="path10" /><path
     d="m 100.002,200.998 h -0.007 c -5.522,0 -9.997,4.478 -9.997,10 0,5.522 4.481,10 10.004,10 5.523,0 10,-4.478 10,-10 0,-5.522 -4.478,-10 -10,-10 z"
     id="path11" /><path
     d="m 190,220.998 c 5.522,0 10,-4.478 10,-10 0,-5.522 -4.478,-10 -10,-10 h -0.007 c -5.522,0 -9.997,4.478 -9.997,10 0,5.522 4.482,10 10.004,10 z"
     id="path12" /><path
     d="m 55.003,335.997 h -0.007 c -5.522,0 -9.997,4.478 -9.997,10 0,5.522 4.481,10 10.004,10 5.523,0 10,-4.478 10,-10 0,-5.522 -4.478,-10 -10,-10 z"
     id="path13" /><path
     d="m 235,355.997 c 5.522,0 10,-4.478 10,-10 0,-5.522 -4.478,-10 -10,-10 h -0.008 c -5.522,0 -9.996,4.478 -9.996,10 0,5.522 4.482,10 10.004,10 z"
     id="path14" /><path
     d="M 10.004,290.998 H 9.996 c -5.522,0 -9.996,4.478 -9.996,10 0,5.522 4.481,10 10.004,10 5.523,0 10,-4.478 10,-10 0,-5.522 -4.478,-10 -10,-10 z"
     id="path15" /><path
     d="m 100.002,290.998 h -0.007 c -5.522,0 -9.997,4.478 -9.997,10 0,5.522 4.481,10 10.004,10 5.523,0 10,-4.478 10,-10 0,-5.522 -4.478,-10 -10,-10 z"
     id="path16" /><path
     d="m 190,310.998 c 5.522,0 10,-4.478 10,-10 0,-5.522 -4.478,-10 -10,-10 h -0.007 c -5.522,0 -9.997,4.478 -9.997,10 0,5.522 4.482,10 10.004,10 z"
     id="path17" /><path
     d="m 55.003,425.997 h -0.007 c -5.522,0 -9.997,4.478 -9.997,10 0,5.522 4.481,10 10.004,10 5.523,0 10,-4.478 10,-10 0,-5.522 -4.478,-10 -10,-10 z"
     id="path18" /><path
     d="M 10.004,380.997 H 9.996 c -5.522,0 -9.996,4.478 -9.996,10 0,5.522 4.481,10 10.004,10 5.523,0 10,-4.478 10,-10 0,-5.522 -4.478,-10 -10,-10 z"
     id="path19" /><path
     d="m 100.002,380.997 h -0.007 c -5.522,0 -9.997,4.478 -9.997,10 0,5.522 4.481,10 10.004,10 5.523,0 10,-4.478 10,-10 0,-5.522 -4.478,-10 -10,-10 z"
     id="path20" /><path
     d="m 190,400.997 c 5.522,0 10,-4.478 10,-10 0,-5.522 -4.478,-10 -10,-10 h -0.007 c -5.522,0 -9.997,4.478 -9.997,10 0,5.522 4.482,10 10.004,10 z"
     id="path21" /><path
     d="m 498.20945,188.04474 c -6.418,0 -9.484,-2.226 -14.126,-5.594 -5.775,-4.19 -12.963,-9.406 -25.873,-9.406 -12.91,0 -20.098,5.216 -25.872,9.406 -4.643,3.368 -7.709,5.594 -14.128,5.594 -6.418,0 -9.484,-2.226 -14.126,-5.594 -5.775,-4.19 -12.963,-9.406 -25.873,-9.406 -12.91,0 -20.098,5.216 -25.873,9.406 -4.642,3.368 -7.708,5.594 -14.126,5.594 -5.522,0 -10,4.478 -10,10 0,5.522 4.478,10 10,10 12.91,0 20.098,-5.216 25.873,-9.406 4.642,-3.368 7.708,-5.594 14.126,-5.594 6.418,0 9.484,2.226 14.126,5.594 5.775,4.19 12.963,9.406 25.873,9.406 12.91,0 20.099,-5.216 25.874,-9.406 4.642,-3.368 7.708,-5.594 14.126,-5.594 6.418,0 9.484,2.226 14.126,5.594 5.775,4.19 12.963,9.406 25.873,9.406 5.522,0 10,-4.478 10,-10 0,-5.522 -4.477,-10 -10,-10 z"
     id="path22" /><path
     d="m 317.83526,120.55205 c 12.909,0 20.097,-5.216 25.872,-9.406 4.642,-3.368 7.709,-5.594 14.127,-5.594 6.418,0 9.484,2.226 14.126,5.594 5.775,4.19 12.963,9.406 25.873,9.406 12.91,0 20.098,-5.216 25.873,-9.406 4.642,-3.368 7.708,-5.594 14.126,-5.594 6.419,0 9.485,2.226 14.128,5.594 5.774,4.19 12.962,9.406 25.872,9.406 5.522,0 10,-4.478 10,-10 0,-5.522 -4.478,-10 -10,-10 -6.418,0 -9.484,-2.225998 -14.126,-5.593998 -5.775,-4.19 -12.964,-9.406 -25.874,-9.406 -12.909,0 -20.097,5.216 -25.872,9.406 -4.642,3.368 -7.709,5.593998 -14.127,5.593998 -6.418,0 -9.484,-2.225998 -14.126,-5.593998 -5.775,-4.19 -12.963,-9.406 -25.873,-9.406 -12.91,0 -20.098,5.216 -25.873,9.406 -4.642,3.368 -7.708,5.593998 -14.126,5.593998 -5.522,0 -10,4.478 -10,10 0,5.522 4.478,10 10,10 z"
     id="path23" /><path
     d="m 481.61881,272.56227 c -6.418,0 -9.484,-2.226 -14.126,-5.594 -5.775,-4.19 -12.964,-9.406 -25.874,-9.406 -12.909,0 -20.097,5.216 -25.872,9.406 -4.642,3.368 -7.709,5.594 -14.127,5.594 -6.418,0 -9.484,-2.226 -14.126,-5.594 -5.775,-4.19 -12.963,-9.406 -25.873,-9.406 -12.91,0 -20.098,5.216 -25.873,9.406 -4.642,3.368 -7.708,5.594 -14.126,5.594 -5.522,0 -10,4.478 -10,10 0,5.522 4.478,10 10,10 12.909,0 20.097,-5.216 25.872,-9.406 4.642,-3.368 7.709,-5.594 14.127,-5.594 6.418,0 9.484,2.226 14.126,5.594 5.775,4.19 12.963,9.406 25.873,9.406 12.91,0 20.098,-5.216 25.873,-9.406 4.642,-3.368 7.708,-5.594 14.126,-5.594 6.419,0 9.485,2.226 14.128,5.594 5.774,4.19 12.962,9.406 25.872,9.406 5.522,0 10,-4.478 10,-10 0,-5.522 -4.477,-10 -10,-10 z"
     id="path24" /><path
     d="m 145.001,175.998 c 5.522,0 10,-4.478 10,-10 0,-5.522 -4.478,-10 -10,-10 h -0.008 c -5.522,0 -9.996,4.478 -9.996,10 0,5.522 4.482,10 10.004,10 z"
     id="path25" /><path
     d="m 145.001,265.998 c 5.522,0 10,-4.478 10,-10 0,-5.522 -4.478,-10 -10,-10 h -0.008 c -5.522,0 -9.996,4.478 -9.996,10 0,5.522 4.482,10 10.004,10 z"
     id="path26" /><path
     d="m 145.001,355.997 c 5.522,0 10,-4.478 10,-10 0,-5.522 -4.478,-10 -10,-10 h -0.008 c -5.522,0 -9.996,4.478 -9.996,10 0,5.522 4.482,10 10.004,10 z"
     id="path27" /><g
     id="g27"
     transform="matrix(0.4228218,0,0,0.40817862,309.28019,321.72173)"><path
       d="M 221.647,0 C 99.433,0 0,99.433 0,221.647 c 0,122.214 99.433,221.647 221.647,221.647 122.214,0 221.647,-99.433 221.647,-221.647 C 443.294,99.433 343.861,0 221.647,0 Z m 0,415.588 c -106.941,0 -193.941,-87 -193.941,-193.941 0,-106.941 87,-193.941 193.941,-193.941 106.941,0 193.941,87 193.941,193.941 0,106.941 -87,193.941 -193.941,193.941 z"
       id="path1-0" /><path
       d="M 235.5,83.118 H 207.794 V 227.383 L 294.97,314.559 314.559,294.97 235.5,215.911 Z"
       id="path2-8" /></g></svg>
