<?xml version="1.0" encoding="UTF-8" standalone="no"?>
<svg
   id="Capa_1"
   enable-background="new 0 0 511.996 511.996"
   height="512"
   viewBox="0 0 511.996 511.996"
   width="512"
   version="1.1"
   sodipodi:docname="air-filter-used.svg"
   xml:space="preserve"
   inkscape:version="1.3.2 (091e20e, 2023-11-25, custom)"
   xmlns:inkscape="http://www.inkscape.org/namespaces/inkscape"
   xmlns:sodipodi="http://sodipodi.sourceforge.net/DTD/sodipodi-0.dtd"
   xmlns="http://www.w3.org/2000/svg"
   xmlns:svg="http://www.w3.org/2000/svg"><defs
     id="defs27" /><sodipodi:namedview
     id="namedview27"
     pagecolor="#ffffff"
     bordercolor="#000000"
     borderopacity="0.25"
     inkscape:showpageshadow="2"
     inkscape:pageopacity="0.0"
     inkscape:pagecheckerboard="0"
     inkscape:deskcolor="#d1d1d1"
     inkscape:zoom="3.6972656"
     inkscape:cx="255.86476"
     inkscape:cy="256"
     inkscape:window-width="3840"
     inkscape:window-height="2089"
     inkscape:window-x="-8"
     inkscape:window-y="-8"
     inkscape:window-maximized="1"
     inkscape:current-layer="Capa_1" /><path
     d="m 285.448,27.613 c -2.838,-1.844 -6.418,-2.128 -9.511,-0.753 l -134.998,60 c -3.611,1.604 -5.938,5.186 -5.938,9.138 v 25 c 0,5.522 4.478,10 10,10 5.522,0 10,-4.478 10,-10 V 102.497 L 269.999,51.386 V 460.61 L 155.001,409.498 v -18.5 c 0,-5.522 -4.478,-10 -10,-10 -5.522,0 -10,4.478 -10,10 v 24.999 c 0,3.952 2.327,7.533 5.938,9.138 l 134.998,60.001 c 3.084,1.372 6.666,1.096 9.511,-0.753 2.838,-1.845 4.551,-5 4.551,-8.385 v -440 c 0,-3.385 -1.713,-6.54 -4.551,-8.385 z"
     id="path1" /><path
     d="m 55.003,65.998 h -0.007 c -5.522,0 -9.997,4.478 -9.997,10 0,5.522 4.481,10 10.004,10 5.523,0 10,-4.478 10,-10 0,-5.522 -4.478,-10 -10,-10 z"
     id="path2" /><path
     d="m 55.003,155.998 h -0.007 c -5.522,0 -9.997,4.478 -9.997,10 0,5.522 4.481,10 10.004,10 5.523,0 10,-4.478 10,-10 0,-5.522 -4.478,-10 -10,-10 z"
     id="path3" /><path
     d="m 235,175.998 c 5.522,0 10,-4.478 10,-10 0,-5.522 -4.478,-10 -10,-10 h -0.008 c -5.522,0 -9.996,4.478 -9.996,10 0,5.522 4.482,10 10.004,10 z"
     id="path4" /><path
     d="M 10.004,110.998 H 9.996 c -5.522,0 -9.996,4.478 -9.996,10 0,5.522 4.481,10 10.004,10 5.523,0 10,-4.478 10,-10 0,-5.522 -4.478,-10 -10,-10 z"
     id="path5" /><path
     d="m 100.002,110.998 h -0.007 c -5.522,0 -9.997,4.478 -9.997,10 0,5.522 4.481,10 10.004,10 5.523,0 10,-4.478 10,-10 0,-5.522 -4.478,-10 -10,-10 z"
     id="path6" /><path
     d="m 190,130.998 c 5.522,0 10,-4.478 10,-10 0,-5.522 -4.478,-10 -10,-10 h -0.007 c -5.522,0 -9.997,4.478 -9.997,10 0,5.522 4.482,10 10.004,10 z"
     id="path7" /><path
     d="m 55.003,245.998 h -0.007 c -5.522,0 -9.997,4.478 -9.997,10 0,5.522 4.481,10 10.004,10 5.523,0 10,-4.478 10,-10 0,-5.522 -4.478,-10 -10,-10 z"
     id="path8" /><path
     d="m 235,265.998 c 5.522,0 10,-4.478 10,-10 0,-5.522 -4.478,-10 -10,-10 h -0.008 c -5.522,0 -9.996,4.478 -9.996,10 0,5.522 4.482,10 10.004,10 z"
     id="path9" /><path
     d="M 10.004,200.998 H 9.996 c -5.522,0 -9.996,4.478 -9.996,10 0,5.522 4.481,10 10.004,10 5.523,0 10,-4.478 10,-10 0,-5.522 -4.478,-10 -10,-10 z"
     id="path10" /><path
     d="m 100.002,200.998 h -0.007 c -5.522,0 -9.997,4.478 -9.997,10 0,5.522 4.481,10 10.004,10 5.523,0 10,-4.478 10,-10 0,-5.522 -4.478,-10 -10,-10 z"
     id="path11" /><path
     d="m 190,220.998 c 5.522,0 10,-4.478 10,-10 0,-5.522 -4.478,-10 -10,-10 h -0.007 c -5.522,0 -9.997,4.478 -9.997,10 0,5.522 4.482,10 10.004,10 z"
     id="path12" /><path
     d="m 55.003,335.997 h -0.007 c -5.522,0 -9.997,4.478 -9.997,10 0,5.522 4.481,10 10.004,10 5.523,0 10,-4.478 10,-10 0,-5.522 -4.478,-10 -10,-10 z"
     id="path13" /><path
     d="m 235,355.997 c 5.522,0 10,-4.478 10,-10 0,-5.522 -4.478,-10 -10,-10 h -0.008 c -5.522,0 -9.996,4.478 -9.996,10 0,5.522 4.482,10 10.004,10 z"
     id="path14" /><path
     d="M 10.004,290.998 H 9.996 c -5.522,0 -9.996,4.478 -9.996,10 0,5.522 4.481,10 10.004,10 5.523,0 10,-4.478 10,-10 0,-5.522 -4.478,-10 -10,-10 z"
     id="path15" /><path
     d="m 100.002,290.998 h -0.007 c -5.522,0 -9.997,4.478 -9.997,10 0,5.522 4.481,10 10.004,10 5.523,0 10,-4.478 10,-10 0,-5.522 -4.478,-10 -10,-10 z"
     id="path16" /><path
     d="m 190,310.998 c 5.522,0 10,-4.478 10,-10 0,-5.522 -4.478,-10 -10,-10 h -0.007 c -5.522,0 -9.997,4.478 -9.997,10 0,5.522 4.482,10 10.004,10 z"
     id="path17" /><path
     d="m 55.003,425.997 h -0.007 c -5.522,0 -9.997,4.478 -9.997,10 0,5.522 4.481,10 10.004,10 5.523,0 10,-4.478 10,-10 0,-5.522 -4.478,-10 -10,-10 z"
     id="path18" /><path
     d="M 10.004,380.997 H 9.996 c -5.522,0 -9.996,4.478 -9.996,10 0,5.522 4.481,10 10.004,10 5.523,0 10,-4.478 10,-10 0,-5.522 -4.478,-10 -10,-10 z"
     id="path19" /><path
     d="m 100.002,380.997 h -0.007 c -5.522,0 -9.997,4.478 -9.997,10 0,5.522 4.481,10 10.004,10 5.523,0 10,-4.478 10,-10 0,-5.522 -4.478,-10 -10,-10 z"
     id="path20" /><path
     d="m 190,400.997 c 5.522,0 10,-4.478 10,-10 0,-5.522 -4.478,-10 -10,-10 h -0.007 c -5.522,0 -9.997,4.478 -9.997,10 0,5.522 4.482,10 10.004,10 z"
     id="path21" /><path
     d="m 473.05592,201.29767 c -6.418,0 -9.484,-2.226 -14.126,-5.594 -5.775,-4.19 -12.963,-9.406 -25.873,-9.406 -12.91,0 -20.098,5.216 -25.872,9.406 -4.643,3.368 -7.709,5.594 -14.128,5.594 -6.418,0 -9.484,-2.226 -14.126,-5.594 -5.775,-4.19 -12.963,-9.406 -25.873,-9.406 -12.91,0 -20.098,5.216 -25.873,9.406 -4.642,3.368 -7.708,5.594 -14.126,5.594 -5.522,0 -10,4.478 -10,10 0,5.522 4.478,10 10,10 12.91,0 20.098,-5.216 25.873,-9.406 4.642,-3.368 7.708,-5.594 14.126,-5.594 6.418,0 9.484,2.226 14.126,5.594 5.775,4.19 12.963,9.406 25.873,9.406 12.91,0 20.099,-5.216 25.874,-9.406 4.642,-3.368 7.708,-5.594 14.126,-5.594 6.418,0 9.484,2.226 14.126,5.594 5.775,4.19 12.963,9.406 25.873,9.406 5.522,0 10,-4.478 10,-10 0,-5.522 -4.477,-10 -10,-10 z"
     id="path22" /><path
     d="m 313.50777,134.88685 c 12.909,0 20.097,-5.216 25.872,-9.406 4.642,-3.368 7.709,-5.594 14.127,-5.594 6.418,0 9.484,2.226 14.126,5.594 5.775,4.19 12.963,9.406 25.873,9.406 12.91,0 20.098,-5.216 25.873,-9.406 4.642,-3.368 7.708,-5.594 14.126,-5.594 6.419,0 9.485,2.226 14.128,5.594 5.774,4.19 12.962,9.406 25.872,9.406 5.522,0 10,-4.478 10,-10 0,-5.522 -4.478,-10 -10,-10 -6.418,0 -9.484,-2.226 -14.126,-5.594 -5.775,-4.19 -12.964,-9.405996 -25.874,-9.405996 -12.909,0 -20.097,5.215996 -25.872,9.405996 -4.642,3.368 -7.709,5.594 -14.127,5.594 -6.418,0 -9.484,-2.226 -14.126,-5.594 -5.775,-4.19 -12.963,-9.405996 -25.873,-9.405996 -12.91,0 -20.098,5.215996 -25.873,9.405996 -4.642,3.368 -7.708,5.594 -14.126,5.594 -5.522,0 -10,4.478 -10,10 0,5.522 4.478,10 10,10 z"
     id="path23" /><path
     d="m 468.36588,272.83273 c -6.418,0 -9.484,-2.226 -14.126,-5.594 -5.775,-4.19 -12.964,-9.406 -25.874,-9.406 -12.909,0 -20.097,5.216 -25.872,9.406 -4.642,3.368 -7.709,5.594 -14.127,5.594 -6.418,0 -9.484,-2.226 -14.126,-5.594 -5.775,-4.19 -12.963,-9.406 -25.873,-9.406 -12.91,0 -20.098,5.216 -25.873,9.406 -4.642,3.368 -7.708,5.594 -14.126,5.594 -5.522,0 -10,4.478 -10,10 0,5.522 4.478,10 10,10 12.909,0 20.097,-5.216 25.872,-9.406 4.642,-3.368 7.709,-5.594 14.127,-5.594 6.418,0 9.484,2.226 14.126,5.594 5.775,4.19 12.963,9.406 25.873,9.406 12.91,0 20.098,-5.216 25.873,-9.406 4.642,-3.368 7.708,-5.594 14.126,-5.594 6.419,0 9.485,2.226 14.128,5.594 5.774,4.19 12.962,9.406 25.872,9.406 5.522,0 10,-4.478 10,-10 0,-5.522 -4.477,-10 -10,-10 z"
     id="path24" /><path
     d="m 145.001,175.998 c 5.522,0 10,-4.478 10,-10 0,-5.522 -4.478,-10 -10,-10 h -0.008 c -5.522,0 -9.996,4.478 -9.996,10 0,5.522 4.482,10 10.004,10 z"
     id="path25" /><path
     d="m 145.001,265.998 c 5.522,0 10,-4.478 10,-10 0,-5.522 -4.478,-10 -10,-10 h -0.008 c -5.522,0 -9.996,4.478 -9.996,10 0,5.522 4.482,10 10.004,10 z"
     id="path26" /><path
     d="m 145.001,355.997 c 5.522,0 10,-4.478 10,-10 0,-5.522 -4.478,-10 -10,-10 h -0.008 c -5.522,0 -9.996,4.478 -9.996,10 0,5.522 4.482,10 10.004,10 z"
     id="path27" /><g
     id="g28"
     transform="matrix(0.39672949,0,0,0.35288408,299.00042,323.74824)"><g
       id="g7">
	<g
   id="g6">
		<g
   id="g5">
			<path
   d="m 458.406,380.681 c -8.863,-6.593 -21.391,-4.752 -27.984,4.109 -3.626,4.874 -7.506,9.655 -11.533,14.21 -7.315,8.275 -6.538,20.915 1.737,28.231 3.806,3.364 8.531,5.016 13.239,5.016 5.532,0 11.04,-2.283 14.992,-6.754 4.769,-5.394 9.364,-11.056 13.658,-16.829 6.593,-8.861 4.754,-21.391 -4.109,-27.983 z"
   id="path1-4" />
			<path
   d="m 491.854,286.886 c -10.786,-2.349 -21.447,4.496 -23.796,15.288 -1.293,5.937 -2.855,11.885 -4.646,17.681 -3.261,10.554 2.651,21.752 13.204,25.013 1.967,0.607 3.955,0.896 5.911,0.896 8.54,0 16.448,-5.514 19.102,-14.102 2.126,-6.878 3.98,-13.937 5.514,-20.98 2.349,-10.792 -4.496,-21.446 -15.289,-23.796 z"
   id="path2-9" />
			<path
   d="m 362.139,444.734 c -5.31,2.964 -10.808,5.734 -16.34,8.233 -10.067,4.546 -14.542,16.392 -9.996,26.459 3.34,7.396 10.619,11.773 18.239,11.773 2.752,0 5.549,-0.571 8.22,-1.777 6.563,-2.964 13.081,-6.249 19.377,-9.764 9.645,-5.384 13.098,-17.568 7.712,-27.212 -5.383,-9.643 -17.567,-13.096 -27.212,-7.712 z"
   id="path3-3" />
			<path
   d="m 236,96 v 151.716 l -73.339,73.338 c -7.81,7.811 -7.81,20.474 0,28.284 3.906,3.906 9.023,5.858 14.143,5.858 5.118,0 10.237,-1.953 14.143,-5.858 l 79.196,-79.196 C 273.893,266.392 276,261.304 276,256 V 96 c 0,-11.046 -8.954,-20 -20,-20 -11.046,0 -20,8.954 -20,20 z"
   id="path4-6" />
			<path
   d="m 492,43 c -11.046,0 -20,8.954 -20,20 v 55.536 C 425.448,45.528 344.151,0 256,0 187.62,0 123.333,26.629 74.98,74.98 26.629,123.333 0,187.62 0,256 0,324.38 26.629,388.667 74.98,437.02 123.333,485.371 187.62,512 256,512 c 0.169,0 0.332,-0.021 0.5,-0.025 0.168,0.004 0.331,0.025 0.5,0.025 7.208,0 14.487,-0.304 21.637,-0.902 11.007,-0.922 19.183,-10.592 18.262,-21.599 -0.923,-11.007 -10.58,-19.187 -21.6,-18.261 -6.044,0.505 -12.2,0.762 -18.299,0.762 -0.169,0 -0.332,0.021 -0.5,0.025 C 256.332,472.021 256.169,472 256,472 136.897,472 40,375.103 40,256 40,136.897 136.897,40 256,40 c 76.758,0 147.357,40.913 185.936,106 h -54.993 c -11.046,0 -20,8.954 -20,20 0,11.046 8.954,20 20,20 H 448 c 12.18,0 23.575,-3.423 33.277,-9.353 0.624,-0.356 1.224,-0.739 1.796,-1.152 C 500.479,164.044 512,144.347 512,122 V 63 c 0,-11.046 -8.954,-20 -20,-20 z"
   id="path5-6" />
		</g>
	</g>
</g><g
       id="g8">
</g><g
       id="g9">
</g><g
       id="g10">
</g><g
       id="g11">
</g><g
       id="g12">
</g><g
       id="g13">
</g><g
       id="g14">
</g><g
       id="g15">
</g><g
       id="g16">
</g><g
       id="g17">
</g><g
       id="g18">
</g><g
       id="g19">
</g><g
       id="g20">
</g><g
       id="g21">
</g><g
       id="g22">
</g></g></svg>
