<svg height="512pt" viewBox="-2 0 511 512" width="512pt" xmlns="http://www.w3.org/2000/svg"><path d="m253.710938 0-253.210938 253.210938 48.691406 48.691406 204.519532-204.519532 204.519531 204.519532 48.691406-48.691406zm0 76.167969-204.519532 204.519531-27.480468-27.476562 232-231.996094 231.996093 231.996094-27.476562 27.476562zm0 0"/><path d="m359.671875 51.5625h53.875v96.378906h15v-111.378906h-83.875v42.503906h15zm0 0"/><path d="m421.6875 497h-335.957031v-204.746094h-15v219.746094h365.957031v-219.746094h-15zm0 0"/><path d="m113.210938 274.808594v15h23.683593c1.277344 8.882812 4.785157 17.050781 9.9375 23.921875l-16.765625 16.765625 10.609375 10.605468 16.761719-16.761718c6.871094 5.152344 15.042969 8.65625 23.925781 9.933594v23.683593h15v-23.683593c8.882813-1.277344 17.054688-4.78125 23.925781-9.933594l16.765626 16.765625 10.605468-10.609375-16.765625-16.765625c5.152344-6.871094 8.660157-15.039063 9.933594-23.921875h23.683594v-15h-23.683594c-1.273437-8.882813-4.78125-17.054688-9.933594-23.925782l16.765625-16.765624-10.609375-10.605469-16.761719 16.761719c-6.875-5.148438-15.042968-8.65625-23.925781-9.933594v-23.683594h-15v23.683594c-8.882812 1.277344-17.054687 4.785156-23.925781 9.933594l-16.765625-16.765626-10.605469 10.609376 16.765625 16.765624c-5.152343 6.871094-8.660156 15.042969-9.9375 23.925782zm75.652343-30.003906c20.679688 0 37.5 16.824218 37.5 37.503906 0 20.675781-16.820312 37.5-37.5 37.5-20.679687 0-37.5-16.824219-37.5-37.5 0-20.679688 16.820313-37.503906 37.5-37.503906zm0 0"/><path d="m353.304688 396.382812 27.46875 7.359376 3.882812-14.488282-23.226562-6.222656 6.222656-23.222656-14.488282-3.882813-7.359374 27.46875-17.226563 9.945313v-19.890625l20.109375-20.109375-10.609375-10.605469-17 17-17.003906-17-10.605469 10.605469 20.109375 20.109375v19.890625l-17.226563-9.945313-7.359374-27.46875-14.488282 3.882813 6.222656 23.222656-23.226562 6.222656 3.882812 14.488282 27.46875-7.359376 17.226563 9.945313-17.226563 9.945313-27.46875-7.359376-3.882812 14.488282 23.226562 6.222656-6.222656 23.226562 14.488282 3.882813 7.359374-27.46875 17.226563-9.945313v19.890626l-20.109375 20.109374 10.605469 10.605469 17.003906-17.003906 17 17.003906 10.609375-10.605469-20.109375-20.109374v-19.890626l17.226563 9.945313 7.359374 27.46875 14.488282-3.882813-6.222656-23.226562 23.226562-6.222656-3.882812-14.488282-27.46875 7.359376-17.226563-9.945313zm0 0"/><path d="m137.878906 459.695312 221.046875-221.050781 10.609375 10.609375-221.050781 221.046875zm0 0"/><path d="m452.925781 261.242188-85.191406-85.191407 10.609375-10.605469 85.191406 85.191407zm-92.261719-92.261719-10.605468-10.605469 10.609375-10.605469 10.605469 10.605469zm-17.675781-17.675781-10.609375-10.605469 10.609375-10.609375 10.605469 10.605468zm0 0"/><path d="m411.6875 479.5h-15v-112.503906h15zm0-122.503906h-15v-15h15zm0-25h-15v-15h15zm0 0"/><path d="m188.863281 309.800781c-7.351562 0-14.257812-2.859375-19.445312-8.046875l10.605469-10.609375c2.355468 2.355469 5.496093 3.652344 8.839843 3.652344s6.484375-1.296875 8.839844-3.652344c2.355469-2.351562 3.652344-5.492187 3.652344-8.839843 0-3.34375-1.296875-6.480469-3.652344-8.835938l10.605469-10.609375c5.1875 5.1875 8.046875 12.09375 8.046875 19.445313 0 7.355468-2.859375 14.261718-8.046875 19.449218s-12.09375 8.046875-19.445313 8.046875zm0 0"/></svg>