<svg id="Capa_1" enable-background="new 0 0 512.028 512.028" height="512" viewBox="0 0 512.028 512.028" width="512" xmlns="http://www.w3.org/2000/svg"><g><g id="Page-1_26_"><g id="_x30_27---Fan-Setting" transform="translate(-1)"><path id="Shape_172_" d="m111.962 409.616h-25.6c-14.138 0-25.6 11.462-25.6 25.6v17.067c0 14.138 11.462 25.6 25.6 25.6h25.6c14.138 0 25.6-11.462 25.6-25.6v-17.067c0-14.139-11.462-25.6-25.6-25.6zm8.533 42.666c0 4.713-3.821 8.533-8.533 8.533h-25.6c-4.713 0-8.533-3.821-8.533-8.533v-17.067c0-4.713 3.821-8.533 8.533-8.533h25.6c4.713 0 8.533 3.82 8.533 8.533z"/><path id="Shape_171_" d="m205.828 358.416h-25.6c-14.139 0-25.6 11.462-25.6 25.6v68.267c0 14.138 11.462 25.6 25.6 25.6h25.6c14.139 0 25.6-11.462 25.6-25.6v-68.267c0-14.139-11.461-25.6-25.6-25.6zm8.534 93.866c0 4.713-3.821 8.533-8.533 8.533h-25.6c-4.713 0-8.533-3.821-8.533-8.533v-68.267c0-4.713 3.821-8.533 8.533-8.533h25.6c4.713 0 8.533 3.82 8.533 8.533z"/><path id="Shape_170_" d="m274.095 477.882h25.6c14.138 0 25.6-11.462 25.6-25.6v-119.466c0-14.138-11.462-25.6-25.6-25.6h-25.6c-14.138 0-25.6 11.462-25.6 25.6v119.467c0 14.138 11.462 25.599 25.6 25.599zm-8.533-145.066c0-4.713 3.82-8.533 8.533-8.533h25.6c4.713 0 8.533 3.821 8.533 8.533v119.467c0 4.713-3.82 8.533-8.533 8.533h-25.6c-4.713 0-8.533-3.821-8.533-8.533z"/><path id="Shape_169_" d="m367.962 256.016c-14.138 0-25.6 11.462-25.6 25.6v170.667c0 14.138 11.462 25.6 25.6 25.6h25.6c14.138 0 25.6-11.462 25.6-25.6v-170.667c0-14.138-11.462-25.6-25.6-25.6zm34.133 25.6v170.667c0 4.713-3.82 8.533-8.533 8.533h-25.6c-4.713 0-8.533-3.821-8.533-8.533v-170.667c0-4.713 3.82-8.533 8.533-8.533h25.6c4.713-.001 8.533 3.82 8.533 8.533z"/><path id="Shape_168_" d="m513.028 452.282v-221.866c0-14.138-11.461-25.6-25.6-25.6h-25.6c-14.138 0-25.6 11.462-25.6 25.6v221.867c0 14.138 11.462 25.6 25.6 25.6h25.6c14.139-.001 25.6-11.462 25.6-25.601zm-59.733 0v-221.866c0-4.713 3.82-8.533 8.533-8.533h25.6c4.713 0 8.533 3.821 8.533 8.533v221.867c0 4.713-3.82 8.533-8.533 8.533h-25.6c-4.712 0-8.533-3.821-8.533-8.534z"/><path id="Shape_167_" d="m230.805 251.024c4.615 3.656 9.858 6.441 15.471 8.218 8.418 2.888 17.255 4.367 26.155 4.378 7.401-.344 14.174 4.143 16.742 11.093 1.129 2.367 1.811 4.921 2.014 7.535.331 4.455 4.041 7.901 8.508 7.902h.623c2.264-.159 4.371-1.214 5.855-2.931s2.224-3.954 2.055-6.217c-.344-4.738-1.574-9.369-3.627-13.653-5.156-12.768-17.643-21.042-31.411-20.813-7.252.067-14.464-1.087-21.333-3.413-5.153-1.28-9.708-4.293-12.902-8.533 20.261-1.273 39.622-8.828 55.39-21.615 12.092-9.492 19.224-23.958 19.388-39.33.048-10.454-2.104-20.802-6.315-30.37-6.86-18.041-21.477-32.034-39.799-38.101-10.819-4.239-22.896-3.91-33.468.913-12.676 5.222-20.865 17.669-20.642 31.377.044 7.285-1.148 14.524-3.524 21.41-1.267 5.108-4.249 9.627-8.448 12.8-1.26-20.27-8.837-39.637-21.666-55.381-9.485-12.059-23.913-19.184-39.253-19.388-10.463-.042-20.817 2.121-30.387 6.349-18.084 6.834-32.119 21.464-38.195 39.817-4.163 10.804-3.806 22.827.99 33.365 5.201 12.714 17.659 20.946 31.394 20.745 7.296-.116 14.554 1.08 21.427 3.533 5.106 1.248 9.626 4.216 12.8 8.405-20.248 1.283-39.591 8.854-55.33 21.658-12.081 9.492-19.225 23.934-19.439 39.296-.057 10.473 2.079 20.841 6.272 30.438 6.857 18.058 21.491 32.062 39.834 38.118 5.206 1.858 10.686 2.836 16.213 2.893 5.943.017 11.815-1.304 17.178-3.866 12.67-5.224 20.857-17.665 20.642-31.369-.042-7.297 1.168-14.547 3.575-21.436 1.267-5.104 4.242-9.621 8.431-12.8 1.259 20.268 8.819 39.637 21.623 55.398 5.806 7.383 13.558 12.999 22.383 16.213 4.444 1.569 9.319-.761 10.889-5.205 1.569-4.444-.761-9.319-5.205-10.889-5.846-2.162-10.963-5.93-14.763-10.871-10.17-12.51-16.345-27.789-17.724-43.853 15.146-1.326 28.918-9.323 37.579-21.82zm-4.736-86.562c3.026-8.699 4.549-17.849 4.506-27.059-.151-7.125 4.267-13.549 10.974-15.957 6.543-2.848 13.965-2.9 20.548-.145 13.677 4.485 24.559 14.967 29.551 28.467 3.3 7.385 4.996 15.386 4.975 23.475.003 10.373-4.831 20.155-13.073 26.453-12.512 10.142-27.773 16.306-43.819 17.698-1.347-15.136-9.347-28.892-21.837-37.547 3.634-4.591 6.404-9.804 8.175-15.385zm-94.72 20.138c-8.667-3.089-17.817-4.597-27.017-4.454-7.131.159-13.558-4.281-15.932-11.008-2.85-6.53-2.937-13.936-.239-20.531 4.491-13.687 14.997-24.567 28.518-29.534 7.392-3.342 15.406-5.086 23.518-5.12 10.355.044 20.101 4.897 26.377 13.133 10.185 12.505 16.373 27.785 17.758 43.853-15.142 1.331-28.911 9.315-37.589 21.794-4.585-3.644-9.808-6.401-15.403-8.132h.009zm20.139 94.72c-3.033 8.692-4.568 17.836-4.54 27.042.148 7.122-4.27 13.542-10.974 15.949-6.517 2.842-13.91 2.913-20.48.196-13.689-4.486-24.577-14.984-29.559-28.501-3.315-7.386-5.039-15.388-5.06-23.484.036-10.386 4.903-20.163 13.167-26.453 12.494-10.157 27.745-16.336 43.785-17.741 1.018 11.983 6.248 23.217 14.763 31.71 2.175 2.163 4.537 4.13 7.057 5.879-3.655 4.583-6.424 9.806-8.166 15.403zm37.274-23.304c-12.195-.009-23.458-6.523-29.548-17.089-6.089-10.565-6.08-23.577.026-34.133 6.105-10.556 17.378-17.054 29.573-17.044 18.851.014 34.122 15.308 34.108 34.159s-15.308 34.121-34.159 34.107z"/><path id="Shape_166_" d="m126.187 398.889c4.444 1.569 9.319-.761 10.889-5.205 1.569-4.444-.761-9.319-5.205-10.889-81.828-28.931-128.91-114.667-109.415-199.24s99.358-141.046 185.593-131.238 151.375 82.775 151.379 169.565c0 2.731-.085 5.547-.171 8.277-.069 2.265.766 4.464 2.32 6.113s3.701 2.612 5.966 2.676c4.677.051 8.556-3.606 8.781-8.277.085-2.901.171-5.888.171-8.789-.005-95.471-71.661-175.734-166.52-186.522s-182.708 51.336-204.15 144.367 30.351 187.34 120.362 219.162z"/><circle id="Oval_8_" cx="188.762" cy="221.882" r="8.533"/></g></g></g></svg>