<?xml version="1.0" encoding="iso-8859-1"?>
<!-- Generator: Adobe Illustrator 19.0.0, SVG Export Plug-In . SVG Version: 6.00 Build 0)  -->
<svg version="1.1" id="Layer_1" xmlns="http://www.w3.org/2000/svg" xmlns:xlink="http://www.w3.org/1999/xlink" x="0px" y="0px"
	 viewBox="0 0 512 512" style="enable-background:new 0 0 512 512;" xml:space="preserve">
<g>
	<g>
		<path d="M256,120c-74.443,0-136,61.557-136,136s61.557,136,136,136s136-61.557,136-136S330.443,120,256,120z M271,360.484V151.516
			c50.75,7.357,91,51.729,91,104.484S321.75,353.127,271,360.484z"/>
	</g>
</g>
<g>
	<g>
		<path d="M256,0c-8.291,0-15,6.709-15,15v60c0,8.291,6.709,15,15,15s15-6.709,15-15V15C271,6.709,264.291,0,256,0z"/>
	</g>
</g>
<g>
	<g>
		<path d="M256,422c-8.291,0-15,6.709-15,15v60c0,8.291,6.709,15,15,15s15-6.709,15-15v-60C271,428.709,264.291,422,256,422z"/>
	</g>
</g>
<g>
	<g>
		<path d="M75,241H15c-8.291,0-15,6.709-15,15s6.709,15,15,15h60c8.291,0,15-6.709,15-15C90,247.709,83.291,241,75,241z"/>
	</g>
</g>
<g>
	<g>
		<path d="M497,241h-60c-8.291,0-15,6.709-15,15s6.709,15,15,15h60c8.291,0,15-6.709,15-15C512,247.709,505.291,241,497,241z"/>
	</g>
</g>
<g>
	<g>
		<path d="M138.326,373.675c-5.859-5.859-15.352-5.859-21.211,0l-42.437,42.422c-5.86,5.859-5.86,15.351,0,21.211
			c5.859,5.859,15.352,5.859,21.211,0l42.437-42.422C144.185,389.027,144.185,379.534,138.326,373.675z"/>
	</g>
</g>
<g>
	<g>
		<path d="M437.308,74.692c-5.859-5.859-15.352-5.859-21.211,0l-42.422,42.422c-5.859,5.859-5.859,15.352,0,21.211
			c5.859,5.859,15.352,5.859,21.211,0l42.422-42.422C443.167,90.044,443.167,80.552,437.308,74.692z"/>
	</g>
</g>
<g>
	<g>
		<path d="M437.308,416.097l-42.422-42.422c-5.859-5.859-15.352-5.859-21.211,0s-5.859,15.352,0,21.211l42.422,42.422
			c5.859,5.859,15.352,5.859,21.211,0S443.167,421.956,437.308,416.097z"/>
	</g>
</g>
<g>
	<g>
		<path d="M138.326,117.114L95.889,74.692c-5.86-5.859-15.352-5.859-21.211,0c-5.859,5.859-5.859,15.352,0,21.211l42.437,42.422
			c5.859,5.859,15.352,5.859,21.211,0C144.185,132.466,144.185,122.973,138.326,117.114z"/>
	</g>
</g>
<g>
</g>
<g>
</g>
<g>
</g>
<g>
</g>
<g>
</g>
<g>
</g>
<g>
</g>
<g>
</g>
<g>
</g>
<g>
</g>
<g>
</g>
<g>
</g>
<g>
</g>
<g>
</g>
<g>
</g>
</svg>
