<svg id="Capa_1" enable-background="new 0 0 511.914 511.914" height="512" viewBox="0 0 511.914 511.914" width="512" xmlns="http://www.w3.org/2000/svg"><g><path d="m405.044 244.04h-23.917v-208.275c0-19.721-16.044-35.765-35.765-35.765h-222.243c-19.71 0-35.765 15.968-35.765 35.765v82.128c0 4.143 3.358 7.5 7.5 7.5s7.5-3.357 7.5-7.5v-82.128c0-11.447 9.266-20.765 20.765-20.765h222.242c11.45 0 20.765 9.315 20.765 20.765v212.211c-.066.051-.138.094-.204.146-5.935-4.619-11.406-4.081-16.393-4.081.033-1.306.057-2.74.082-4.361.278-17.963.019-65.169.019-192.608 0-8.588-6.987-15.575-15.576-15.575h-199.629c-8.588 0-15.576 6.987-15.576 15.575v199.631c0 8.588 6.987 15.575 15.576 15.575h70.98v16.495c-.322 0-82.201 0-82.286 0-11.45 0-20.765-9.315-20.765-20.765v-105.115c0-4.143-3.358-7.5-7.5-7.5s-7.5 3.357-7.5 7.5v105.114c0 19.721 16.044 35.765 35.765 35.765h17.317c-5.654 8.669-6.992 19.394-3.396 29.278 14.724 40.452 15.563 41.208 46.25 134.13 10.812 32.738 41.248 54.734 75.737 54.734h74.501c34.545 0 64.995-22.033 75.771-54.827 1.293-3.935-.849-8.173-4.784-9.466-3.935-1.295-8.174.849-9.466 4.784-8.748 26.622-33.471 44.509-61.52 44.509h-74.501c-28.003 0-52.716-17.858-61.494-44.438-31.753-96.158-27.668-83.1-46.397-134.557-3.467-9.533 1.63-19.751 10.76-23.074 9.266-3.375 19.671 1.408 23.074 10.76l20.887 57.386c2.855 7.845 14.548 5.788 14.548-2.565 0-3.307 0-151.645 0-154.742 0-10.65 0-36.679 0-46.61 0-10.049 8.204-18.003 18.003-18.003 9.925 0 18.003 8.074 18.003 18.003v42.87 122.835c0 4.143 3.358 7.5 7.5 7.5s7.5-3.357 7.5-7.5v-61.353c0-2.469 2.039-4.385 4.385-4.385h27.235c2.332 0 4.384 1.898 4.385 4.383v.001s0 .001 0 .001v61.353c0 4.143 3.358 7.5 7.5 7.5s7.5-3.357 7.5-7.5v-61.353-.001s0-.001 0-.001c.001-1.837 1.145-3.546 3.066-4.158 1.334-.308.719-.225 28.555-.225 2.417 0 4.385 1.967 4.385 4.384v61.354c0 4.143 3.358 7.5 7.5 7.5s7.5-3.357 7.5-7.5v-61.354c.001-2.361 1.986-4.385 4.385-4.385h27.235c2.418 0 4.385 1.968 4.385 4.386 0 55.641 1.75 101.268-7.405 155.868-.685 4.085 2.071 7.952 6.156 8.637 4.093.685 7.953-2.078 8.637-6.156 9.37-55.88 7.612-100.587 7.612-158.349.001-10.69-8.695-19.386-19.384-19.386zm-209.335 49.731h9.697v24.12c-6.77-18.599-7.012-20.004-9.697-24.12zm42.7-167.701c-18.196 0-33.003 14.806-33.003 33.003v34.694c-16.014-9.886-26.201-27.586-26.201-46.882 0-30.347 24.689-55.036 55.036-55.036s55.036 24.689 55.036 55.036c0 15.653-6.62 30.3-17.864 40.594v-28.406-.001c-.001-18.199-14.808-33.002-33.004-33.002zm33.003 118.471v-38.295c20.38-12.768 32.864-35.111 32.864-59.36 0-38.618-31.418-70.036-70.036-70.036s-70.036 31.418-70.036 70.036c0 27.579 16.353 52.592 41.201 63.834v36.557h-70.98c-.317 0-.576-.258-.576-.575v-199.632c0-.317.258-.575.576-.575h199.631c.317 0 .576.258.576.575 0 137.348.307 183.228-.111 196.933-2.677-.03-5.022-.054-7.139.037-4.023 0-7.996.926-11.35 3.236h-2.29c-.01-.007-.022-.013-.032-.02-3.006-1.992-6.676-3.177-10.508-3.209-1.131-.01 5.915-.006-27.404-.006-1.472 0-2.947.166-4.386.5z"/></g></svg>