<svg id="Layer_1" enable-background="new 0 0 512 512" viewBox="0 0 512 512" xmlns="http://www.w3.org/2000/svg"><path d="m465.111 66.537c-60.605-4.821-111.73-33.241-143.947-56.234-1.186-.848-2.608-1.303-4.066-1.303h-122.196c-1.458 0-2.88.455-4.066 1.302-32.216 22.993-83.341 51.414-143.946 56.234-3.639.29-6.445 3.327-6.445 6.978v182.217c0 28.994 6.977 58.203 20.735 86.816 12.362 25.708 29.879 50.374 52.063 73.312 40.164 41.529 92.854 74.016 140.946 86.902.593.159 1.202.239 1.811.239s1.218-.08 1.812-.238c48.092-12.886 100.782-45.373 140.945-86.902 22.185-22.938 39.701-47.604 52.063-73.312 13.759-28.613 20.735-57.822 20.735-86.816v-182.217c.001-3.651-2.805-6.689-6.444-6.978zm-7.555 189.194c0 114.43-118.513 209.842-201.556 233.012-83.042-23.169-201.556-118.582-201.556-233.012v-175.838c47.84-5.101 96.992-24.685 142.688-56.893h117.735c45.696 32.208 94.848 51.792 142.688 56.893v175.838zm-148.583-221.427h-105.946c-1.404 0-2.776.422-3.938 1.213-41.166 28.01-83.95 46.08-127.165 53.708-3.345.591-5.783 3.497-5.783 6.894v159.617c0 45.612 21.644 94.382 60.943 137.326 35.528 38.822 81.758 69.138 126.835 83.173.678.211 1.379.316 2.081.316s1.403-.105 2.081-.316c45.077-14.036 91.307-44.351 126.834-83.173 39.3-42.944 60.943-91.714 60.943-137.326v-159.618c0-3.396-2.438-6.303-5.783-6.894-43.215-7.628-85.999-25.698-127.164-53.708-1.161-.79-2.533-1.212-3.938-1.212zm122.885 221.431c0 42.104-20.339 87.518-57.271 127.874-33.354 36.447-76.465 64.998-118.587 78.598-42.123-13.6-85.233-42.151-118.588-78.598-36.932-40.356-57.271-85.77-57.271-127.874v-153.804c42.574-8.396 84.593-26.415 125.031-53.627h101.655c40.438 27.212 82.457 45.232 125.031 53.627zm-168.075-121.797c3.028-12.833 14.569-22.416 28.314-22.416 3.866 0 7-3.134 7-7s-3.134-7-7-7c-15.097 0-28.398 7.81-36.097 19.595-7.699-11.785-21-19.595-36.097-19.595-3.866 0-7 3.134-7 7s3.134 7 7 7c13.745 0 25.286 9.583 28.314 22.416-37.99 3.08-69.761 28.498-82.133 63.068h-4.031c-17.688 0-32.08 14.391-32.08 32.08s14.391 32.08 32.08 32.08h4.031c13.207 36.907 48.525 63.388 89.916 63.388s76.708-26.48 89.916-63.388h4.031c17.688 0 32.079-14.391 32.079-32.08 0-17.688-14.391-32.08-32.079-32.08h-4.031c-12.372-34.57-44.143-59.988-82.133-63.068zm-101.73 113.228c-9.969 0-18.08-8.11-18.08-18.08 0-9.969 8.11-18.08 18.08-18.08h.204c-1.127 5.857-1.725 11.9-1.725 18.081 0 6.18.597 12.223 1.725 18.079zm187.893-36.16c9.969 0 18.079 8.11 18.079 18.08s-8.11 18.08-18.079 18.08h-.204c1.127-5.856 1.725-11.899 1.725-18.079 0-6.181-.598-12.224-1.725-18.081zm-93.946 99.548c-44.921 0-81.467-36.546-81.467-81.467s36.546-81.467 81.467-81.467 81.467 36.546 81.467 81.467-36.546 81.467-81.467 81.467zm-39.613-92.181c-4.687 0-8.5 3.813-8.5 8.5 0 3.866-3.134 7-7 7s-7-3.134-7-7c0-12.406 10.093-22.5 22.5-22.5s22.5 10.094 22.5 22.5c0 3.866-3.134 7-7 7s-7-3.134-7-7c-.001-4.687-3.814-8.5-8.5-8.5zm101.726 8.5c0 3.866-3.134 7-7 7s-7-3.134-7-7c0-4.687-3.813-8.5-8.5-8.5s-8.5 3.813-8.5 8.5c0 3.866-3.134 7-7 7s-7-3.134-7-7c0-12.406 10.093-22.5 22.5-22.5s22.5 10.094 22.5 22.5zm-27.778 36.727c-7.012 12.532-19.849 20.015-34.335 20.015-14.487 0-27.323-7.482-34.334-20.015-1.887-3.374-.683-7.639 2.691-9.527 3.375-1.888 7.639-.683 9.527 2.691 4.502 8.046 12.77 12.85 22.117 12.85s17.616-4.804 22.118-12.851c1.888-3.374 6.154-4.578 9.527-2.691 3.372 1.888 4.576 6.154 2.689 9.528zm25.408 71.934c2.563 2.895 2.294 7.318-.601 9.881l-71.525 63.333c-1.284 1.137-2.937 1.759-4.64 1.759-.168 0-.335-.006-.504-.018-1.879-.136-3.624-1.023-4.841-2.461l-37.478-44.304c-2.497-2.952-2.128-7.368.823-9.865 2.952-2.497 7.369-2.128 9.865.823l32.854 38.837 66.166-58.586c2.893-2.562 7.318-2.293 9.881.601z"/></svg>