<?xml version="1.0" encoding="UTF-8"?>
<svg width="64px" height="64px" viewBox="0 0 64 64" version="1.1" xmlns="http://www.w3.org/2000/svg" xmlns:xlink="http://www.w3.org/1999/xlink">
    <title>dock</title>
    <g id="dock" stroke="none" stroke-width="1" fill="none" fill-rule="evenodd">
        <path d="M48.9705627,39.0294373 C49.513186,39.5720605 49.6788289,40.3489093 49.4674914,41.0345334 C52.9157958,45.0573204 55,50.2852642 55,56 C55,57.1045695 54.1045695,58 53,58 C51.8954305,58 51,57.1045695 51,56 C51,48.7630125 46.9538887,42.4710449 41.0003949,39.2628262 L41,46 C41,50.9705627 36.9705627,55 32,55 C27.0294373,55 23,50.9705627 23,46 L23.0005997,39.2622903 C17.0465619,42.4703442 13,48.7626095 13,56 C13,57.1045695 12.1045695,58 11,58 C9.8954305,58 9,57.1045695 9,56 C9,50.2852642 11.0842042,45.0573204 14.5339545,41.0348266 C14.3211711,40.3489093 14.486814,39.5720605 15.0294373,39.0294373 C24.4020203,29.6568542 39.5979797,29.6568542 48.9705627,39.0294373 Z M32,40 C28.6862915,40 26,42.6862915 26,46 C26,49.3137085 28.6862915,52 32,52 C35.3137085,52 38,49.3137085 38,46 C38,42.6862915 35.3137085,40 32,40 Z M32,43 C33.6568542,43 35,44.3431458 35,46 C35,47.6568542 33.6568542,49 32,49 C30.3431458,49 29,47.6568542 29,46 C29,44.3431458 30.3431458,43 32,43 Z M31.3061293,15.2103335 C31.8803943,14.8271743 32.6565401,14.9820963 33.0396992,15.5563613 L40.8046112,27.1941291 C40.9318008,27.3847561 40.9996779,27.6087852 40.9996779,27.8379486 C40.9996779,28.4785989 40.4803282,28.9979486 39.8396779,28.9979486 L24.1601228,28.9979486 C23.9309595,28.9979486 23.7069304,28.9300715 23.5163033,28.8028819 C22.9833853,28.4473102 22.8396178,27.727047 23.1951895,27.1941291 L30.9601015,15.5563613 C31.0515196,15.4193473 31.1691152,15.3017516 31.3061293,15.2103335 Z M48,8 C52.418278,8 56,11.581722 56,16 C56,20.418278 52.418278,24 48,24 L41.078,24 L38.409,20 L48,20 C50.209139,20 52,18.209139 52,16 C52,13.790861 50.209139,12 48,12 L16,12 C13.790861,12 12,13.790861 12,16 C12,18.209139 13.790861,20 16,20 L25.59,20 L22.921,24 L16,24 C11.581722,24 8,20.418278 8,16 C8,11.581722 11.581722,8 16,8 L48,8 Z" id="Shape" fill="#000000" fill-rule="nonzero"></path>
    </g>
</svg>