<?xml version="1.0" encoding="UTF-8"?>
<svg width="64px" height="64px" viewBox="0 0 64 64" version="1.1" xmlns="http://www.w3.org/2000/svg" xmlns:xlink="http://www.w3.org/1999/xlink">
    <title>dry_mop</title>
    <g id="dry_mop" stroke="none" stroke-width="1" fill="none" fill-rule="evenodd">
        <path d="M47,32 C50.3138433,32 56,41.0223552 56,46.9166667 C56,51.9279896 51.9758956,56 47,56 C42.0241044,56 38,51.9279896 38,46.9166667 C38,41.0223552 43.6861567,32 47,32 Z M39.0520023,8.55166657 L44.8299686,17.360954 C44.9411392,17.5304486 45,17.7255621 45,17.9245792 C45,18.5185177 44.4868222,19 43.8537852,19 L40,19 C40,23.5300913 38.8285936,27.9832097 36.5995293,31.9269388 L31.8736024,40.2881942 C29.6411915,44.2378441 29.5977385,49.0581806 31.7585839,53.0474337 C32.2846718,54.0186728 31.9238054,55.2324961 30.9525663,55.7585839 C29.9813272,56.2846718 28.7675039,55.9238054 28.2414161,54.9525663 C25.4245961,49.7522833 25.4812403,43.4686225 28.391351,38.3199651 L33.117278,29.9587098 C35.0069496,26.6154447 36,22.8403489 36,19 L32.1463758,19 C31.9342575,19 31.7262998,18.9447746 31.5456476,18.8404703 C31.0065164,18.5291886 30.8384194,17.8667866 31.1701924,17.360954 L36.9481587,8.55166657 C37.0494942,8.39716703 37.1880739,8.26714645 37.352744,8.17206981 C37.9337044,7.836637 38.6944882,8.00658826 39.0520023,8.55166657 Z M23.0520023,8.55166657 L28.8299686,17.360954 C28.9411392,17.5304486 29,17.7255621 29,17.9245792 C29,18.5185177 28.4868222,19 27.8537852,19 L24,19 C24,23.5300913 22.8285936,27.9832097 20.5995293,31.9269388 L15.8736024,40.2881942 C13.6411915,44.2378441 13.5977385,49.0581806 15.7585839,53.0474337 C16.2846718,54.0186728 15.9238054,55.2324961 14.9525663,55.7585839 C13.9813272,56.2846718 12.7675039,55.9238054 12.2414161,54.9525663 C9.42459613,49.7522833 9.48124035,43.4686225 12.391351,38.3199651 L17.117278,29.9587098 C19.0069496,26.6154447 20,22.8403489 20,19 L16.1463758,19 C15.9342575,19 15.7262998,18.9447746 15.5456476,18.8404703 C15.0065164,18.5291886 14.8384194,17.8667866 15.1701924,17.360954 L20.9481587,8.55166657 C21.0494942,8.39716703 21.1880739,8.26714645 21.352744,8.17206981 C21.9337044,7.836637 22.6944882,8.00658826 23.0520023,8.55166657 Z M47.1672461,36.507947 L47,36.342 L46.7635295,36.5796483 C46.1048219,37.2689782 45.3570216,38.2450601 44.6687308,39.3371869 C43.0227674,41.9488749 42,44.7231366 42,46.9166667 C42,49.7293777 44.2439091,52 47,52 C49.7560909,52 52,49.7293777 52,46.9166667 C52,44.7231366 50.9772326,41.9488749 49.3312692,39.3371869 C48.7194552,38.3664076 48.0606213,37.4873179 47.4591356,36.8198112 L47.1672461,36.507947 Z" id="Shape" fill="#000000"></path>
    </g>
</svg>