<svg id="Capa_1" enable-background="new 0 0 512 512" height="512" viewBox="0 0 512 512" width="512" xmlns="http://www.w3.org/2000/svg"><g><path d="m112.71 107.71c-30.437 0-55.199 24.762-55.199 55.2 0 30.436 24.762 55.199 55.199 55.199s55.199-24.762 55.199-55.199-24.762-55.2-55.199-55.2zm0 90.36c-19.387 0-35.16-15.772-35.16-35.159s15.773-35.16 35.16-35.16 35.16 15.773 35.16 35.16-15.772 35.159-35.16 35.159z"/><path d="m423.303 83.342h70.46c5.534 0 10.02-4.486 10.02-10.02 0-5.533-4.486-10.02-10.02-10.02h-70.46c-5.534 0-10.02 4.486-10.02 10.02 0 5.533 4.486 10.02 10.02 10.02z"/><path d="m423.303 132.393h41.868c5.534 0 10.02-4.486 10.02-10.02 0-5.533-4.486-10.02-10.02-10.02h-41.868c-5.534 0-10.02 4.486-10.02 10.02s4.486 10.02 10.02 10.02z"/><path d="m423.303 180.973h70.46c5.534 0 10.02-4.486 10.02-10.02s-4.486-10.02-10.02-10.02h-70.46c-5.534 0-10.02 4.486-10.02 10.02s4.486 10.02 10.02 10.02z"/><path d="m501.98 313.662c-32.796 0-59.478 26.682-59.478 59.478v13.122c0 14.512-11.806 26.317-26.318 26.317s-26.318-11.805-26.318-26.317v-99.928c0-30.014-24.418-54.431-54.432-54.431s-54.431 24.418-54.431 54.431v13.626c0 5.533 4.486 10.02 10.02 10.02s10.02-4.486 10.02-10.02v-13.626c0-18.964 15.429-34.392 34.392-34.392 18.964 0 34.392 15.429 34.392 34.392v99.928c0 25.561 20.795 46.356 46.357 46.356 25.561 0 46.357-20.796 46.357-46.356v-13.122c0-21.747 17.692-39.439 39.439-39.439 5.534 0 10.02-4.486 10.02-10.02 0-5.532-4.486-10.019-10.02-10.019z"/><circle cx="291.023" cy="344.879" r="10"/><path d="m373.396 43.791-51.802 21.497s-207.255-15.088-207.498-15.088c-62.104 0-113.283 49.885-114.086 111.202-.283 21.577 5.554 42.62 16.878 60.854 10.289 16.568 24.647 30.158 41.69 39.504l41.907 112.744c5.202 13.994 15.547 25.113 29.132 31.306 7.381 3.365 15.231 5.056 23.105 5.056 3.582 0 7.167-.362 10.716-1.064l10.165 21.157c11.091 23.083 34.805 37.998 60.414 37.998 36.958 0 67.026-30.068 67.026-67.026v-12.641c0-5.533-4.486-10.02-10.02-10.02s-10.02 4.486-10.02 10.02v12.641c0 25.909-21.078 46.987-46.987 46.987-17.953 0-34.577-10.456-42.352-26.638l-9.518-19.811c9.125-5.639 16.436-13.805 21.084-23.718 6.212-13.248 6.989-28.156 2.185-41.977l-28.285-81.392c21.484-14.996 37.168-37.079 44.172-62.234l99.901-12.386c.473.098 52.431 19.817 52.431 19.817 6.456 2.48 13.621-2.436 13.621-9.35v-138.184c.001-7.013-7.368-11.949-13.859-9.254zm-186.909 299.561c6.413 18.455-2.889 38.293-21.179 45.162-8.954 3.364-18.677 3.031-27.379-.938-8.702-3.968-15.329-11.09-18.661-20.055l-35.6-95.775c9.473 2.555 19.275 3.845 29.322 3.845 16.095 0 31.939-3.451 46.461-10.035zm126.74-181.793-101.249 12.553c-4.25.526-7.696 3.698-8.574 7.889-5.29 25.265-21.73 47.79-44.047 61.051-.432.257.38-.31 0 0-13.885 7.919-30.273 12.537-46.367 12.537-14.602 0-29.161-3.549-42.102-10.059-.39-.196.401.141 0 0-31.478-16.23-51.306-48.424-50.842-83.867.659-50.296 42.657-91.235 93.694-91.425l199.486 14.531v76.79zm53.99 15.074-33.951-13.079v-81.413l33.951-14.09z"/></g></svg>