<svg id="Image" enable-background="new 0 0 30 30" height="512" viewBox="0 0 30 30" width="512" xmlns="http://www.w3.org/2000/svg"><g><g><path d="m16.5 25h-3c-.276 0-.5-.224-.5-.5s.224-.5.5-.5h2.5v-18h-2.5c-.276 0-.5-.224-.5-.5s.224-.5.5-.5h3c.276 0 .5.224.5.5v19c0 .276-.224.5-.5.5z" fill="rgb(0,0,0)"/></g><g><path d="m11.5 27c-.041 0-.081-.005-.121-.015l-8-2c-.223-.056-.379-.256-.379-.485v-19c0-.229.156-.429.379-.485l8-2c.149-.039.307-.004.429.091.121.095.192.24.192.394v23c0 .154-.071.299-.192.394-.089.069-.198.106-.308.106zm-7.5-2.891 7 1.75v-21.718l-7 1.75z" fill="rgb(0,0,0)"/></g><g><path d="m26.5 15h-7c-.276 0-.5-.224-.5-.5s.224-.5.5-.5h7c.276 0 .5.224.5.5s-.224.5-.5.5z" fill="rgb(0,0,0)"/></g><g><path d="m23.5 18c-.128 0-.256-.049-.354-.146-.195-.195-.195-.512 0-.707l2.646-2.646-2.646-2.646c-.195-.195-.195-.512 0-.707s.512-.195.707 0l3 3c.195.195.195.512 0 .707l-3 3c-.097.096-.225.145-.353.145z" fill="rgb(0,0,0)"/></g><g><path d="m9.5 17c-.276 0-.5-.224-.5-.5v-3c0-.276.224-.5.5-.5s.5.224.5.5v3c0 .276-.224.5-.5.5z" fill="rgb(0,0,0)"/></g></g></svg>