<svg id="Image" enable-background="new 0 0 30 30" height="512" viewBox="0 0 30 30" width="512" xmlns="http://www.w3.org/2000/svg"><g><g><path d="m16.5 25h-3c-.276 0-.5-.224-.5-.5v-19c0-.276.224-.5.5-.5h3c.276 0 .5.224.5.5s-.224.5-.5.5h-2.5v18h2.5c.276 0 .5.224.5.5s-.224.5-.5.5z" fill="rgb(0,0,0)"/></g><g><path d="m18.5 27c-.11 0-.219-.037-.308-.106-.121-.095-.192-.24-.192-.394v-23c0-.154.071-.299.192-.394.122-.094.28-.127.429-.091l8 2c.223.056.379.256.379.485v19c0 .229-.156.429-.379.485l-8 2c-.04.01-.08.015-.121.015zm.5-22.859v21.719l7-1.75v-18.219z" fill="rgb(0,0,0)"/></g><g><path d="m10.5 15h-7c-.276 0-.5-.224-.5-.5s.224-.5.5-.5h7c.276 0 .5.224.5.5s-.224.5-.5.5z" fill="rgb(0,0,0)"/></g><g><path d="m7.5 18c-.128 0-.256-.049-.354-.146-.195-.195-.195-.512 0-.707l2.647-2.647-2.646-2.646c-.195-.195-.195-.512 0-.707s.512-.195.707 0l3 3c.195.195.195.512 0 .707l-3 3c-.098.097-.226.146-.354.146z" fill="rgb(0,0,0)"/></g><g><path d="m20.5 17c-.276 0-.5-.224-.5-.5v-3c0-.276.224-.5.5-.5s.5.224.5.5v3c0 .276-.224.5-.5.5z" fill="rgb(0,0,0)"/></g></g></svg>