<svg height="511pt" viewBox="0 -17 511.99979 511" width="511pt" xmlns="http://www.w3.org/2000/svg"><path d="m506.078125 308.792969-2.558594-7.90625-48.820312-12.226563c.300781-4.429687.4375-8.875.4375-13.363281 0-56.921875-24.449219-111.230469-67.074219-149.003906l-19.890625 22.441406c36.214844 32.085937 56.976563 78.21875 56.976563 126.5625 0 1.988281-.027344 3.96875-.109376 5.9375l-31.699218-7.9375c-.449219-31.117187-11.523438-61.335937-31.324219-85.328125l-23.132813 19.09375c13.753907 16.652344 22.121094 37.183594 24.0625 58.625l-32.308593-8.085938c-3.488281-14.734374-11.257813-27.839843-21.914063-37.925781l49.121094-171.363281-5.554688-6.167969c-23.8125-26.460937-58.878906-41.644531-96.195312-41.644531s-72.371094 15.183594-96.183594 41.644531l-5.558594 6.167969 13.847657 48.320312c-10.867188 5.367188-21.304688 11.765626-31.199219 19.171876-33.4375 25-58.648438 60.628906-70.992188 100.304687l28.636719 8.90625c13.625-43.824219 43.542969-78.78125 81.941407-99.125l9.054687 31.609375c-11.796875 7.058594-22.589844 15.902344-31.925781 26.351562l22.359375 19.980469c5.476562-6.128906 11.597656-11.554687 18.203125-16.195312l9.1875 32.050781c-10.597656 10.035156-18.34375 23.058594-21.851563 37.703125l-32.339843 8.007813c1.109374-12.382813 4.339843-24.320313 9.648437-35.617188l-27.152344-12.742188c-8.253906 17.589844-12.601562 36.382813-12.921875 55.886719l-110.238281 27.289063-2.582031 7.898437c-11.074219 33.835938-6.753906 71.792969 11.847656 104.148438 18.601562 32.347656 49.230469 55.179687 84.039062 62.636719l8.125 1.738281 35.039063-36.132813c32.636719 21.949219 71.230469 33.824219 111.015625 33.824219 13.734375 0 27.449219-1.398437 40.773438-4.175781l-6.117188-29.359375c-11.316406 2.359375-22.96875 3.546875-34.65625 3.546875-32.6875 0-63.527344-9.433594-89.675781-25.859375l22.691406-23.402344c19.824219 11.136719 42.675781 17.484375 66.984375 17.484375v-29.988281c-16.132812 0-31.4375-3.578125-45.171875-9.996094l23.171875-23.910156c6.964844 2.097656 14.351562 3.226562 22 3.226562 7.578125 0 14.894531-1.097656 21.8125-3.167969l123.703125 128.300782 8.125-1.71875c34.828125-7.355469 65.527344-30.109375 84.210937-62.40625 18.691407-32.296875 23.109376-70.242188 12.132813-104.109375zm-200.761719 25.148437c13.464844-11.3125 23-27.167968 26.207032-45.203125l148.175781 37.097657c5.40625 23.75 1.289062 49.582031-11.707031 72.050781-13.003907 22.464843-33.335938 38.90625-56.628907 46.054687zm-117.445312-277.5c17.851562-16.574218 42.273437-25.953125 68.222656-25.953125 25.960938 0 50.382812 9.378907 68.222656 25.953125l-42.082031 146.84375c-8.15625-2.980468-16.964844-4.601562-26.140625-4.601562s-17.984375 1.621094-26.140625 4.601562zm-87.496094 387.078125c-23.273438-7.207031-43.566406-23.710937-56.5-46.210937s-16.992188-48.339844-11.515625-72.074219l148.285156-36.703125c3.15625 18.050781 12.644531 33.9375 26.089844 45.28125zm109.105469-168.222656c0-25.710937 20.914062-46.625 46.613281-46.625 25.710938 0 46.621094 20.914063 46.621094 46.625 0 25.699219-20.910156 46.609375-46.621094 46.609375-25.699219.003906-46.613281-20.910156-46.613281-46.609375zm0 0"/></svg>