<svg id="Capa_1" enable-background="new 0 0 512 512" height="512" viewBox="0 0 512 512" width="512" xmlns="http://www.w3.org/2000/svg"><g><path d="m510.649 217.481c-1.746-3.01-4.932-4.896-8.412-4.979l-105-2.5c-3.601-.069-6.991 1.784-8.836 4.892s-1.87 6.97-.064 10.101l11.25 19.511c-13.496 3.649-27.77 5.494-42.587 5.494-51.381 0-70.374-10.85-90.48-22.336-3.157-1.804-40.27-24.414-61.788-31.064-.34-.954-.69-1.924-1.057-2.932-1.707-4.682-6.602-7.388-11.473-6.357l-24.952 5.301c-1.03-1.996-2.156-3.94-3.376-5.83l17.043-18.904c3.339-3.704 3.439-9.303.234-13.123-15.88-18.931-29.424-26.746-53.673-30.974-4.902-.852-9.688 2.026-11.227 6.76l-7.878 24.23c-2.249-.107-4.495-.107-6.744 0l-7.878-24.23c-1.539-4.733-6.325-7.616-11.227-6.76-24.249 4.228-37.793 12.043-53.673 30.974-3.205 3.82-3.105 9.419.234 13.122l17.042 18.905c-1.22 1.89-2.346 3.834-3.376 5.83l-24.952-5.301c-4.875-1.031-9.766 1.677-11.473 6.357-3.923 10.758-6.326 18.009-6.326 30.964 0 12.956 2.403 20.207 6.325 30.963 1.707 4.681 6.602 7.388 11.473 6.357l24.952-5.301c1.03 1.996 2.156 3.94 3.376 5.83l-17.043 18.906c-3.339 3.704-3.439 9.302-.234 13.122 15.879 18.93 29.423 26.745 53.673 30.974 4.907.855 9.689-2.026 11.228-6.76l7.878-24.23c2.249.107 4.495.107 6.744 0l7.878 24.23c1.357 4.176 6.103 6.834 10.365 6.834 24.25-4.229 38.656-12.119 54.535-31.048 3.205-3.82 3.105-9.418-.233-13.122l-17.043-18.906c1.22-1.89 2.346-3.834 3.376-5.83l24.062 5.112c9.249 3.726 47.041 24.674 50.618 26.56 23.721 12.504 50.608 26.677 107.07 26.677 32.261 0 61.417-7.931 82.235-15.699l12.133 20.747c1.795 3.07 5.083 4.952 8.632 4.952.056 0 .112 0 .168-.001 3.612-.062 6.911-2.065 8.629-5.244l50-92.5c1.655-3.062 1.599-6.763-.148-9.774zm-322.933 23.072-24.259-5.153c-4.874-1.028-9.764 1.674-11.472 6.354-1.986 5.443-4.897 10.469-8.652 14.938-3.21 3.82-3.112 9.422.229 13.128l16.481 18.283c-8.328 8.554-16.02 12.996-27.547 15.908l-7.617-23.428c-1.357-4.176-5.942-7.583-10.367-6.834-.235.04-.17.028-.06.009-5.685.986-12.424 1.059-18.102.066-4.903-.861-9.691 2.024-11.231 6.759l-7.617 23.428c-11.527-2.912-19.219-7.354-27.547-15.908l16.482-18.283c3.341-3.706 3.438-9.308.229-13.128-3.754-4.469-6.666-9.494-8.652-14.938-1.708-4.679-6.598-7.381-11.472-6.354l-24.258 5.153c-1.565-5.098-2.284-9.371-2.284-15.921s.719-10.824 2.284-15.922l24.258 5.153c4.876 1.033 9.764-1.674 11.472-6.354 1.986-5.443 4.897-10.469 8.652-14.938 3.21-3.82 3.112-9.422-.229-13.128l-16.481-18.282c8.328-8.555 16.021-12.997 27.547-15.908l7.617 23.427c1.54 4.735 6.328 7.621 11.231 6.759 5.69-.994 11.607-.994 17.298 0 4.907.861 9.691-2.023 11.231-6.759l7.617-23.427c11.526 2.911 19.218 7.354 27.546 15.908l-16.481 18.28c-3.341 3.706-3.439 9.308-.229 13.129 3.755 4.47 6.666 9.496 8.653 14.939 1.708 4.68 6.602 7.388 11.472 6.354l24.258-5.153c1.565 5.098 2.284 9.372 2.284 15.922s-.719 10.823-2.284 15.921zm263.941 54.051-7.475-12.782c-2.517-4.305-7.821-6.096-12.434-4.201-19.29 7.928-49.306 17.379-82.748 17.379-51.514 0-75.016-12.389-97.743-24.369-3.524-1.857-37.387-20.556-44.516-23.934 2.067-6.669 3.259-12.959 3.259-22.065 0-1.57-.037-3.054-.106-4.473 10.194 4.524 43.522 23.053 46.705 24.871 21.489 12.276 43.71 24.97 100.401 24.97 21.415 0 41.89-3.463 60.857-10.291 2.786-1.004 4.984-3.189 6.003-5.97 1.018-2.78.752-5.869-.727-8.435l-8.582-14.884 70.887 1.688z"/><path d="m5.108 120.717c3.152 1.769 7.019 1.698 10.106-.184.485-.296 49.126-29.533 107.786-29.533 51.522 0 75.033 12.396 97.771 24.383 3.516 1.854 17.583 9.056 21.16 10.94 23.719 12.504 50.604 26.677 107.069 26.677 32.259 0 61.417-7.931 82.236-15.699l12.131 20.747c1.795 3.07 5.083 4.952 8.632 4.952.056 0 .112 0 .168-.001 3.612-.061 6.911-2.065 8.629-5.244l50-92.5c1.655-3.062 1.599-6.763-.147-9.773s-4.932-4.896-8.412-4.979l-105-2.5c-3.601-.096-6.991 1.784-8.836 4.892-1.845 3.107-1.87 6.969-.065 10.101l11.25 19.512c-13.501 3.647-27.775 5.492-42.586 5.492-51.378 0-70.369-10.849-90.476-22.334-3.159-1.805-10.993-6.119-10.993-6.119-27.863-14.946-62.539-33.547-126.531-33.547-63.994 0-121.037 27.851-123.434 29.036-3.409 1.687-5.566 5.16-5.566 8.964v48c0 3.615 1.956 6.946 5.108 8.717zm14.892-50.289c15.403-6.713 60.637-24.428 109-24.428 58.966 0 91.188 17.283 117.077 31.171 0 0 7.343 4.042 10.527 5.861 21.489 12.276 43.708 24.968 100.396 24.968 21.403 0 41.877-3.461 60.855-10.286 2.787-1.003 4.986-3.188 6.005-5.969s.753-5.87-.726-8.436l-8.583-14.889 70.888 1.688-33.781 62.495-7.473-12.78c-2.518-4.305-7.821-6.098-12.434-4.202-19.293 7.929-49.312 17.379-82.751 17.379-51.516 0-75.016-12.389-97.743-24.368-3.524-1.858-17.591-9.06-21.16-10.941-23.729-12.511-50.626-26.691-107.097-26.691-44.449 0-82.773 14.805-103 24.435z"/><path d="m510.65 378.479c-1.74-2.989-4.96-4.899-8.41-4.979l-105-2.5c-3.6-.11-7.01 1.81-8.84 4.899-1.84 3.101-1.87 6.96-.06 10.091l11.24 19.51c-13.48 3.649-27.81 5.5-42.58 5.5-26.36-.01-46.5-2.87-63.36-9.01-10.34-3.761-67.01-34.94-86.8-41.45-23.59-7.77-49.075-11.54-77.785-11.54-14.89.01-30.675 1.54-46.805 4.54-12.81 2.39-25.99 5.729-39.19 9.93-21.5 6.86-35.88 13.78-37.45 14.55l-.04.021c-3.38 1.669-5.57 5.188-5.57 8.959v48c0 3.609 1.96 6.96 5.11 8.729 3.09 1.721 7.13 1.631 10.14-.22.11-.061 11.27-6.89 30.04-14.13 15.98-6.16 40.81-13.78 68.44-15.14 2.66-.141 5.12-1.301 6.91-3.29 1.79-1.98 2.7-4.54 2.56-7.21-.27-5.32-4.91-9.485-10.23-9.485-17.83.94-36.44 4.175-54.79 9.604-13.14 3.892-25.99 8.812-38.18 14.612v-25.06c13.17-5.75 59.96-24.41 108.82-24.41 26.59.01 50.19 3.46 71.77 10.54 18.19 5.979 73.97 36.77 86.2 41.239 9.02 3.29 18.6 5.711 29.3 7.391 12.14 1.899 25.47 2.83 40.76 2.83h.17c21.41 0 41.87-3.46 60.83-10.29 2.8-1 4.99-3.181 6.01-5.97 1.02-2.79.76-5.86-.73-8.431l-8.58-14.89 70.89 1.689-33.78 62.49-7.47-12.78c-1.79-3.05-5.1-4.949-8.65-4.949-1.3 0-2.58.25-3.79.75-19.26 7.931-49.23 17.381-82.65 17.381h-.1c-26.3-.01-47.49-3.2-66.7-10.03-11.74-4.18-48.53-23.34-52.08-25.22-7.63-4.021-15.52-8.19-24.96-12.13-1.23-.521-2.53-.78-3.85-.78-4.05 0-7.67 2.42-9.23 6.15-1.03 2.47-1.04 5.189-.02 7.659 1.01 2.471 2.93 4.391 5.39 5.42 8.35 3.48 15.86 7.431 23.12 11.261 3.53 1.859 41.56 21.71 54.91 26.479 9.98 3.561 20.26 6.19 31.44 8.04 12.7 2.09 26.77 3.15 41.82 3.15h.16c14.73-.01 29.97-1.66 45.31-4.9 12.26-2.6 24.69-6.229 36.93-10.8l12.13 20.75c1.78 3.05 5.09 4.95 8.63 4.95h.17c3.6-.061 6.91-2.07 8.63-5.25l50-92.49c1.64-3.039 1.58-6.789-.15-9.78z"/><path d="m105 192c-16.542 0-30 13.458-30 30s13.458 30 30 30 30-13.458 30-30-13.458-30-30-30zm0 40c-5.514 0-10-4.486-10-10s4.486-10 10-10 10 4.486 10 10-4.486 10-10 10z"/><circle cx="158.096" cy="406.229" r="10"/></g></svg>