<?xml version="1.0" encoding="UTF-8"?>
<svg width="64px" height="64px" viewBox="0 0 64 64" version="1.1" xmlns="http://www.w3.org/2000/svg" xmlns:xlink="http://www.w3.org/1999/xlink">
    <title>fill_humidifier</title>
    <g id="fill_humidifier" stroke="none" stroke-width="1" fill="none" fill-rule="evenodd">
        <path d="M35,8 C36.1045695,8 37,8.8954305 37,10 L37,12.764 L42.5777088,15.5527864 C45.203285,16.8655745 46.892024,19.5062777 46.9950061,22.4249221 L47,22.7082039 L47,29 C45.5369338,29 44.2278298,29.5294305 43,30.4779212 L43,22.7082039 C43,21.1931157 42.1439905,19.8080632 40.7888544,19.1304952 L34.1055728,15.7888544 C33.4280048,15.4500704 33,14.7575441 33,14 L33,12 L27,12 L27,14 C27,14.7034338 26.6309551,15.3508063 26.0357355,15.7109486 L25.8944272,15.7888544 L19.2111456,19.1304952 C17.8560095,19.8080632 17,21.1931157 17,22.7082039 L17,48 C17,50.209139 18.790861,52 21,52 L36.1108576,52.0000401 C36.8186059,53.5346667 37.8369668,54.8954573 39.085324,56 L21,56 C16.581722,56 13,52.418278 13,48 L13,22.7082039 C13,19.6780275 14.712019,16.9079225 17.4222912,15.5527864 L23,12.763 L23,10 C23,8.9456382 23.8158778,8.08183488 24.8507377,8.00548574 L25,8 L35,8 Z M47,32 C50.3138433,32 56,41.0223552 56,46.9166667 C56,51.9279896 51.9758956,56 47,56 C42.0241044,56 38,51.9279896 38,46.9166667 C38,41.0223552 43.6861567,32 47,32 Z M47,36.342 L46.900358,36.4393912 L46.7635295,36.5796483 C46.1048219,37.2689782 45.3570216,38.2450601 44.6687308,39.3371869 C43.0227674,41.9488749 42,44.7231366 42,46.9166667 C42,49.7293777 44.2439091,52 47,52 C49.7560909,52 52,49.7293777 52,46.9166667 C52,44.7231366 50.9772326,41.9488749 49.3312692,39.3371869 C48.7194552,38.3664076 48.0606213,37.4873179 47.4591356,36.8198112 L47.1672461,36.507947 L47,36.342 Z M39.7180574,27 C40.1638168,27 40.3254599,27.0464128 40.4884229,27.1335664 C40.6513858,27.2207199 40.7792801,27.3486142 40.8664336,27.5115771 C40.9535872,27.6745401 41,27.8361832 41,28.2819426 L41.001213,32.4459573 C40.2390576,33.3550662 39.4944336,34.4185095 38.7467039,35.6049494 C36.4587875,39.2352388 35,43.1922074 35,46.9166667 C35,47.9820234 35.1371226,49.0157243 35.3946789,50.0006379 L21.5638852,50 C20.6723665,50 20.3490802,49.9071744 20.0231543,49.7328673 C19.6972284,49.5585602 19.4414398,49.3027716 19.2671327,48.9768457 C19.1062338,48.675991 19.014763,48.3773855 19.0016426,47.6320228 L19,45 L22,45 C22.5128358,45 22.9355072,44.6139598 22.9932723,44.1166211 L23,44 C23,43.4477153 22.5522847,43 22,43 L19,43 L19,36 L22,36 C22.5128358,36 22.9355072,35.6139598 22.9932723,35.1166211 L23,35 C23,34.4477153 22.5522847,34 22,34 L19,34 L19,28.2819426 C19,27.8361832 19.0464128,27.6745401 19.1335664,27.5115771 C19.2207199,27.3486142 19.3486142,27.2207199 19.5115771,27.1335664 C19.6745401,27.0464128 19.8361832,27 20.2819426,27 L39.7180574,27 Z" id="Shape" fill="#000000" fill-rule="nonzero"></path>
    </g>
</svg>