<?xml version="1.0" encoding="UTF-8"?>
<svg id="Layer_1" data-name="Layer 1" xmlns="http://www.w3.org/2000/svg" width="960" height="960" viewBox="0 0 960 960">
  <defs>
    <style>
      .cls-1 {
        stroke-width: 40px;
      }

      .cls-1, .cls-2, .cls-3 {
        fill: none;
        stroke: #000;
      }

      .cls-1, .cls-3 {
        stroke-linecap: round;
        stroke-linejoin: round;
      }

      .cls-2, .cls-3 {
        stroke-width: 20px;
      }
    </style>
  </defs>
  <ellipse class="cls-2" cx="480" cy="831.443" rx="33.334" ry="35.708"/>
  <path class="cls-3" d="m480,200.436c-53.967,0-104.548-9.508-142.424-26.772-34.864-15.891-54.859-36.925-54.859-57.709s19.996-41.818,54.859-57.709c37.876-17.265,88.457-26.772,142.424-26.772s104.548,9.508,142.424,26.772c34.864,15.891,54.859,36.926,54.859,57.709s-19.996,41.818-54.859,57.709c-37.876,17.265-88.457,26.772-142.424,26.772Z"/>
  <path class="cls-3" d="m201.191,624.125v114.712c0,110.808,78.752,200.635,278.809,200.635,198.146,0,278.809-89.827,278.809-200.635v-114.712"/>
  <ellipse class="cls-3" cx="480" cy="101.327" rx="125.046" ry="39.69"/>
  <path class="cls-3" d="m283.449,107.055c-24.737,37.227-43.494,104.635-55.748,200.351-10.955,85.566-16.51,192.126-16.51,316.719,0,26.983,27.545,54.164,75.572,74.573,51.451,21.863,120.077,33.904,193.236,33.904s141.785-12.041,193.236-33.904c48.027-20.409,75.572-47.59,75.572-74.573,0-124.593-5.555-231.153-16.51-316.719-12.254-95.716-31.011-163.124-55.748-200.351"/>
  <path class="cls-3" d="m583.11,520.57c49.09,8.46,90.85,22.63,120.91,41.03,20.43,12.52,44.79,32.9,44.79,58.93"/>
  <path class="cls-3" d="m211.19,620.53c0-26.03,24.36-46.41,44.79-58.93,30.06-18.4,71.82-32.57,120.91-41.03"/>
  <path class="cls-3" d="m529.225,478.708c32.257,7.435,54.164,21.949,54.164,38.644,0,24.266-46.289,43.939-103.389,43.939s-103.389-19.673-103.389-43.939c0-16.695,21.907-31.209,54.164-38.644"/>
  <path class="cls-3" d="m581.763,525.164c37.637,12.72,61.756,32.362,61.756,54.384,0,38.382-73.208,69.485-163.52,69.485s-163.52-31.104-163.52-69.485c0-22.022,24.12-41.664,61.756-54.384"/>
  <path class="cls-3" d="m643.52,579.549v51.224c0,38.376-73.21,69.487-163.52,69.487s-163.52-31.11-163.52-69.487v-51.224"/>
  <path class="cls-3" d="m522.22,208.475l7.1,273.778c.336,12.815-9.973,23.396-22.798,23.396h-53.042c-12.825,0-23.134-10.581-22.798-23.396l7.1-273.778"/>
  <path class="cls-1" d="m758.81,624.13v114.71c0,110.8-80.66,200.63-278.81,200.63-200.06,0-278.81-89.83-278.81-200.63v-114.71c0-232.93,19.6-440.85,73.93-522.61,15.24-45.33,101.16-80.05,204.88-80.05s189.64,34.72,204.88,80.05c54.33,81.76,73.93,289.68,73.93,522.61Z"/>
</svg>