<svg id="Layer_1" enable-background="new 0 0 100 100" viewBox="0 0 100 100" xmlns="http://www.w3.org/2000/svg"><path d="m78.7784958 40.8713341h-.1547241v-9.9022808c0-15.6270361-12.8420182-28.4690533-28.4690552-28.4690533s-28.4690552 12.842021-28.4690552 28.4690533v9.9022808h-.6188908c-4.1775265 0-7.5814333 3.4039116-7.5814333 7.5814362v41.4657936c0 4.1775208 3.4039106 7.5814362 7.5814333 7.5814362h57.8664551c4.1775208 0 7.5814362-3.4039001 7.5814362-7.5814362v-41.6205216c-.309454-4.1775246-3.5586376-7.4267082-7.736166-7.4267082zm-24.4462471 28.0162849c-.6188965.4641647-.7736168.773613-.7736168 1.547226v9.1286697c0 1.2377853-.6188965 2.4755707-1.7019501 3.0944595-2.6302948 1.3925095-5.2605896-.4641724-5.2605896-3.0944595 0-3.0944595 0-6.0342026 0-9.1286697 0-.6188889-.1547203-1.0830612-.6188965-1.3925095-2.7850151-2.0113983-3.713356-5.5700264-2.3208466-8.5097694s4.6416931-4.6416931 7.7361565-4.0228004c3.4039116.6188965 5.8794785 3.4039116 5.8794785 6.9625435-.1547203 2.011402-1.083065 4.0228004-2.9397354 5.4153098zm11.7589531-28.0162849h-32.0276871v-9.9022808c0-8.8192196 7.11726-16.0912037 16.0912018-16.0912037 8.8192177 0 16.0912094 7.1172638 16.0912094 16.0912037v9.9022808z" fill="#04de3b"/></svg>