<?xml version="1.0" encoding="UTF-8" standalone="no"?>
<svg
   xmlns:dc="http://purl.org/dc/elements/1.1/"
   xmlns:cc="http://creativecommons.org/ns#"
   xmlns:rdf="http://www.w3.org/1999/02/22-rdf-syntax-ns#"
   xmlns:svg="http://www.w3.org/2000/svg"
   xmlns="http://www.w3.org/2000/svg"
   xmlns:sodipodi="http://sodipodi.sourceforge.net/DTD/sodipodi-0.dtd"
   xmlns:inkscape="http://www.inkscape.org/namespaces/inkscape"
   version="1.1"
   id="Layer_1"
   x="0px"
   y="0px"
   viewBox="0 0 512 512"
   style="enable-background:new 0 0 512 512;"
   xml:space="preserve"
   sodipodi:docname="power_off.svg"
   inkscape:version="1.0.2 (e86c870879, 2021-01-15, custom)"><metadata
   id="metadata49"><rdf:RDF><cc:Work
       rdf:about=""><dc:format>image/svg+xml</dc:format><dc:type
         rdf:resource="http://purl.org/dc/dcmitype/StillImage" /><dc:title></dc:title></cc:Work></rdf:RDF></metadata><defs
   id="defs47" /><sodipodi:namedview
   pagecolor="#ffffff"
   bordercolor="#666666"
   borderopacity="1"
   objecttolerance="10"
   gridtolerance="10"
   guidetolerance="10"
   inkscape:pageopacity="0"
   inkscape:pageshadow="2"
   inkscape:window-width="2114"
   inkscape:window-height="1371"
   id="namedview45"
   showgrid="false"
   inkscape:zoom="1.96875"
   inkscape:cx="256"
   inkscape:cy="256"
   inkscape:window-x="1352"
   inkscape:window-y="614"
   inkscape:window-maximized="0"
   inkscape:current-layer="Layer_1" />
<g
   id="g6"
   style="fill:none;stroke:#000000;stroke-opacity:1;stroke-width:20;stroke-miterlimit:4;stroke-dasharray:none">
	<g
   id="g4"
   style="fill:none;stroke:#000000;stroke-opacity:1;stroke-width:20;stroke-miterlimit:4;stroke-dasharray:none">
		<path
   d="M256.026,0c-24.816,0-45.004,20.188-45.004,45.004v181.016c0,24.816,20.188,45.004,45.004,45.004    s45.004-20.188,45.004-45.004V45.004C301.03,20.188,280.842,0,256.026,0z"
   id="path2"
   style="fill:none;stroke:#000000;stroke-opacity:1;stroke-width:20;stroke-miterlimit:4;stroke-dasharray:none" />
	</g>
</g>
<g
   id="g12"
   style="fill:none;stroke:#000000;stroke-opacity:1;stroke-width:20;stroke-miterlimit:4;stroke-dasharray:none">
	<g
   id="g10"
   style="fill:none;stroke:#000000;stroke-opacity:1;stroke-width:20;stroke-miterlimit:4;stroke-dasharray:none">
		<path
   d="M406.625,118.959c-18.939-17.083-46.502-15.14-63.041,1.873c-16.632,17.109-17.917,46.086,3.153,65.296    c33.44,30.395,50.343,76.459,42.336,122.928c-10.868,63.067-65.717,112.767-133.05,112.915    c-68.971,0.152-121.809-50.77-132.708-110.617c-8.497-46.747,7.179-93.553,41.972-125.197c21.01-19.127,19.913-48.232,3.234-65.36    c-16.567-17.013-44.295-18.851-63.4-1.56c-52.909,47.923-80.527,118.769-72.843,190.58C44.496,423.995,140.9,512,256.553,512    c114.326,0,207.934-88.216,222.368-194.743C488.985,243.027,461.957,168.899,406.625,118.959z"
   id="path8"
   style="fill:none;stroke:#000000;stroke-opacity:1;stroke-width:20;stroke-miterlimit:4;stroke-dasharray:none" />
	</g>
</g>
<g
   id="g14">
</g>
<g
   id="g16">
</g>
<g
   id="g18">
</g>
<g
   id="g20">
</g>
<g
   id="g22">
</g>
<g
   id="g24">
</g>
<g
   id="g26">
</g>
<g
   id="g28">
</g>
<g
   id="g30">
</g>
<g
   id="g32">
</g>
<g
   id="g34">
</g>
<g
   id="g36">
</g>
<g
   id="g38">
</g>
<g
   id="g40">
</g>
<g
   id="g42">
</g>
</svg>
