<svg id="Layer_1" enable-background="new 0 0 512 512" viewBox="0 0 512 512" xmlns="http://www.w3.org/2000/svg"><path d="m234.57 254.555c0 4.483-3.635 8.118-8.118 8.118s-8.118-3.635-8.118-8.118 3.635-8.118 8.118-8.118c4.484 0 8.118 3.635 8.118 8.118zm268.43 23.061v201.301c0 13.279-10.803 24.083-24.082 24.083h-101.718c-13.279 0-24.083-10.804-24.083-24.083v-75.705c-36.752 26.329-81.197 40.692-126.664 40.692-58.084 0-112.691-22.619-153.763-63.69s-63.69-95.678-63.69-153.762c0-44.37 13.213-86.703 37.754-122.531l-14.04-14.04c-2.464-2.464-2.74-6.366-.647-9.153 13.849-18.443 30.221-34.815 48.661-48.662 2.786-2.093 6.688-1.816 9.153.648l14.04 14.039c35.829-24.54 78.162-37.753 122.532-37.753 44.369 0 86.703 13.213 122.531 37.754l14.039-14.04c2.466-2.465 6.367-2.74 9.153-.648 18.443 13.849 34.816 30.221 48.662 48.662 2.093 2.787 1.816 6.688-.648 9.153l-14.04 14.04c24.54 35.828 37.753 78.161 37.753 122.531 0 9.051-.566 18.126-1.677 27.082h36.691c13.28 0 24.083 10.803 24.083 24.082zm-142.589-222.489c6.894 5.413 13.51 11.269 19.804 17.563 6.294 6.295 12.15 12.91 17.563 19.804l8.161-8.161c-10.982-13.851-23.515-26.384-37.368-37.367zm-305.284 37.367c5.413-6.894 11.269-13.509 17.563-19.804s12.91-12.151 19.804-17.563l-8.161-8.161c-13.851 10.982-26.383 23.514-37.366 37.367zm297.99 293.17v-74.522h-76.577c2.415 5.124 4.058 10.677 4.798 16.509h57.001c3.866 0 7 3.134 7 7s-3.134 7-7 7h-57.001c-3.454 27.222-26.742 48.344-54.886 48.344s-51.432-21.122-54.886-48.344h-59.188c-3.866 0-7-3.134-7-7s3.134-7 7-7h59.188c.74-5.832 2.383-11.385 4.798-16.509h-87.777c-2.524 0-4.854-1.359-6.095-3.558-13.915-24.639-21.271-52.694-21.271-81.132 0-38.007 13.223-75.115 37.233-104.488 23.673-28.96 56.737-49.217 93.103-57.038 2.069-.446 4.225.069 5.87 1.398s2.602 3.331 2.602 5.445v45.273h52.847v-45.272c0-2.115.956-4.116 2.602-5.445 1.644-1.329 3.801-1.844 5.87-1.398 36.365 7.821 69.43 28.077 93.103 57.038 24.011 29.374 37.233 66.481 37.233 104.488 0 9.087-.747 18.162-2.217 27.082h38.641c1.187-8.942 1.797-18.024 1.797-27.082-.001-112.185-91.268-203.453-203.452-203.453s-203.453 91.268-203.453 203.452 91.269 203.452 203.453 203.452c45.966 0 90.81-15.692 126.664-44.24zm22.117-132.043c1.618-8.925 2.449-18.038 2.449-27.168 0-67.875-46.101-127.821-110.808-145.756v43.347c0 3.866-3.134 7-7 7h-66.847c-3.866 0-7-3.134-7-7v-43.348c-64.706 17.935-110.806 77.882-110.806 145.756 0 24.67 6.045 49.022 17.515 70.69h93.068c10.119-10.957 24.593-17.835 40.647-17.835s30.529 6.878 40.647 17.835h86.018v-19.526c0-12.617 9.755-22.991 22.117-23.995zm-190.126 81.03c0 22.797 18.547 41.344 41.344 41.344s41.344-18.547 41.344-41.344-18.547-41.344-41.344-41.344-41.344 18.547-41.344 41.344zm303.892-57.035c0-5.56-4.522-10.083-10.082-10.083h-101.718c-5.56 0-10.083 4.523-10.083 10.083v201.301c0 5.56 4.523 10.083 10.083 10.083h101.718c5.56 0 10.082-4.523 10.082-10.083zm-292.782-54.783c-2.734 2.734-2.734 7.166 0 9.899 2.732 2.733 7.166 2.733 9.898 0 11.215-11.213 29.457-11.213 40.672 0 1.366 1.367 3.158 2.05 4.949 2.05s3.583-.684 4.949-2.05c2.734-2.734 2.734-7.166 0-9.899-16.669-16.671-43.798-16.671-60.468 0zm-42.822-42.822c-2.734 2.734-2.734 7.166 0 9.899 2.732 2.733 7.166 2.733 9.898 0 34.826-34.825 91.489-34.824 126.315 0 1.366 1.367 3.158 2.05 4.949 2.05s3.583-.684 4.949-2.05c2.734-2.734 2.734-7.166 0-9.899-40.281-40.283-105.829-40.283-146.111 0zm21.411 21.411c-2.734 2.733-2.734 7.166-.001 9.899 2.734 2.733 7.167 2.734 9.899 0 23.02-23.019 60.475-23.019 83.494 0 1.366 1.367 3.158 2.05 4.949 2.05s3.583-.684 4.95-2.05c2.733-2.734 2.733-7.166-.001-9.899-28.476-28.477-74.814-28.477-103.29 0zm262.545 263.875h-18.586c-3.866 0-7 3.134-7 7s3.134 7 7 7h18.586c3.866 0 7-3.134 7-7s-3.134-7-7-7zm15.44-107.569c-2.848-2.614-7.276-2.424-9.891.424s-2.425 7.276.424 9.891c4.649 4.268 7.316 10.334 7.316 16.642 0 12.452-10.131 22.583-22.583 22.583s-22.583-10.131-22.583-22.583c0-6.308 2.667-12.374 7.316-16.642 2.849-2.614 3.038-7.043.424-9.891-2.615-2.848-7.044-3.038-9.891-.424-7.53 6.913-11.85 16.738-11.85 26.956 0 20.172 16.411 36.583 36.583 36.583s36.583-16.411 36.583-36.583c.002-10.218-4.318-20.043-11.848-26.956zm-24.733 17.205c3.866 0 7-3.134 7-7v-25.666c0-3.866-3.134-7-7-7s-7 3.134-7 7v25.666c0 3.866 3.133 7 7 7z"/></svg>