<svg id="Glyph" enable-background="new 0 0 32 32" height="512" viewBox="0 0 32 32" width="512" xmlns="http://www.w3.org/2000/svg"><path id="XMLID_220_" d="m12.909 6.768-3.909 5.232v13.5c0 .276-.224.5-.5.5h-2c-.276 0-.5-.224-.5-.5v-13.5l-3.909-5.232c-.237-.328.018-.768.445-.768h9.927c.428 0 .683.44.446.768z"/><path id="XMLID_222_" d="m30 6.5v19c0 .276-.224.5-.5.5h-2c-.276 0-.5-.224-.5-.5v-19c0-.276.224-.5.5-.5h2c.276 0 .5.224.5.5z"/><path id="XMLID_224_" d="m25 10.5v15c0 .276-.224.5-.5.5h-2c-.276 0-.5-.224-.5-.5v-15c0-.276.224-.5.5-.5h2c.276 0 .5.224.5.5z"/><path id="XMLID_226_" d="m20 13.5v12c0 .276-.224.5-.5.5h-2c-.276 0-.5-.224-.5-.5v-12c0-.276.224-.5.5-.5h2c.276 0 .5.224.5.5z"/><path id="XMLID_228_" d="m15 16.5v9c0 .276-.224.5-.5.5h-2c-.276 0-.5-.224-.5-.5v-9c0-.276.224-.5.5-.5h2c.276 0 .5.224.5.5z"/></svg>