<svg id="Capa_1" enable-background="new 0 0 512 512" height="512" viewBox="0 0 512 512" width="512" xmlns="http://www.w3.org/2000/svg"><g><path d="m430.074 283.069c10.264-18.327 15.659-38.899 15.659-60.186 0-68.08-55.387-123.467-123.467-123.467-27.254 0-53.094 8.704-74.725 25.173-19.604 14.926-34.498 35.709-42.327 58.927-59.746 8.592-105.814 60.113-105.814 122.2v9.067h-17.35c-45.242 0-82.05 36.808-82.05 82.05s36.808 82.05 82.05 82.05h29.551c4.142 0 7.5-3.357 7.5-7.5s-3.358-7.5-7.5-7.5h-29.551c-36.971 0-67.05-30.078-67.05-67.05s30.079-67.05 67.05-67.05h74.55c4.142 0 7.5-3.357 7.5-7.5s-3.358-7.5-7.5-7.5h-42.2v-9.067c0-59.809 48.658-108.467 108.467-108.467 53.623 0 99.777 39.965 107.359 92.963.059.41.169 1.203.169 1.203.619 4.68.939 9.454.939 14.301 0 10.554-1.511 20.981-4.491 30.995-1.182 3.971 1.079 8.146 5.049 9.328.714.212 1.434.313 2.142.313 3.232 0 6.216-2.106 7.186-5.362 3.394-11.403 5.114-23.271 5.114-35.274 0-3.05-.123-6.071-.341-9.066h67.391c46.106 0 83.617 37.51 83.617 83.616s-37.51 83.617-83.617 83.617h-271.784c-4.142 0-7.5 3.357-7.5 7.5s3.358 7.5 7.5 7.5h271.784c54.377 0 98.617-44.239 98.617-98.617-.001-48.689-35.471-89.244-81.927-97.197zm-125.986-70.34c-22.481-19.655-51.326-30.479-81.221-30.479-.394 0-.786.011-1.179.015 16.378-40.427 56.294-67.848 100.579-67.848 59.809 0 108.467 48.658 108.467 108.467 0 21.021-5.966 41.253-17.287 58.767-.021 0-.042-.001-.063-.001h-69.406c-5.272-26.621-19.278-50.9-39.89-68.921z"/><path d="m504.5 230.383h-33.133c-4.142 0-7.5-3.357-7.5-7.5s3.358-7.5 7.5-7.5h33.133c4.142 0 7.5 3.357 7.5 7.5s-3.358 7.5-7.5 7.5z"/><path d="m427.703 124.937c-1.919 0-3.839-.732-5.303-2.196-2.929-2.93-2.929-7.678 0-10.607l23.429-23.429c2.929-2.928 7.678-2.928 10.606 0 2.929 2.93 2.929 7.678 0 10.607l-23.429 23.429c-1.464 1.463-3.383 2.196-5.303 2.196z"/><path d="m322.267 81.251c-4.142 0-7.5-3.357-7.5-7.5v-33.134c0-4.143 3.358-7.5 7.5-7.5s7.5 3.357 7.5 7.5v33.134c0 4.143-3.358 7.5-7.5 7.5z"/><path d="m216.821 124.914c-1.919 0-3.839-.732-5.303-2.196l-23.429-23.429c-2.929-2.93-2.929-7.678 0-10.607 2.929-2.928 7.678-2.928 10.606 0l23.429 23.429c2.929 2.93 2.929 7.678 0 10.607-1.464 1.464-3.384 2.196-5.303 2.196z"/><path d="m265.199 92.604c-2.943 0-5.736-1.743-6.932-4.632l-6.34-15.306c-1.585-3.827.232-8.214 4.059-9.799 3.826-1.584 8.215.231 9.799 4.059l6.34 15.306c1.585 3.827-.232 8.214-4.059 9.799-.939.389-1.911.573-2.867.573z"/><path d="m184.483 173.314c-.957 0-1.929-.184-2.867-.573l-15.306-6.34c-3.827-1.585-5.644-5.972-4.059-9.799 1.585-3.826 5.973-5.648 9.799-4.059l15.306 6.34c3.827 1.585 5.644 5.972 4.059 9.799-1.196 2.888-3.989 4.632-6.932 4.632z"/><path d="m475.35 293.795c-.957 0-1.929-.184-2.867-.573l-15.306-6.34c-3.827-1.585-5.644-5.972-4.059-9.799 1.585-3.826 5.974-5.647 9.799-4.059l15.306 6.34c3.827 1.585 5.644 5.972 4.059 9.799-1.196 2.888-3.989 4.632-6.932 4.632z"/><path d="m460.05 173.313c-2.943 0-5.736-1.743-6.932-4.632-1.585-3.827.232-8.215 4.06-9.8l15.306-6.339c3.825-1.581 8.214.232 9.799 4.06s-.232 8.215-4.06 9.8l-15.306 6.339c-.938.388-1.911.572-2.867.572z"/><path d="m379.334 92.604c-.957 0-1.929-.184-2.867-.573-3.827-1.585-5.644-5.972-4.059-9.799l6.34-15.306c1.585-3.826 5.973-5.647 9.799-4.059 3.827 1.585 5.644 5.972 4.059 9.799l-6.34 15.306c-1.196 2.888-3.989 4.632-6.932 4.632z"/></g></svg>