<?xml version="1.0" encoding="UTF-8"?>
<svg width="64px" height="64px" viewBox="0 0 64 64" version="1.1" xmlns="http://www.w3.org/2000/svg" xmlns:xlink="http://www.w3.org/1999/xlink">
    <title>terminate_cleaning</title>
    <g id="terminate_cleaning" stroke="none" stroke-width="1" fill="none" fill-rule="evenodd">
        <path d="M32,8 C45.254834,8 56,18.745166 56,32 C56,45.254834 45.254834,56 32,56 C18.745166,56 8,45.254834 8,32 C8,18.745166 18.745166,8 32,8 Z M12,32 C12,43.045695 20.954305,52 32,52 C36.8023349,52 41.2093452,50.3074143 44.6570209,47.4862528 L16.5857864,19.4142136 L16.5162004,19.3399816 C13.693567,22.7881003 12,27.1962733 12,32 Z M32,12 C27.1962733,12 22.7881003,13.693567 19.3399816,16.5162004 C19.3662334,16.5389786 19.3904481,16.562021 19.4142136,16.5857864 L47.4862528,44.6570209 C50.3074143,41.2093452 52,36.8023349 52,32 C52,20.954305 43.045695,12 32,12 Z" id="Combined-Shape" fill="#000000" fill-rule="nonzero"></path>
    </g>
</svg>