<?xml version="1.0" encoding="UTF-8"?>
<svg width="64px" height="64px" viewBox="0 0 64 64" version="1.1" xmlns="http://www.w3.org/2000/svg" xmlns:xlink="http://www.w3.org/1999/xlink">
    <title>vacuum_task</title>
    <g id="vacuum_task" stroke="none" stroke-width="1" fill="none" fill-rule="evenodd">
        <path d="M57.0289915,32.2850141 C57.976152,32.8533105 58.2832822,34.081831 57.7149859,35.0289915 L45.7149859,55.0289915 C45.0455537,56.1447118 43.505833,56.3342601 42.5857864,55.4142136 L34.5857864,47.4142136 C33.8047379,46.633165 33.8047379,45.366835 34.5857864,44.5857864 C35.366835,43.8047379 36.633165,43.8047379 37.4142136,44.5857864 L43.603,50.774 L54.2850141,32.9710085 C54.8533105,32.023848 56.081831,31.7167178 57.0289915,32.2850141 Z M48.9705627,15.0294373 C49.513186,15.5720605 49.6788289,16.3489093 49.4674914,17.0345334 C52.1237884,20.1333657 53.9706385,23.947329 54.6788808,28.1480573 C53.2266681,28.4754327 51.8984479,29.3397806 51.0153322,30.660135 L50.95,30.762 L50.9593706,30.7474355 C50.5229568,24.0416389 46.607671,18.2844751 41.0003949,15.2628262 L41,22 C41,26.9705627 36.9705627,31 32,31 C27.0294373,31 23,26.9705627 23,22 L23.0005997,15.2622903 C17.0465619,18.4703442 13,24.7626095 13,32 C13,33.7302172 13.2312722,35.406418 13.6645896,36.9993752 L47.203,36.999 L46.003,38.999 L14.3307127,38.9992185 C17.1176696,46.0288714 23.9783002,51 32,51 C32.1697092,51 32.3388987,50.997775 32.507541,50.9933525 L36.9925764,55.4778427 C29.3140402,57.1031793 20.9929605,54.934086 15.0294373,48.9705627 C14.486814,48.4279395 14.3211711,47.6510907 14.5325086,46.9654666 C11.0842042,42.9426796 9,37.7147358 9,32 C9,26.2852642 11.0842042,21.0573204 14.5339545,17.0348266 C14.3211711,16.3489093 14.486814,15.5720605 15.0294373,15.0294373 C24.4020203,5.65685425 39.5979797,5.65685425 48.9705627,15.0294373 Z M32,16 C28.6862915,16 26,18.6862915 26,22 C26,25.3137085 28.6862915,28 32,28 C35.3137085,28 38,25.3137085 38,22 C38,18.6862915 35.3137085,16 32,16 Z M32,19 C33.6568542,19 35,20.3431458 35,22 C35,23.6568542 33.6568542,25 32,25 C30.3431458,25 29,23.6568542 29,22 C29,20.3431458 30.3431458,19 32,19 Z" id="Combined-Shape" fill="#000000" fill-rule="nonzero"></path>
    </g>
</svg>