<?xml version="1.0" encoding="UTF-8"?>
<svg width="64px" height="64px" viewBox="0 0 64 64" version="1.1" xmlns="http://www.w3.org/2000/svg" xmlns:xlink="http://www.w3.org/1999/xlink">
    <title>vacuum_state</title>
    <g id="vacuum_state" stroke="none" stroke-width="1" fill="none" fill-rule="evenodd">
        <path d="M48.9705627,15.0294373 C49.513186,15.5720605 49.6788289,16.3489093 49.4674914,17.0345334 C52.9157958,21.0573204 55,26.2852642 55,32 C55,34.753068 54.5162936,37.3931602 53.6292306,39.8399271 L51.3665631,35.3167184 C51.211161,35.005914 51.0355085,34.7169534 50.8424522,34.4498365 C50.9467113,33.6486176 51,32.8305319 51,32 C51,24.7630125 46.9538887,18.4710449 41.0003949,15.2628262 L41,22 C41,26.9705627 36.9705627,31 32,31 C27.0294373,31 23,26.9705627 23,22 L23.0005997,15.2622903 C17.0465619,18.4703442 13,24.7626095 13,32 C13,33.7302172 13.2312722,35.406418 13.6645896,36.9993752 L39.792,36.999 L38.792,38.999 L14.3307127,38.9992185 C16.144049,43.5730691 19.6819616,47.2754503 24.1421709,49.3040822 C24.7371946,51.9904363 27.1339179,54 30,54 L31.292,54 L32.2909375,55.9982475 C26.0521895,56.0734099 19.7897228,53.7308483 15.0294373,48.9705627 C14.486814,48.4279395 14.3211711,47.6510907 14.5325086,46.9654666 C11.0842042,42.9426796 9,37.7147358 9,32 C9,26.2852642 11.0842042,21.0573204 14.5339545,17.0348266 C14.3211711,16.3489093 14.486814,15.5720605 15.0294373,15.0294373 C24.4020203,5.65685425 39.5979797,5.65685425 48.9705627,15.0294373 Z M44.2111456,37.1055728 C44.9481942,35.6314757 47.0518058,35.6314757 47.7888544,37.1055728 L52.236,46 L56,46 C57.1045695,46 58,46.8954305 58,48 C58,49.1045695 57.1045695,50 56,50 L51,50 L50.8387695,49.9935139 C50.1453284,49.9375832 49.5257308,49.5235975 49.2111456,48.8944272 L46,42.471 L39.7888544,54.8944272 L39.7078453,55.0416616 C38.9083541,56.3667715 36.9227787,56.3176933 36.2111456,54.8944272 L33.765,50 L30,50 C28.8954305,50 28,49.1045695 28,48 C28,46.8954305 28.8954305,46 30,46 L35,46 L35.1612305,46.0064861 C35.8546716,46.0624168 36.4742692,46.4764025 36.7888544,47.1055728 L38.001,49.528 L44.2111456,37.1055728 Z M32,16 C28.6862915,16 26,18.6862915 26,22 C26,25.3137085 28.6862915,28 32,28 C35.3137085,28 38,25.3137085 38,22 C38,18.6862915 35.3137085,16 32,16 Z M32,19 C33.6568542,19 35,20.3431458 35,22 C35,23.6568542 33.6568542,25 32,25 C30.3431458,25 29,23.6568542 29,22 C29,20.3431458 30.3431458,19 32,19 Z" id="Shape" fill="#000000" fill-rule="nonzero"></path>
    </g>
</svg>