<svg height="565pt" viewBox="-18 -128 565.3388 565" width="565pt" xmlns="http://www.w3.org/2000/svg"><path d="m523.375 85.109375c-4.6875-1.171875-9.433594 1.679687-10.609375 6.367187l-10.957031 43.828126c-18.328125 1.300781-28.839844 7.632812-38.214844 13.308593-9.78125 5.921875-18.226562 11.035157-36.097656 11.035157s-26.3125-5.113282-36.09375-11.035157c-10.5-6.359375-22.402344-13.5625-45.15625-13.5625s-34.652344 7.203125-45.15625 13.5625c-9.773438 5.921875-18.222656 11.035157-36.09375 11.035157-17.867188 0-26.3125-5.113282-36.089844-11.035157-10.5-6.359375-22.402344-13.5625-45.15625-13.5625s-34.652344 7.203125-45.15625 13.5625c-9.773438 5.921875-18.222656 11.035157-36.085938 11.035157-17.871093 0-26.316406-5.113282-36.09375-11.035157-8.878906-5.371093-18.785156-11.339843-35.378906-13.058593l-13.929687-44.566407c-1.441407-4.613281-6.351563-7.1875-10.960938-5.742187-4.613281 1.441406-7.1875 6.347656-5.742187 10.964844l57.015625 182.578124c4.351562 14.140626 17.414062 23.796876 32.207031 23.800782h362.109375c15.511719-.03125 29.011719-10.625 32.738281-25.683594l45.269532-181.125c1.171874-4.703125-1.671876-9.46875-6.367188-10.671875zm-55.875 187.550781c-1.785156 7.265625-8.285156 12.386719-15.765625 12.429688h-362.109375c-7.132812-.027344-13.421875-4.695313-15.507812-11.523438l-37.25-119.28125c8.246093 1.976563 14.085937 5.460938 20.476562 9.332032 10.503906 6.351562 22.402344 13.542968 45.15625 13.542968s34.660156-7.210937 45.15625-13.566406c9.777344-5.925781 18.222656-11.035156 36.089844-11.035156 17.871094 0 26.3125 5.105468 36.09375 11.027344 10.5 6.355468 22.402344 13.5625 45.15625 13.5625s34.652344-7.207032 45.15625-13.566407c9.773437-5.917969 18.222656-11.03125 36.09375-11.03125 17.867187 0 26.3125 5.113281 36.089844 11.03125 10.5 6.359375 22.402343 13.566407 45.15625 13.566407 22.757812 0 34.65625-7.207032 45.160156-13.566407 7.410156-4.488281 14.066406-8.441406 24.625-10.121093zm0 0"/><path d="m312.914062-7.160156c-3.101562 0-5.972656 1.652344-7.546874 4.332031l-24.339844 41.546875c-9.097656 15.527344-5.6875 35.347656 8.074218 46.945312 13.761719 11.59375 33.871094 11.59375 47.632813 0 13.765625-11.597656 17.171875-31.417968 8.074219-46.945312l-24.339844-41.554688c-1.570312-2.675781-4.449219-4.324218-7.554688-4.324218zm13.765626 78.324218c-7.601563 7.605469-19.921876 7.605469-27.523438 0-6.253906-6.257812-7.5-15.957031-3.027344-23.59375l16.792969-28.664062 16.789063 28.664062c4.46875 7.636719 3.222656 17.332032-3.03125 23.589844zm0 0"/><path d="m408.75-7.160156c-3.105469 0-5.980469 1.652344-7.546875 4.332031l-24.34375 41.546875c-8.496094 14.507812-6.132813 32.925781 5.753906 44.816406 13.148438 13.148438 34.019531 14.484375 48.730469 3.117188 14.714844-11.367188 18.699219-31.894532 9.300781-47.933594l-24.34375-41.554688c-1.570312-2.675781-4.445312-4.324218-7.550781-4.324218zm13.765625 78.324218c-7.609375 7.589844-19.921875 7.589844-27.523437 0-6.261719-6.257812-7.507813-15.957031-3.035157-23.59375l16.792969-28.675781 16.792969 28.671875c4.472656 7.636719 3.226562 17.335938-3.027344 23.59375zm0 0"/><path d="m217.085938-7.160156c-3.105469 0-5.980469 1.652344-7.546876 4.332031l-24.347656 41.546875c-9.089844 15.527344-5.683594 35.347656 8.078125 46.945312 13.757813 11.59375 33.871094 11.59375 47.636719 0 13.757812-11.597656 17.167969-31.417968 8.070312-46.945312l-24.339843-41.554688c-1.574219-2.675781-4.445313-4.324218-7.550781-4.324218zm13.761718 78.324218c-7.597656 7.605469-19.921875 7.605469-27.519531 0-6.261719-6.257812-7.507813-15.957031-3.035156-23.59375l16.792969-28.664062 16.792968 28.65625c4.472656 7.640625 3.226563 17.339844-3.03125 23.597656zm0 0"/><path d="m128.800781-2.835938c-1.566406-2.683593-4.445312-4.328124-7.550781-4.328124s-5.980469 1.644531-7.546875 4.328124l-24.339844 41.554688c-8.503906 14.507812-6.140625 32.921875 5.746094 44.816406 13.144531 13.164063 34.023437 14.503906 48.746094 3.132813 14.71875-11.367188 18.699219-31.902344 9.289062-47.949219zm6.214844 74c-7.605469 7.585938-19.921875 7.585938-27.523437 0-6.261719-6.261718-7.503907-15.960937-3.03125-23.597656l16.789062-28.671875 16.792969 28.671875c4.472656 7.636719 3.226562 17.335938-3.027344 23.59375zm0 0"/></svg>