<?xml version="1.0" encoding="UTF-8"?>
<svg width="64px" height="64px" viewBox="0 0 64 64" version="1.1" xmlns="http://www.w3.org/2000/svg" xmlns:xlink="http://www.w3.org/1999/xlink">
    <title>wash_mop</title>
    <g id="wash_mop" stroke="none" stroke-width="1" fill="none" fill-rule="evenodd">
        <path d="M49,32 C52.3138433,32 58,41.0223552 58,46.9166667 C58,51.9279896 53.9758956,56 49,56 C44.0241044,56 40,51.9279896 40,46.9166667 C40,41.0223552 45.6861567,32 49,32 Z M49,36.342 L48.900358,36.4393912 L48.7635295,36.5796483 C48.1048219,37.2689782 47.3570216,38.2450601 46.6687308,39.3371869 C45.0227674,41.9488749 44,44.7231366 44,46.9166667 C44,49.7293777 46.2439091,52 49,52 C51.7560909,52 54,49.7293777 54,46.9166667 C54,44.7231366 52.9772326,41.9488749 51.3312692,39.3371869 C50.7194552,38.3664076 50.0606213,37.4873179 49.4591356,36.8198112 L49.1672461,36.507947 L49,36.342 Z M11.9824558,16.7356726 L15.5196098,43.2643274 C15.6520914,44.2579395 16.4996603,45 17.5020656,45 L37.1233152,45.0003212 C37.0421354,45.6439888 37,46.2836856 37,46.9166667 C37,47.626928 37.0609474,48.323119 37.1778968,49.0001634 L17.5020656,49.0001634 C14.4948499,49.0001634 11.952143,46.7738184 11.5546982,43.7929823 L8.0175442,17.2643274 C7.87156018,16.1694473 8.64079245,15.1635282 9.73567256,15.0175442 C10.8305527,14.8715602 11.8364718,15.6407925 11.9824558,16.7356726 Z M36.7270316,21.8499355 L38.1819789,22.4734844 C40.1943693,23.3359374 42.4722974,23.3359374 44.4846877,22.4734844 L45.2121614,22.1617099 C46.227421,21.7265987 47.4031788,22.1969018 47.8382901,23.2121614 C47.949127,23.470781 48.0012129,23.7398151 48.0005526,24.0043685 L47.9932307,24.1656654 C47.9789613,24.3605338 47.9438301,24.6561169 47.8878374,25.0524144 L47.4510353,29.2075767 C44.9335979,29.897915 42.8524666,32.2636874 40.7467039,35.6049494 C39.2483641,37.9823995 38.1056248,40.4999573 37.4953403,43.0005615 L18.9002617,43 C18.3885031,43 17.9593296,42.6136315 17.9057563,42.1046848 L16.1162826,25.1046848 L16.0440829,24.5265318 C16.0202191,24.3221821 15.9994709,24.1165429 15.9994709,24.0028561 C15.9989682,23.7388808 16.0510654,23.4703319 16.1617099,23.2121614 C16.5968212,22.1969018 17.772579,21.7265987 18.7878386,22.1617099 L19.5153123,22.4734844 C21.5277026,23.3359374 23.8056307,23.3359374 25.8180211,22.4734844 L27.2729684,21.8499355 C30.291554,20.556256 33.708446,20.556256 36.7270316,21.8499355 Z M54.2643274,15.0175442 C55.3592075,15.1635282 56.1284398,16.1694473 55.9824558,17.2643274 L54.09121,31.4479123 C52.9277603,30.2786357 51.7071386,29.4809678 50.3606242,29.1592624 L52.0175442,16.7356726 C52.1635282,15.6407925 53.1694473,14.8715602 54.2643274,15.0175442 Z" id="Shape" fill="#000000" fill-rule="nonzero"></path>
    </g>
</svg>