<?xml version="1.0" encoding="UTF-8"?>
<svg id="Layer_1" data-name="Layer 1" xmlns="http://www.w3.org/2000/svg" width="960" height="960" viewBox="0 0 960 960">
  <defs>
    <style>
      .cls-1 {
        stroke-width: 40px;
      }

      .cls-1, .cls-2 {
        fill: none;
        stroke: #000;
        stroke-linecap: round;
        stroke-linejoin: round;
      }

      .cls-2 {
        stroke-width: 20px;
      }
    </style>
  </defs>
  <path class="cls-2" d="m442.683,928.889c-5.403,0-10.869-.249-16.248-.738l-17.37-1.582c-2.227-.203-4.038-2.33-4.038-4.743V303.984c0-2.27,1.689-4.08,4.016-4.305l42.701-4.119c3.797-.366,7.658-.552,11.472-.552,12.182,0,24.245,1.852,35.856,5.505l.406.128c1.923.605,3.166,2.23,3.166,4.14v610.287c0,1.973-1.318,3.96-3,4.525-18.383,6.169-37.547,9.297-56.96,9.297Z"/>
  <path class="cls-2" d="m418.31,288.224v-62.74c0-7.436,4.738-14.045,11.781-16.432l8.274-2.805c13.584-4.605,28.415-3.834,41.448,2.155h0c6.159,2.83,10.107,8.988,10.107,15.766v63.14"/>
  <polyline class="cls-2" points="508.572 294.557 571.482 296.837 571.482 471.611 512.662 472.702"/>
  <line class="cls-1" x1="454.115" y1="203.323" x2="454.115" y2="126.753"/>
  <path class="cls-1" d="m571.479,296.837v174.774l-58.817,1.086v442.373c0,6.371-4.061,12.035-10.105,14.082-24.694,8.365-50.864,11.456-76.823,9.061l-17.215-1.582c-7.658-.696-13.512-7.12-13.512-14.81V303.989c0-7.658,5.812-14.071,13.439-14.81l9.863-.96v-62.731c0-7.437,4.736-14.05,11.782-16.434l8.27-2.806c5.126-1.741,10.443-2.711,15.759-2.932,8.766-.348,17.584,1.35,25.696,5.084,3.08,1.413,5.601,3.66,7.363,6.403,1.761,2.743,2.743,5.981,2.743,9.367v63.131c3.998.865,7.964,1.909,11.877,3.154.253.074.39.116.39.116,2.51.791,4.683,2.183,6.382,3.987l62.91,2.278Z"/>
  <polygon class="cls-1" points="412.188 21 527.28 37.539 527.28 132.829 412.188 120.143 412.188 21"/>
  <polyline class="cls-1" points="412.188 21 388.518 34.445 388.518 132.829 415.075 120.302"/>
  <polyline class="cls-1" points="388.518 132.829 495.664 144.523 527.28 132.829"/>
</svg>