<svg height="960" viewBox="0 0 960 960" width="960" xmlns="http://www.w3.org/2000/svg"><path d="m850.553884 263.7231c3.150061 1.437427 7.711672 3.432193 14.542519 6.369053.661159.284259 2.021286.867457 3.74519 1.606298l.944799.404904c1.516823.650022 3.240244 1.38845 4.983051 2.135254l.876448.37557c1.964166.841689 3.91315 1.676998 5.579536 2.391606l.650848.279135c1.269018.544311 2.334353 1.001619 3.059087 1.313389.706767.304042 1.396525.601047 2.072665.89249 15.032676 6.479671 25.224929 11.027841 32.662016 14.682564 1.44384.70953 6.938035 3.357212 8.271812 4.019039 4.088611 2.02879 7.062211 3.680348 10.297419 5.950236 9.361662 6.568336 16.124607 15.663166 19.218696 27.176822 1.746241 6.498069 1.980327 10.540958 1.980327 19.208107l-.000246.172196c-.004496 1.791341-.069814 9.370439-.141327 17.257979l-.007824.861419-.015469 1.695166c-.079188 8.652255-.15874 16.964624-.166629 17.712233l-.013914 1.5433c-.135197 15.365051-.22851 29.008269-.277192 42.000817-.022875 6.105171-.034975 11.913026-.035816 17.403935l.000109 1.723412c.006297 22.266807.203183 39.157227.624012 49.313046.40991 9.892328.598881 14.993117.606134 19.302633l.000217.799738c0 .628652 0 1.245328-.014218 1.863194l-.007918.530198c-.010219.61962-.023852 1.244193-.040707 1.886883-.278514 10.619636-1.654263 19.287994-5.453827 28.065734-5.135728 11.864546-13.824928 20.937455-25.111306 26.929545-7.401546 3.929581-15.000304 6.241094-25.127474 8.323755-17.329405 3.563808-68.48606 12.705505-154.469783 27.616949-1.813117.314434-3.645771.503376-5.484903.565479-73.281137 2.474551-139.929475 8.632448-199.916595 18.441261-59.813279 9.780387-120.272867 24.379503-181.387016 43.811142-1.98954.632587-4.025551 1.108446-6.089372 1.423216-89.705099 13.68163-147.501695 22.112446-173.895287 25.356768-23.220925 2.854336-47.24621 2.45344-68.140424-1.254292-26.277991-4.663096-47.6048016-14.132575-61.2886349-31.278496-8.2598277-10.349611-22.8767091-27.487875-43.64409969-51.14614-6.40619667-7.297956-9.93878741-16.677149-9.93878741-26.387943v-194.507079c0-12.944447 5.01653611-24.391609 13.1133785-33.451407 5.5130901-6.168761 12.1760274-10.961589 19.7484615-14.816725 11.4504168-5.829422 25.4338996-9.646168 40.4647017-11.449024 6.313862-.757311 275.2892133-33.884866 334.4519163-41.163215.674357-.082961.674357-.082961 1.348718-.165922 199.095662-24.492912 317.387517-38.968399 334.861339-40.921578 50.983001-5.698749 83.618762-5.333579 106.565369 5.137356zm-810.553884 161.906572v169.431022c1.0145577 1.155787 2.0148457 2.296463 3.0008639 3.422028l-.0008639-1.686051c0-7.885356 6.392344-14.2777 14.2777-14.2777 3.5990604 0 7.0653488 1.359232 9.7050972 3.805651l5.3145842 4.925355c10.0119932 9.278735 15.7026186 22.311248 15.7026186 35.961704v21.788319c0 .61178-.0549372 1.210729-.1601473 1.792182 15.6291993 14.058027 54.0792413 19.085493 90.2919893 14.634192 25.339955-3.114809 81.120729-11.239763 167.342322-24.374863-.307963-.962144-.474164-1.987418-.474164-3.051511l-.00178-195.373219c-84.411269 12.092382-139.933657 19.377909-166.913651 21.890531-21.206298 1.974922-43.333707 1.949982-62.254094.090709-21.0228777-2.06588-36.2999913-5.893928-45.0660995-13.199356-2.399188-1.999415-4.5694588-3.818132-7.1814414-6.015749-.0368769-.031027-.0491693-.04137-.0696537-.058605l-.0173209-.014595c-.0078802-.00661-.0151038-.012688-.023647-.019877-.2516094-.212165-2.1391383-1.801969-4.2168418-3.55112l-.4821862-.405923c-.0807071-.06794-.1615305-.135977-.2423879-.204041l-.4848913-.408154c-1.5325988-1.289999-3.0178925-2.539644-3.8902023-3.272221-4.1740589-3.505431-8.5571115-7.169282-13.9115378-11.624388zm492.346321 19.213981c-53.307627 7.968666-109.090568 20.720671-167.346046 38.261701l.000226 152.711981c58.14939-17.828467 115.792133-31.414014 172.928231-40.756641 59.017488-9.650263 124.04528-15.844748 195.083376-18.583456-.008353-.158233-.012108-.317297-.012108-.477238l-.000647-147.672771c-79.983414 2.967948-146.880313 8.478234-200.653032 16.516424zm-469.346321 166.080347v6.085072c0 1.302927-.2491814 2.547654-.7024887 3.689126 1.9952661 2.321918 3.8964292 4.54398 5.703728 6.666645l-.0012393-.153162c0-5.819266-1.7466808-11.448861-4.9374409-16.195775zm387.811528-79.176998c10.453674.565033 18.470001 9.497461 17.904968 19.951135l-.693852 12.836935c-.469114 8.679059-6.780756 15.927054-15.312954 17.58468l-22.93096 4.455003c-1.498502.291127-3.026684.400178-4.55134.324781-10.456156-.517073-18.513375-9.412632-17.996303-19.868789l.663769-13.422615c.439626-8.890037 7.005461-16.27679 15.782607-17.755887l22.961043-3.869322c1.378058-.232226 2.777571-.311347 4.173022-.235921zm468.526309-168.102164-.382003.149615c-4.678549 1.795364-10.296477 3.070696-17.138065 4.05204-24.050409 3.449743-73.660535 10.649386-148.815488 21.596791l-.001813 184.930473c79.399393-13.790212 127.131732-22.337239 143.197018-25.641079 25.098126-5.161451 24.722087-11.118043 23.240811-46.865542-.474008-11.4392-.644651-29.685846-.657544-49.649763l-.000604-3.762116c.001548-4.989276.012203-10.064258.029755-15.147774l.014423-3.813032c.10445-25.447425.367961-50.625186.51351-65.849613zm-470.206723 183.129532-22.961043 3.869322c-1.831619.308659-3.201781 1.85013-3.293522 3.705307l-.663769 13.422616c-.107903 2.181996 1.573481 4.038325 3.755477 4.146228.318166.015734.637068-.007022.949776-.067775l22.93096-4.455003c1.780503-.345914 3.09762-1.858429 3.195515-3.669579l.693851-12.836935c.117912-2.181478-1.554939-4.045501-3.736417-4.163413-.291203-.01574-.583254.000771-.870828.049232zm83.828886-76.27437c.166583 0 .33312.00555.499334.016641l1.374746.091731c.166671.011121.332924.027808.498481.050031 3.234173.43414 14.352557 5.883032 18.046673 8.094171 6.198366 3.710076 10.120766 10.553575 10.120766 17.8996 0 9.16807-6.107178 17.130138-14.807544 19.622051-.444868.127416-2.253769.428142-4.500481.768688 3.642504 1.691891 7.341555 3.604902 9.187259 4.709661.779339.466478 1.522697.982493 2.226803 1.542813.301087-.932643.664314-1.891576 1.086093-2.879982l.267138-.614447c2.757135-6.165707 8.830901-10.150748 15.540335-10.296811l.366584-.004157.367747.003532.137628.004022.374515.014388.140174.006699 6.187474.353748c10.675307.610318 19.113913 9.253824 19.417867 19.89681l.002294.107139.005351.375152.000763.106967c0 9.390151-6.90114 17.351387-16.207914 18.739646l-8.039687 1.198908c-4.793496.716203-9.478185-.590589-13.112418-3.330219-2.263732 5.87376-7.183532 10.503343-13.447525 12.297443-.614737.176069-3.834068.683069-7.214068 1.168774l-.781739.111547c-3.520652.498819-7.011835.945454-7.736649.945454-6.130202 0-11.432632-3.017694-15.102595-7.737728-3.016134 4.961203-8.3568 8.507094-14.645389 9.359864l-8.844044 1.198961c-8.866595 1.204337-17.527991-3.774699-20.241325-12.054695-1.152785-3.517784-1.722873-6.538438-1.613514-9.243586.112116-2.773345.954666-5.67145 2.447922-8.852653l.295546-.617943c2.998102-6.095068 9.379332-9.906417 16.313525-10.048125l.37876-.004094.379755.003259.125145.003325.411967.014388.127507.00554 6.806222.353749c5.336997.277383 10.19816 2.341836 13.866624 5.591425 1.742642-5.821033 5.342751-10.693465 10.098862-13.472305-6.821485-3.984335-11.264968-12.276621-11.264968-21.499382 0-12.911865 8.709226-24 20.46-24zm-40.937 68-.188921.001938c-1.463049.042186-2.671042.762936-3.079158 1.591502l-.23605.494138c-.69134 1.472992-.997103 2.52472-1.01798 3.041137-.025008.618604.236043 2.001803.879912 3.966603.381263 1.16346 2.050114 2.122805 3.970187 1.862005l8.845669-1.199182c2.533033-.343494 4.193606-2.010386 4.298103-3.718765l.004238-.139376-.001188-.171208c-.082438-2.624144-2.629772-5.056784-6.212882-5.351061l-.264006-.017688-6.770924-.352043zm169.90643-41.815213c10.453127.575058 18.460884 9.515169 17.885826 19.968296l-.693115 12.599117c-.537758 9.775102-8.43086 17.532655-18.21381 17.901022l-23.125033.870751c-.555257.020907-1.111165.01739-1.666113-.010541-10.455698-.526251-18.505106-9.42888-17.978855-19.884578l.663022-13.173108c.50292-9.992138 8.684832-17.87305 18.688798-18.001262l23.155126-.29676c.428234-.005488.856531.003538 1.284154.027063zm-129.13843 31.820213-.140116.012563c-2.482342.279958-5.150884 3.881447-5.150884 8.982437s2.668542 8.702479 5.150884 8.982437l.097116.007563.029083-.002279.115079-.013297c.362113-.042419.869584-.106716 1.494015-.189294.976917-.129194 2.209803-.299118 3.544098-.487998l.902857-.128489c1.606528-.229817 3.195149-.463328 4.408469-.648011.609256-.092736 1.10679-.170568 1.45812-.228086.040149-.006573.077887-.0128.11304-.018647l.009239-.002899.179349-.063099c2.006292-.763798 3.39989-2.653106 3.493614-4.822283l.005037-.233444c0-2.044244-1.129092-4.014197-2.824543-5.02902-.364915-.218423-2.392139-1.276662-4.543889-2.360252l-.518023-.260132-.518081-.258602c-.344357-.171337-.685603-.339986-1.01744-.502612-1.759744-.862415-3.320768-1.59439-4.542152-2.124906-.544171-.236364-1.003321-.424921-1.354889-.557678l-.091983-.0343zm40.121-4.005-.162982.003585c-.915343.04891-1.727017.594348-2.062988 1.344613l-.215464.496166c-.651127 1.526045-.946749 2.644577-.969251 3.256849-.026154.711647.222819 2.162773.826255 4.18833.338076 1.134839 1.491166 1.863982 2.710349 1.681823l8.041465-1.199174c1.907842-.284586 3.320354-1.847997 3.4155-3.703831l.004116-.183361-.003-.202-.009253-.199076c-.185709-2.668387-2.310392-4.843231-5.040327-5.108356l-.228868-.017643-6.148552-.351925zm87.925502-12.843508-23.155126.29676c-2.087632.026756-3.795038 1.671348-3.899987 3.756512l-.663022 13.173108c-.109818 2.1819 1.569936 4.039705 3.751836 4.149523.115807.005829.231814.006563.347685.0022l23.125033-.87075c2.041511-.076871 3.688647-1.695721 3.800867-3.735594l.693115-12.599117c.120003-2.181364-1.551059-4.046991-3.732423-4.166994-.089236-.004909-.178614-.006793-.267978-.005648zm-128.046502-26.151492-.140116.012563c-2.482342.279958-5.150884 3.881447-5.150884 8.982437s2.668542 8.702479 5.150884 8.982437l.097116.007563.029083-.002279.115079-.013297c.362113-.042419.869584-.106716 1.494015-.189294.976917-.129194 2.209803-.299118 3.544098-.487998l.902857-.128489c1.606528-.229817 3.195149-.463328 4.408469-.648011.609256-.092736 1.10679-.170568 1.45812-.228086.040149-.006573.077887-.0128.11304-.018647l.009239-.002899.179349-.063099c2.006292-.763798 3.39989-2.653106 3.493614-4.822283l.005037-.233444c0-2.044244-1.129092-4.014197-2.824543-5.02902-.364915-.218423-2.392139-1.276662-4.543889-2.360252l-.518023-.260132-.518081-.258602c-.344357-.171337-.685603-.339986-1.01744-.502612-1.759744-.862415-3.320768-1.59439-4.542152-2.124906-.544171-.236364-1.003321-.424921-1.354889-.557678l-.091983-.0343zm1.236304-79.175876c-53.438415 7.030585-109.782819 17.916196-169.026995 32.663515l-.000099 23.238821c57.072196-16.925817 111.867782-29.316877 164.389274-37.168027 54.752262-8.184617 122.6095-13.763054 203.609738-16.74988l.001083-17.161524c-79.496406 3.121157-145.842504 8.18702-198.973001 15.177095zm214.404636-107.990946c-19.280155 2.155086-169.561018 20.591132-323.009564 39.466128l-19.188319 2.360515c-159.886029 19.670909-317.4297253 39.101872-328.1438937 40.386974-18.3323391 2.198856-33.1760122 8.278518-37.0825982 15.974999.1895356 2.998765 3.5745967 6.898872 12.0286659 13.933011 11.601423 9.652869 17.3140175 14.487625 22.8765079 19.169592l.5380296.452773c2.2414427 1.885872 4.4885787 3.771372 7.1176439 5.96236 9.3594724 7.799921 51.0013426 12.438732 92.6616006 8.558952 27.773504-2.58652 87.039243-10.412722 177.797216-23.478605 62.202201-15.707937 121.332625-27.249563 177.391271-34.624877s126.37327-12.614593 210.943872-15.717834c79.522457-11.585479 131.72769-19.163163 156.615701-22.73305 14.22397-2.040258 20.188764-5.316141 17.894381-9.827647-2.298586-2.334235-6.64212-4.118046-14.844077-8.14864-16.772199-8.242171-53.306809-23.218122-68.080031-29.959399s-45.349415-6.265015-85.516406-1.775252zm-538.267276 96.783544c6.258615 1.309027 11.430573 3.027322 15.31652 5.182766 5.248824 2.9114 8.649099 6.860243 8.925624 12.136667.276526 5.276424-2.692355 9.559061-7.608101 13.003163-3.639354 2.549828-8.60337 4.799327-14.690869 6.755387-11.765579 3.780564-27.527618 6.385001-44.377943 7.268089s-32.798255-.059499-44.894559-2.589516c-6.258615-1.309027-11.430573-3.027322-15.31652-5.182766-5.248824-2.9114-8.6490987-6.860243-8.9256244-12.136667-.2765256-5.276424 2.6923554-9.559061 7.6081014-13.003163 3.639354-2.549828 8.60337-4.799327 14.690869-6.755387 11.765579-3.780564 27.527618-6.385001 44.377943-7.268089s32.798255.059499 44.894559 2.589516zm-44.10952 12.389927c-15.633242.819303-30.137271 3.215873-40.574197 6.569509-4.597348 1.477239-8.167193 3.072505-10.418639 4.585219l-.046308.031295.049377.02726c2.305032 1.220276 5.8303 2.389045 10.299974 3.356l.540876.115057c10.730302 2.244308 25.405386 3.111666 41.038629 2.292362 15.633242-.819303 30.137271-3.215873 40.574197-6.569509 4.774169-1.534056 8.440276-3.195393 10.672554-4.759386l-.208312.141417-.048672-.025805c-2.305032-1.220276-5.8303-2.389045-10.299974-3.356l-.540876-.115057c-10.730302-2.244308-25.405386-3.111666-41.038629-2.292362zm673.091915-87.511649c9.201649 0 17.890706 1.096101 24.524066 3.074471 3.571447 1.065168 6.556733 2.383058 8.859629 4.006903 3.323847 2.343751 5.469246 5.470647 5.469246 9.418626s-2.145399 7.074875-5.469246 9.418626c-2.302896 1.623845-5.288182 2.941735-8.859629 4.006903-6.63336 1.97837-15.322417 3.074471-24.524066 3.074471-9.20165 0-17.890707-1.096101-24.524067-3.074471-3.571446-1.065168-6.556733-2.383058-8.859629-4.006903-3.323847-2.343751-5.469245-5.470647-5.469245-9.418626s2.145398-7.074875 5.469245-9.418626c2.302896-1.623845 5.288183-2.941735 8.859629-4.006903 6.63336-1.97837 15.322417-3.074471 24.524067-3.074471zm0 14c-7.924254 0-15.286089.928675-20.522795 2.4905l-.031146.0095.031146.0095c5.073059 1.513018 12.140502 2.431839 19.781591 2.487788l.741204.002712c7.924253 0 15.286089-.928675 20.522795-2.4905l.030264-.0095-.030264-.0095c-5.073059-1.513018-12.140502-2.431839-19.781592-2.487788z"/></svg>