<?xml version="1.0" encoding="UTF-8"?>
<svg width="960px" height="960px" viewBox="0 0 960 960" version="1.1" xmlns="http://www.w3.org/2000/svg" xmlns:xlink="http://www.w3.org/1999/xlink">
    <title>Artboard</title>
    <g id="Artboard" stroke="none" stroke-width="1" fill="none" fill-rule="evenodd">
        <g id="icon" transform="translate(21, 150)">
            <path d="M462.224,303.896 C341.561,303.896 228.264,287.764 143.202,258.472 C103.108,244.665 71.618,228.723 49.607,211.088 C27.607,193.462 16.453,175.247 16.453,156.949 C16.453,138.651 27.607,120.435 49.607,102.809 C71.616,85.175 103.106,69.233 143.202,55.425 C228.264,26.133 341.561,10.001 462.224,10.001 C582.887,10.001 696.185,26.133 781.247,55.425 C821.343,69.233 852.833,85.175 874.842,102.809 C896.842,120.435 907.996,138.65 907.996,156.949 C907.996,175.248 896.842,193.463 874.843,211.087 C852.832,228.723 821.342,244.665 781.248,258.472 C696.186,287.764 582.888,303.896 462.225,303.896 L462.224,303.896 Z" id="Path" stroke="#000000" stroke-width="20" stroke-linecap="round" stroke-linejoin="round"></path>
            <path d="M462.224,274.107 C347.272,274.107 239.758,258.559 159.487,230.328 C123.441,217.65 95.576,203.378 76.667,187.906 C62.781,176.542 55.134,165.549 55.134,156.95 C55.134,148.351 62.781,137.357 76.668,125.994 C95.574,110.523 123.439,96.25 159.487,83.571 C239.757,55.34 347.271,39.792 462.224,39.792 C577.177,39.792 684.691,55.34 764.961,83.571 C801.009,96.25 828.874,110.523 847.781,125.994 C861.667,137.356 869.314,148.35 869.314,156.95 C869.314,165.55 861.667,176.543 847.78,187.906 C828.871,203.378 801.007,217.65 764.961,230.328 C684.69,258.559 577.176,274.107 462.224,274.107 L462.224,274.107 Z" id="Path" stroke="#000000" stroke-width="20" stroke-linecap="round" stroke-linejoin="round"></path>
            <path d="M6.448,156.946 L6.448,389.527 C6.448,498.818 210.51,587.414 462.223,587.414 C713.936,587.414 917.998,498.818 917.998,389.527 L917.998,149.866" id="Path" stroke="#000000" stroke-width="20" stroke-linecap="round" stroke-linejoin="round"></path>
            <ellipse id="Oval" stroke="#000000" stroke-width="20" stroke-linecap="round" stroke-linejoin="round" cx="518.224" cy="121.86" rx="99.513" ry="42.667"></ellipse>
            <path d="M611.245,137.043 C621.487,143.54 627.402,151.191 627.402,159.387 C627.402,182.959 578.522,202.054 518.223,202.054 C457.924,202.054 409.044,182.958 409.044,159.387 C409.044,151.191 414.959,143.54 425.213,137.043" id="Path" stroke="#000000" stroke-width="20" stroke-linecap="round" stroke-linejoin="round"></path>
            <line x1="581.908" y1="194.044" x2="581.908" y2="154.65" id="Path" stroke="#000000" stroke-width="20" stroke-linecap="round" stroke-linejoin="round"></line>
            <line x1="449.975" y1="192.692" x2="449.975" y2="152.914" id="Path" stroke="#000000" stroke-width="20" stroke-linecap="round" stroke-linejoin="round"></line>
            <polyline id="Path" stroke="#000000" stroke-width="20" stroke-linecap="round" stroke-linejoin="round" points="783.378 56.17 723.288 70.7 723.278 70.7"></polyline>
            <polyline id="Path" stroke="#000000" stroke-width="20" stroke-linecap="round" stroke-linejoin="round" points="123.208 215.78 73.968 227.68 73.968 227.69 73.968 493.2"></polyline>
            <path d="M271.934,569.386 C285.468,590.795 297.126,606.722 306.907,617.148 C316.906,627.822 333.598,641.982 356.993,659.637 M127.517,655.387 C149.134,639.619 164.754,625.3 174.356,612.411 C183.511,600.128 193.798,580.308 205.208,552.962 M0,526.301 C14.497,534.87 35.807,538.822 63.948,538.187 C90.868,537.571 113.021,533.232 130.398,525.169" id="Shape" stroke="#000000" stroke-width="40" stroke-linecap="round" stroke-linejoin="round"></path>
            <path d="M803.267922,413.14737 C786.450922,424.18237 759.730468,434.43837 737.334468,443.82037 C710.422468,455.09337 680.593468,464.69537 648.560468,472.50637 C617.600468,480.05537 587.711468,456.76637 587.711468,424.89937 C587.711468,404.55937 602.632468,387.34437 622.748468,384.33537 C677.369468,376.16537 734.622049,352.274289 778.002049,337.337289 C779.021049,336.986289 780.035049,336.634289 781.044049,336.281289 C801.196049,329.220289 820.508156,354.28937 820.508156,375.64137 C820.508156,389.88737 815.178922,405.33137 803.267922,413.14737 Z" id="Path" stroke="#000000" stroke-width="20" stroke-linecap="round" stroke-linejoin="round" transform="translate(704.1098, 404.5005) rotate(2) translate(-704.1098, -404.5005)"></path>
            <g id="Group-7" transform="translate(617.594, 220.8295) rotate(4) translate(-617.594, -220.8295)translate(533.13, 188.512)" fill="#000000" fill-rule="nonzero">
                <ellipse id="Oval" cx="95.817" cy="36.607" rx="30.56" ry="16.988"></ellipse>
                <ellipse id="Oval" cx="22.504" cy="52.125" rx="22.504" ry="12.51"></ellipse>
                <ellipse id="Oval" cx="146.424" cy="12.51" rx="22.504" ry="12.51"></ellipse>
            </g>
            <path d="M917.998,156.95 L917.998,389.53 C917.998,498.82 713.938,587.41 462.218,587.41 C210.498,587.41 6.448,498.82 6.448,389.53 L6.448,156.95 C6.448,135.47 18.868,114.62 43.358,95.01 C66.268,76.65 98.758,60.15 139.948,45.97 C226.028,16.33 340.478,0 462.228,0 C583.978,0 698.418,16.33 784.498,45.97 C825.688,60.15 858.188,76.65 881.098,95.01 C905.578,114.62 917.998,135.47 917.998,156.95 Z" id="Path" stroke="#000000" stroke-width="40" stroke-linecap="round" stroke-linejoin="round"></path>
            <line x1="917.998" y1="156.95" x2="917.998" y2="149.87" id="Path" stroke="#000000" stroke-width="40" stroke-linecap="round" stroke-linejoin="round"></line>
        </g>
    </g>
</svg>