<?xml version="1.0" encoding="UTF-8"?>
<svg id="Layer_1" data-name="Layer 1" xmlns="http://www.w3.org/2000/svg" width="960" height="960" viewBox="0 0 960 960">
  <defs>
    <style>
      .cls-1 {
        stroke-width: 20px;
      }

      .cls-1, .cls-2 {
        fill: none;
        stroke: #000;
      }

      .cls-2 {
        stroke-width: 40px;
      }
    </style>
  </defs>
  <path class="cls-1" d="m939,374.255v211.491c0,47.977-37.884,87.394-85.823,89.297l-605.509,24.03c-1.072.045-2.134.056-3.195.056-43.455,0-78.811-35.378-78.811-78.878v-280.5c0-43.5,35.356-78.878,78.811-78.878,1.061,0,2.134.011,3.195.056l605.509,24.03c47.94,1.902,85.823,41.319,85.823,89.297Z"/>
  <path class="cls-1" d="m209.2,256.897l-152.047,79.791c-22.229,11.665-36.153,34.698-36.153,59.802v169.514c0,25.398,14.25,48.649,36.881,60.178l148.78,75.791"/>
  <polygon points="495.549 355.194 495.549 430.271 473.037 430.069 473.037 354.676 495.549 355.194"/>
  <polygon points="675.645 359.268 675.645 431.892 653.133 431.689 653.133 358.75 675.645 359.268"/>
  <path d="m605.114,602.331l-55.034,1.245c-6.315.143-11.511-4.937-11.511-11.253v-9.433c0-22.145,17.835-40.158,39.979-40.379h0c20.687-.206,37.567,16.507,37.567,37.195v11.372c0,6.117-4.886,11.115-11.001,11.253Z"/>
  <ellipse class="cls-1" cx="98.031" cy="479.434" rx="28.24" ry="72.088"/>
  <g>
    <path class="cls-2" d="m939,363.073v233.854c0,47.978-37.884,87.395-85.824,89.297l-605.061,24.008c-14.98.592-29.223-2.503-41.868-8.468l-5.172-2.636-143.188-72.946c-22.632-11.528-36.886-34.775-36.886-60.177v-169.518c0-25.101,13.919-48.136,36.149-59.798l139.591-73.259,12.333-6.468c11.931-5.127,25.168-7.741,39.042-7.194l605.061,24.008c47.94,1.902,85.824,41.319,85.824,89.297Z"/>
    <path class="cls-2" d="m201.074,699.128l5.172,2.636c-1.754-.815-3.474-1.698-5.172-2.636Z"/>
    <path class="cls-2" d="m209.073,256.962l-12.333,6.468c3.921-2.469,8.043-4.636,12.333-6.468Z"/>
    <line class="cls-2" x1="206.66" y1="701.976" x2="206.247" y2="701.764"/>
    <line class="cls-2" x1="209.196" y1="256.895" x2="209.073" y2="256.962"/>
  </g>
</svg>