<?xml version="1.0" encoding="UTF-8"?>
<svg id="Layer_1" data-name="Layer 1" xmlns="http://www.w3.org/2000/svg" width="960" height="960" viewBox="0 0 960 960">
  <defs>
    <style>
      .cls-1 {
        fill: #fff;
      }

      .cls-2 {
        stroke-width: 40px;
      }

      .cls-2, .cls-3, .cls-4 {
        fill: none;
        stroke: #000;
      }

      .cls-2, .cls-4 {
        stroke-linecap: round;
        stroke-linejoin: round;
      }

      .cls-3, .cls-4 {
        stroke-width: 20px;
      }
    </style>
  </defs>
  <path class="cls-4" d="m348.336,531.957c-48.008,0-87.066-39.058-87.066-87.065V118.072c0-48.012,38.999-87.072,86.934-87.072,2.328,0,4.692.094,7.028.28l334.838,26.604c21.894,1.74,42.158,11.583,57.06,27.716s23.109,37.114,23.109,59.076v300.215c0,48.008-39.058,87.065-87.066,87.065h-334.837Z"/>
  <ellipse class="cls-3" cx="515.755" cy="287.824" rx="186.429" ry="199.71"/>
  <ellipse cx="515.755" cy="287.824" rx="161.449" ry="172.951"/>
  <ellipse class="cls-1" cx="515.755" cy="287.824" rx="54.793" ry="58.696"/>
  <ellipse class="cls-1" cx="515.755" cy="155.828" rx="10.203" ry="10.93"/>
  <path class="cls-4" d="m352.2,541.95h-88.85c-46.17,0-83.59-37.42-83.59-83.58V140.39c0-22.11,11.77-42.55,30.9-53.64l78.08-45.3.01-.01"/>
  <path class="cls-4" d="m472.182,929c-49.852,0-106.159-2.538-150.621-6.789-52.573-5.026-72.878-10.796-80.394-13.869l156.429-242.755c.504-.783,1.36-1.25,2.288-1.25.288,0,.577.047.857.139,15.879,5.227,49.248,8.474,87.084,8.474,38.5,0,72.128-3.334,87.763-8.702.246-.084.501-.127.759-.127.844,0,1.688.45,2.204,1.174l157.232,220.857c-5.19,4.543-22.119,13.696-63.442,23.147-42.876,9.806-96.931,16.48-152.208,18.794-14.381.602-30.515.907-47.952.907Z"/>
  <path class="cls-4" d="m557.939,658.335c-4.202-18.862-25.056-34.873-51.89-39.842-5.902-1.098-12.033-1.653-18.229-1.653-8.803,0-17.411,1.119-25.584,3.325-23.639,6.38-40.7,21.007-44.524,38.17"/>
  <line class="cls-4" x1="459.63" y1="610.51" x2="459.63" y2="541.96"/>
  <line class="cls-4" x1="507.87" y1="608.66" x2="507.87" y2="541.96"/>
  <g>
    <line class="cls-2" x1="352.2" y1="541.95" x2="347.51" y2="541.95"/>
    <path class="cls-2" d="m780.24,144.68v300.21c0,53.61-43.46,97.07-97.07,97.07h-158.53v71.31c22.49,8.36,38.88,24.13,43.06,42.89,1.72-.44,3.27-.9,4.64-1.37,5.28-1.81,11.12.16,14.36,4.71l160.66,225.66c0,20.92-100.91,47.65-226.81,52.92-104.83,4.39-292.25-7.31-292.25-28.22l160.89-249.69c3.14-4.88,9.17-7.01,14.68-5.19,1.23.4,2.59.8,4.08,1.18,3.9-17.5,18.41-32.39,38.58-41.09v-73.11h-98.19c-.28,0-.56,0-.83-.01h-84.16c-46.17,0-83.59-37.42-83.59-83.58V140.39c0-22.11,11.77-42.55,30.9-53.64l78.08-45.3.01-.01c18.39-14.32,42.01-22.14,67.27-20.13l334.84,26.61c50.47,4.01,89.38,46.13,89.38,96.76Z"/>
  </g>
</svg>