<?xml version="1.0" encoding="UTF-8"?>
<svg id="Layer_1" data-name="Layer 1" xmlns="http://www.w3.org/2000/svg" width="960" height="960" viewBox="0 0 960 960">
  <defs>
    <style>
      .cls-1 {
        stroke-width: 40px;
      }

      .cls-1, .cls-2 {
        fill: none;
        stroke: #000;
        stroke-linecap: round;
        stroke-linejoin: round;
      }

      .cls-2 {
        stroke-width: 20px;
      }
    </style>
  </defs>
  <path class="cls-2" d="m398.677,929c-15.522,0-28.15-12.655-28.15-28.212V59.213c0-15.557,12.627-28.213,28.147-28.213.951,0,1.918.049,2.873.145l205.384,20.576c14.479,1.45,25.397,13.517,25.397,28.068v801.637c0,14.637-10.989,26.711-25.562,28.085l-205.384,19.361c-.899.085-1.811.128-2.706.128Z"/>
  <path d="m397.149,128.869l41.955,3.221c5.53.425,9.801,5.036,9.801,10.582v15.942c0,6.155-5.219,11.02-11.359,10.587l-41.955-2.953c-5.559-.391-9.868-5.015-9.868-10.587v-16.209c0-6.182,5.262-11.056,11.426-10.582Z"/>
  <path d="m534.494,149.243v15.399c0,6.155-5.219,11.02-11.359,10.587l-37.869-2.666c-5.559-.391-9.868-5.015-9.868-10.587v-15.637c0-6.182,5.262-11.055,11.425-10.583l37.869,2.904c5.531.424,9.802,5.036,9.802,10.583Z"/>
  <path d="m616.091,155.504v14.879c0,6.156-5.22,11.02-11.36,10.587l-33.879-2.388c-5.558-.392-9.867-5.015-9.867-10.587v-15.095c0-6.182,5.263-11.056,11.427-10.582l33.879,2.604c5.53.425,9.8,5.036,9.8,10.582Z"/>
  <path d="m396.986,203.743l41.955,2.572c5.599.343,9.964,4.984,9.964,10.594v17.95c0,6.086-5.107,10.925-11.183,10.598l-41.955-2.255c-5.632-.303-10.044-4.958-10.044-10.598v-18.267c0-6.117,5.157-10.968,11.263-10.594Z"/>
  <path d="m534.494,222.161v17.303c0,6.086-5.107,10.926-11.185,10.598l-37.869-2.04c-5.632-.303-10.043-4.958-10.043-10.598v-17.588c0-6.118,5.158-10.969,11.264-10.594l37.869,2.326c5.599.344,9.963,4.985,9.963,10.594Z"/>
  <path d="m616.091,227.162v16.686c0,6.086-5.106,10.925-11.183,10.598l-33.879-1.821c-5.632-.303-10.044-4.958-10.044-10.598v-16.941c0-6.117,5.157-10.968,11.263-10.594l33.879,2.075c5.599.343,9.965,4.984,9.965,10.594Z"/>
  <path d="m396.817,283.911l41.955,1.903c5.669.257,10.133,4.928,10.133,10.603v20.177c0,6.014-4.992,10.827-11.002,10.607l-41.955-1.536c-5.707-.209-10.225-4.896-10.225-10.607v-20.543c0-6.05,5.05-10.877,11.094-10.603Z"/>
  <path d="m534.494,300.291v19.433c0,6.014-4.992,10.827-11.002,10.607l-37.869-1.387c-5.707-.209-10.225-4.896-10.225-10.607v-19.759c0-6.05,5.05-10.876,11.094-10.603l37.869,1.714c5.669.257,10.134,4.928,10.134,10.603Z"/>
  <path d="m616.091,303.985v18.722c0,6.014-4.992,10.826-11.002,10.607l-33.879-1.24c-5.707-.209-10.225-4.896-10.225-10.607v-19.016c0-6.05,5.05-10.876,11.093-10.603l33.879,1.533c5.669.257,10.134,4.928,10.134,10.603Z"/>
  <path d="m396.607,366.918l41.955,1.071c5.754.147,10.343,4.854,10.343,10.61v25.274c0,5.919-4.841,10.694-10.76,10.613l-41.955-.578c-5.804-.08-10.467-4.808-10.467-10.613v-25.768c0-5.968,4.919-10.762,10.885-10.61Z"/>
  <path d="m534.494,380.775v24.287c0,5.919-4.842,10.694-10.76,10.613l-37.869-.524c-5.804-.08-10.467-4.808-10.467-10.613v-24.729c0-5.968,4.918-10.762,10.884-10.61l37.869.966c5.754.147,10.343,4.854,10.343,10.61Z"/>
  <path d="m616.091,382.856v23.33c0,5.919-4.842,10.695-10.761,10.613l-33.879-.47c-5.804-.08-10.467-4.808-10.467-10.613v-23.722c0-5.967,4.918-10.762,10.883-10.61l33.879.861c5.755.146,10.344,4.854,10.344,10.61Z"/>
  <path d="m396.443,457.282l41.955.423c5.82.059,10.507,4.793,10.507,10.613v22.172c0,5.862-4.752,10.614-10.614,10.614h-41.955c-5.862,0-10.614-4.752-10.614-10.614v-22.595c0-5.904,4.817-10.673,10.721-10.613Z"/>
  <path d="m534.494,469.188v21.302c0,5.862-4.752,10.614-10.614,10.614h-37.869c-5.862,0-10.614-4.752-10.614-10.614v-21.683c0-5.903,4.817-10.672,10.72-10.613l37.869.381c5.82.059,10.507,4.793,10.507,10.613Z"/>
  <path d="m616.091,470.015v20.475c0,5.862-4.752,10.614-10.614,10.614h-33.879c-5.862,0-10.614-4.752-10.614-10.614v-20.821c0-5.904,4.818-10.673,10.722-10.613l33.879.346c5.819.059,10.505,4.794,10.505,10.613Z"/>
  <path d="m395.596,814.598l41.955-2.932c6.138-.429,11.354,4.435,11.354,10.588v16.008c0,5.543-4.266,10.153-9.792,10.582l-41.955,3.256c-6.167.479-11.435-4.396-11.435-10.582v-16.333c0-5.575,4.313-10.199,9.874-10.588Z"/>
  <path d="m534.494,816.287v15.331c0,5.543-4.266,10.153-9.793,10.582l-37.869,2.938c-6.167.478-11.435-4.397-11.435-10.582v-15.63c0-5.575,4.314-10.2,9.876-10.588l37.869-2.639c6.137-.428,11.351,4.436,11.351,10.588Z"/>
  <path d="m616.091,810.588v14.694c0,5.543-4.266,10.153-9.792,10.582l-33.879,2.63c-6.167.479-11.435-4.396-11.435-10.582v-14.961c0-5.575,4.314-10.2,9.875-10.588l33.879-2.362c6.137-.428,11.352,4.436,11.352,10.588Z"/>
  <ellipse cx="414" cy="83.649" rx="28.277" ry="30.291"/>
  <path d="m504.457,531.926c-23.992,0-46.08,8.762-63.611,23.46-3.93,3.295-4.292,9.215-.774,12.947l18.753,19.893c3.075,3.262,8.118,3.754,11.717,1.081,9.762-7.252,21.614-11.498,34.403-11.498,13.09,0,25.2,4.452,35.095,12.022,3.48,2.663,8.405,2.32,11.593-.686l19.36-18.249c3.771-3.554,3.742-9.592-.109-13.06-17.959-16.169-41.129-25.91-66.427-25.91Zm-56.092,73.819l-19.12-20.28c-4.174-4.427-11.445-3.447-14.331,1.909-8.758,16.255-13.77,35.115-13.77,55.221,0,21.556,5.762,41.681,15.718,58.693,2.876,4.914,9.612,5.826,13.755,1.92l19.679-18.55c2.87-2.705,3.659-6.998,1.832-10.493-4.881-9.34-7.659-20.107-7.659-31.571,0-9.69,1.989-18.878,5.549-27.132,1.421-3.294.808-7.108-1.653-9.718Zm133.159-17.788l-19.215,18.108c-2.713,2.557-3.635,6.536-2.191,9.974,3.405,8.105,5.304,17.096,5.304,26.556,0,13.871-4.076,26.724-11.012,37.263-2.24,3.404-1.767,7.919,1.028,10.884l18.009,19.103c3.846,4.08,10.506,3.661,13.721-.933,12.939-18.482,20.603-41.44,20.603-66.317,0-18.85-4.406-36.601-12.174-52.138-2.668-5.337-9.73-6.592-14.072-2.5Zm-76.579,119.424c-11.25,0-21.773-3.288-30.788-9.015-3.436-2.183-7.91-1.766-10.873,1.026l-20.309,19.139c-3.943,3.716-3.707,10.099.557,13.441,17.078,13.389,38.141,21.291,60.925,21.291,19.605,0,37.939-5.846,53.551-16.004,4.627-3.01,5.346-9.511,1.56-13.528l-19.131-20.298c-2.655-2.817-6.843-3.626-10.317-1.917-7.66,3.77-16.186,5.864-25.174,5.864Z"/>
  <ellipse cx="504.945" cy="642.594" rx="50.985" ry="54.618"/>
  <ellipse cx="585.371" cy="96.444" rx="27.265" ry="29.208"/>
  <path class="cls-2" d="m383.688,24.079l-50.649,30.622c-9.539,5.767-15.367,16.102-15.367,27.248v796.186c0,11.092,5.772,21.384,15.236,27.168l47.194,28.845"/>
  <path class="cls-1" d="m642.33,79.79v801.64c0,19.71-15,36.19-34.62,38.04l-205.39,19.36c-8.05.76-15.71-1.03-22.22-4.68l-2.46-1.5-44.73-27.35c-9.47-5.78-15.24-16.07-15.24-27.17V81.95c0-11.15,5.83-21.48,15.37-27.25l41.66-25.19,8.96-5.41.03-.02c5.72-2.47,12.16-3.56,18.85-2.89l205.39,20.58c19.53,1.96,34.4,18.39,34.4,38.02Z"/>
  <path class="cls-1" d="m383.66,24.1l-8.96,5.41c2.71-2.19,5.72-4.02,8.96-5.41Z"/>
</svg>