<svg id="Capa_1" enable-background="new 0 0 512 512" height="512" viewBox="0 0 512 512" width="512" xmlns="http://www.w3.org/2000/svg"><g><path d="m502 250.73h-11.45v-150.489c0-19.914-16.202-36.116-36.118-36.116h-418.314c-19.916 0-36.118 16.202-36.118 36.116v273.53c0 19.914 16.202 36.116 36.118 36.116h54.893l-17.196 21.793c-2.374 3.008-2.82 7.108-1.148 10.557s5.167 5.638 8.999 5.638h420.334c5.523 0 10-4.478 10-10v-177.145c0-5.522-4.477-10-10-10zm-482 123.041v-273.53c0-8.887 7.23-16.116 16.118-16.116h418.314c8.887 0 16.118 7.229 16.118 16.116v150.489h-33.647v-126.624c0-5.522-4.477-10-10-10h-363.256c-5.523 0-10 4.478-10 10v225.8c0 5.522 4.477 10 10 10h335.238v29.981h-362.767c-8.888.001-16.118-7.229-16.118-16.116zm388.885-123.041c-5.523 0-10 4.478-10 10v79.176h-325.238v-205.8h343.255v116.624zm-306.591 177.145 14.193-17.987h257.575l14.194 17.987zm389.706 0h-73.115v-157.145h73.115z"/><path d="m455.442 408.637c12.837 0 23.282-10.444 23.282-23.281s-10.444-23.28-23.282-23.28-23.281 10.443-23.281 23.28 10.444 23.281 23.281 23.281zm0-26.562c1.81 0 3.282 1.472 3.282 3.28 0 1.81-1.472 3.281-3.282 3.281-1.809 0-3.281-1.472-3.281-3.281 0-1.808 1.472-3.28 3.281-3.28z"/><path d="m298.007 200.209c-5.239-1.739-10.901 1.096-12.643 6.338l-9.762 29.385-10.279-29.612c-1.811-5.217-7.508-7.98-12.726-6.168-5.217 1.812-7.979 7.509-6.168 12.727l18.767 54.063c1.592 4.479 5.84 7.474 10.588 7.474h.078c4.779-.033 9.023-3.096 10.584-7.687l17.898-53.876c1.742-5.243-1.095-10.903-6.337-12.644z"/><path d="m225.968 199.599h-30.273c-5.523 0-10 4.478-10 10s4.477 10 10 10h5.076v44.815c0 5.522 4.477 10 10 10s10-4.478 10-10v-44.815h5.198c5.523 0 10-4.478 10-10s-4.478-10-10.001-10z"/></g></svg>