<svg id="fi_10087894" height="512" viewBox="0 0 60 60" width="512" xmlns="http://www.w3.org/2000/svg"><path d="m14 60h32c2.206 0 4-1.794 4-4v-52c0-2.206-1.794-4-4-4h-32c-2.206 0-4 1.794-4 4v52c0 2.206 1.794 4 4 4zm32-2h-32c-1.103 0-2-.897-2-2v-30h36v30c0 1.103-.897 2-2 2zm-32-56h32c1.103 0 2 .897 2 2v20h-36v-20c0-1.103.897-2 2-2z"></path><path d="m30 32c-5.514 0-10 4.486-10 10s4.486 10 10 10 10-4.486 10-10-4.486-10-10-10zm0 18c-4.411 0-8-3.589-8-8s3.589-8 8-8 8 3.589 8 8-3.589 8-8 8z"></path><path d="m30 36c-3.309 0-6 2.691-6 6s2.691 6 6 6 6-2.691 6-6-2.691-6-6-6zm0 10c-2.206 0-4-1.794-4-4s1.794-4 4-4 4 1.794 4 4-1.794 4-4 4z"></path><path d="m20 21h20c1.654 0 3-1.346 3-3v-10c0-1.654-1.346-3-3-3h-20c-1.654 0-3 1.346-3 3v10c0 1.654 1.346 3 3 3zm3-8c0-3.337 1.227-5.302 1.758-6h10.484c.531.698 1.758 2.663 1.758 6s-1.23 5.307-1.757 6h-10.485c-.531-.698-1.758-2.663-1.758-6zm18-5v10c0 .552-.448 1-1 1h-2.407c.681-1.28 1.407-3.278 1.407-6s-.726-4.72-1.407-6h2.407c.552 0 1 .448 1 1zm-22 0c0-.552.449-1 1-1h2.407c-.681 1.28-1.407 3.278-1.407 6s.726 4.72 1.407 6h-2.407c-.551 0-1-.448-1-1z"></path><path d="m30 9c-2.206 0-4 1.794-4 4s1.794 4 4 4 4-1.794 4-4-1.794-4-4-4zm0 6c-1.103 0-2-.897-2-2s.897-2 2-2 2 .897 2 2-.897 2-2 2z"></path></svg>