<?xml version="1.0" encoding="UTF-8"?>
<svg id="Layer_1" data-name="Layer 1" xmlns="http://www.w3.org/2000/svg" width="960" height="960" viewBox="0 0 960 960">
  <defs>
    <style>
      .cls-1 {
        stroke-width: 40px;
      }

      .cls-1, .cls-2 {
        fill: none;
        stroke: #000;
        stroke-linecap: round;
        stroke-linejoin: round;
      }

      .cls-2 {
        stroke-width: 20px;
      }
    </style>
  </defs>
  <g id="Table-Fan">
    <path id="Path" class="cls-1" d="m737.978,836.356c-1.063-.744-2.233-1.489-3.616-2.127-1.808-.957-3.935-1.914-6.168-2.871-32.434-13.08-112.401-22.331-210.022-24.246v-219.438c138.561-18.609,245.752-137.604,245.752-281.269,0-156.533-127.395-283.822-283.928-283.822S196.176,149.873,196.176,306.406c0,143.559,107.191,262.66,245.752,281.269v219.438c-97.62,1.914-177.588,11.166-210.022,24.246-2.339.957-4.36,1.914-6.274,2.871-1.276.744-2.552,1.382-3.616,2.127-5.849,3.935-8.933,8.614-8.933,13.931,0,1.063.106,2.233.425,3.297.213.638.425,1.17.532,1.595l9.783,38.708c.106.425.213.851.425,1.276l.319.744.638,1.382.319.425c.319.532.532.957.957,1.489l.319.425c.319.425.744.957,1.17,1.382l.213.213c.319.425.744.744,1.17,1.17l.319.319c.319.319.638.532.957.851l.425.319c.425.425.957.744,1.489,1.17l.319.213c.425.319.851.638,1.276.851l.213.106c.532.319,1.17.744,1.808,1.17.532.319,1.063.638,1.701.957l.532.319c.532.319,1.063.532,1.595.851.532.213.957.532,1.489.744l.638.319c12.973,5.955,33.284,11.166,60.295,15.632h.213c1.276.213,2.552.425,4.041.638h.213c1.17.213,2.446.319,3.616.532l22.225,2.978,35.199,3.509,44.769,2.765,61.146,1.489h19.035l45.833-1.063h.319l40.197-2.127,41.898-3.722,24.565-3.084c1.17-.213,2.339-.319,3.403-.532l.744-.106c1.17-.213,2.446-.319,3.616-.532l4.36-.744c27.117-4.36,47.428-9.677,60.401-15.632l.213-.106c.638-.319,1.276-.638,1.914-.957.532-.319,1.17-.532,1.701-.851l.744-.425c.532-.319,1.063-.532,1.382-.851l.319-.213c.532-.319,1.063-.638,1.595-.957l.213-.106c.425-.213.744-.532,1.17-.851l.425-.319c.532-.425,1.063-.744,1.489-1.17l.319-.213c.319-.213.638-.532.957-.851l.319-.319,1.17-1.17.425-.532c.319-.319.638-.744.851-1.063l.532-.744v-.106c.213-.319.425-.744.638-1.063l.851-1.808s0-.106.106-.106l.638-1.489,9.89-39.239c.213-.425.425-.957.532-1.595.319-1.063.425-2.233.425-3.297-.213-5.104-3.19-9.89-9.039-13.824Z"/>
    <path id="Path-2" data-name="Path" class="cls-2" d="m205.063,306.407c0-151.622,123.419-275.041,275.041-275.041s275.041,123.419,275.041,275.041c0,141.675-107.677,258.643-245.525,273.401-2.186.219-4.482.437-6.668.656h-.547c-14.867,1.202-29.734,1.202-44.601,0h-.547c-2.186-.219-4.482-.437-6.668-.656-137.848-14.758-245.525-131.727-245.525-273.401Z"/>
    <path id="Path-3" data-name="Path" class="cls-2" d="m229.992,842.549c.319-.213.638-.532,1.276-.957.638-.425,1.382-.851,2.233-1.276,1.276-.744,2.871-1.382,4.679-2.127,30.201-12.229,119.181-21.162,213.398-23.076v17.603c0,8.507,9.039,9.145,16.376,9.571,5.849.425,3.961.638,12.149.638,11.804,0,10.936-.213,16.785-.957,2.871-.319,5.636-.851,7.763-2.021,2.978-1.489,4.147-3.828,4.147-7.231v-17.603c94.217,1.914,183.134,10.847,213.229,23.076,1.808.744,3.403,1.489,4.679,2.127.851.425,1.595.851,2.233,1.276.532.319.957.638,1.276.957l-1.17,4.466c-7.55,4.147-25.203,10.315-66.569,15.951-48.704,6.699-113.465,10.315-182.373,10.315s-133.669-3.616-182.373-10.315c-41.473-5.636-59.019-11.804-66.569-15.951l-1.17-4.466Z"/>
    <path id="Fill-1" class="cls-2" d="m421.702,252.376c-23.576-9.773-47.57-13.413-73.021-9.624-58.039,8.635-96.191,59.698-87.562,117.48,6.36,42.602,27.876,76.732,58.569,105.762,5.042,4.769,11.197,8.697,17.441,11.8,14.721,7.312,25.511,3.716,33.585-10.44,1.933-3.389,3.524-6.98,5.2-10.514,12.845-27.072,28.924-51.984,49.515-73.898,1.843-1.96,3.495-4.1,5.207-6.123-.342-.341-.641-.7-.977-1.045-19.022-15.484-31.178-39.033-31.178-65.428,0-22.471,8.864-42.839,23.222-57.97Z"/>
    <path id="Fill-3" class="cls-2" d="m697.418,375.777c1.603-6.693,1.935-13.929,1.51-20.832-.995-16.265-9.416-23.738-25.557-23.63-3.868.025-7.735.442-11.597.761-29.591,2.429-58.927,1.013-87.916-5.771-2.595-.607-5.246-.962-7.829-1.425-.125.465-.287.897-.417,1.358-3.894,24.02-18.101,46.153-40.765,59.271-19.291,11.168-41.156,13.682-61.243,8.881,3.26,25.089,11.992,47.488,27.822,67.448,36.098,45.518,98.793,52.883,144.137,16.762,33.432-26.63,52.105-62.053,61.855-102.823Z"/>
    <path id="Fill-5" class="cls-2" d="m449.166,225.277c.777,2.566,1.799,5.056,2.693,7.541.465-.126.92-.202,1.385-.322,22.759-8.661,49.062-7.386,71.788,5.781,19.347,11.211,32.491,29.009,38.402,48.925,20.102-15.435,35.126-34.288,44.479-58.104,21.332-54.311-3.723-112.651-57.754-134.043-39.835-15.773-79.885-14.266-120.093-2.305-6.603,1.966-13.037,5.308-18.803,9.142-13.591,9.031-15.844,20.12-7.656,34.138,1.961,3.357,4.263,6.518,6.475,9.726,16.945,24.571,30.425,50.851,39.084,79.522Z"/>
    <path id="Fill-7" class="cls-2" d="m482.444,230.683c-23.251,0-44.159,9.815-58.972,25.467-13.77,14.56-22.273,34.155-22.273,55.775,0,25.394,11.66,48.053,29.906,62.949,13.994,11.429,31.86,18.299,51.339,18.299,44.872,0,81.245-36.375,81.245-81.248s-36.372-81.242-81.245-81.242Z"/>
  </g>
</svg>