<svg id="Layer_1" enable-background="new 0 0 64 64" height="512" viewBox="0 0 64 64" width="512" xmlns="http://www.w3.org/2000/svg"><g><path d="m60 0h-56c-2.206 0-4 1.794-4 4v56c0 2.206 1.794 4 4 4h56c2.206 0 4-1.794 4-4v-56c0-2.206-1.794-4-4-4zm2 60c0 1.103-.898 2-2 2h-56c-1.103 0-2-.897-2-2v-56c0-1.103.897-2 2-2h56c1.102 0 2 .897 2 2z"/><path d="m32 6c-14.337 0-26 11.664-26 26s11.663 26 26 26 26-11.664 26-26-11.663-26-26-26zm0 50c-13.233 0-24-10.767-24-24s10.767-24 24-24 24 10.767 24 24-10.767 24-24 24z"/><path d="m32 10c-12.131 0-22 9.869-22 22s9.869 22 22 22 22-9.869 22-22-9.869-22-22-22zm0 42c-11.028 0-20-8.972-20-20s8.972-20 20-20 20 8.972 20 20-8.972 20-20 20z"/><path d="m28 23c0-.552-.447-1-1-1h-4c-.553 0-1 .448-1 1v10c0 .552.447 1 1 1h4c.553 0 1-.448 1-1zm-2 9h-2v-8h2z"/><path d="m41 22h-4c-.553 0-1 .448-1 1v10c0 .552.447 1 1 1h4c.553 0 1-.448 1-1v-10c0-.552-.447-1-1-1zm-1 10h-2v-8h2z"/><path d="m32 37c-2.206 0-4 1.794-4 4v4c0 .552.447 1 1 1h6c.553 0 1-.448 1-1v-4c0-2.206-1.794-4-4-4zm2 7h-4v-3c0-1.103.897-2 2-2 1.102 0 2 .897 2 2z"/></g></svg>