<svg id="Layer_1" enable-background="new 0 0 1580 1580" height="512" viewBox="0 0 1580 1580" width="512" xmlns="http://www.w3.org/2000/svg"><g><g><path d="m790 1558c-86.48 0-170.38-16.94-249.38-50.35-76.29-32.27-144.8-78.46-203.63-137.29s-105.02-127.34-137.29-203.63c-33.41-79-50.36-162.9-50.36-249.38s16.94-170.38 50.36-249.38c32.27-76.29 78.46-144.8 137.29-203.63s127.34-105.02 203.63-137.29c79-33.41 162.9-50.36 249.38-50.36s170.38 16.94 249.38 50.36c76.29 32.27 144.8 78.46 203.63 137.29s105.02 127.34 137.29 203.63c33.41 79 50.35 162.9 50.35 249.38s-16.94 170.38-50.35 249.38c-32.27 76.29-78.46 144.8-137.29 203.63s-127.34 105.02-203.63 137.29c-79 33.41-162.9 50.35-249.38 50.35zm0-1233.3c-326.79 0-592.65 265.86-592.65 592.65s265.86 592.65 592.65 592.65 592.65-265.86 592.65-592.65-265.86-592.65-592.65-592.65z"/><path d="m790 1446.11c-71.37 0-140.62-13.98-205.82-41.56-62.97-26.63-119.51-64.76-168.06-113.31s-86.67-105.1-113.31-168.06c-27.58-65.2-41.56-134.45-41.56-205.82s13.98-140.62 41.56-205.82c26.63-62.97 64.76-119.51 113.31-168.06s105.1-86.67 168.06-113.31c65.2-27.58 134.45-41.56 205.82-41.56s140.62 13.98 205.82 41.56c62.97 26.63 119.51 64.76 168.06 113.31s86.67 105.1 113.31 168.06c27.58 65.2 41.56 134.45 41.56 205.82s-13.98 140.62-41.56 205.82c-26.63 62.97-64.75 119.51-113.31 168.06-48.55 48.55-105.1 86.68-168.06 113.31-65.2 27.58-134.45 41.56-205.82 41.56zm0-1009.52c-265.09 0-480.76 215.67-480.76 480.76s215.67 480.76 480.76 480.76 480.76-215.67 480.76-480.76-215.67-480.76-480.76-480.76z"/><path d="m896.46 928.92h-212.92c-32.33 0-62.38-17.44-78.41-45.51l-28.13-49.21c-7.51-13.15-21.59-21.32-36.73-21.32h-238.53c-13.26 0-24-10.75-24-24 0-13.26 10.74-24 24-24h238.53c32.33 0 62.38 17.44 78.41 45.51l28.13 49.21c7.51 13.15 21.59 21.32 36.73 21.32h212.93c15.15 0 29.22-8.17 36.73-21.31l28.13-49.22c16.03-28.06 46.08-45.5 78.41-45.5h238.53c13.26 0 24 10.74 24 24 0 13.25-10.74 24-24 24h-238.53c-15.15 0-29.22 8.17-36.73 21.31l-28.13 49.22c-16.04 28.06-46.08 45.5-78.42 45.5z"/><path d="m790 837.85c-54.69 0-99.19-44.5-99.19-99.19s44.5-99.19 99.19-99.19 99.19 44.5 99.19 99.19-44.5 99.19-99.19 99.19zm0-150.38c-28.23 0-51.19 22.96-51.19 51.19s22.96 51.19 51.19 51.19 51.19-22.96 51.19-51.19-22.96-51.19-51.19-51.19z"/><path d="m790 1297.52c-42.38 0-76.86-34.48-76.86-76.86s34.48-76.86 76.86-76.86 76.86 34.48 76.86 76.86-34.48 76.86-76.86 76.86zm0-105.72c-15.91 0-28.86 12.95-28.86 28.86s12.95 28.86 28.86 28.86c15.92 0 28.86-12.95 28.86-28.86s-12.94-28.86-28.86-28.86z"/><path d="m920.08 1429.18c-13.26 0-24-10.74-24-24v-188.47c0-58.49-47.59-106.08-106.09-106.08s-106.09 47.59-106.09 106.08v188.47c0 13.26-10.74 24-24 24s-24-10.74-24-24v-188.47c0-84.96 69.12-154.08 154.09-154.08s154.09 69.12 154.09 154.08v188.47c0 13.26-10.74 24-24 24z"/></g><g><path d="m863.62 202.45c-6.14 0-12.28-2.34-16.97-7.03-31.23-31.24-82.06-31.24-113.3 0-9.37 9.37-24.57 9.37-33.94 0s-9.37-24.57 0-33.94c49.95-49.95 131.23-49.95 181.18 0 9.37 9.37 9.37 24.57 0 33.94-4.69 4.69-10.83 7.03-16.97 7.03z"/><path d="m919.29 123.55c-6.14 0-12.28-2.34-16.97-7.03-61.93-61.93-162.7-61.93-224.64 0-9.37 9.37-24.57 9.37-33.94 0s-9.37-24.57 0-33.94c80.65-80.64 211.87-80.65 292.52 0 9.37 9.37 9.37 24.57 0 33.94-4.69 4.69-10.83 7.03-16.97 7.03z"/></g></g></svg>