<svg id="Capa_1" enable-background="new 0 0 512 512" height="512" viewBox="0 0 512 512" width="512" xmlns="http://www.w3.org/2000/svg"><g><path d="m449.071 257.071c12.643-12.644 33.215-12.644 45.857 0 3.905 3.905 10.237 3.905 14.143 0 3.905-3.905 3.905-10.237 0-14.143-20.441-20.44-53.701-20.44-74.143 0-12.643 12.644-33.215 12.644-45.857 0-3.905-3.905-10.237-3.905-14.143 0-3.905 3.905-3.905 10.237 0 14.143 20.442 20.441 53.701 20.441 74.143 0z"/><path d="m449.071 197.071c12.643-12.644 33.215-12.644 45.857 0 3.905 3.905 10.237 3.905 14.143 0 3.905-3.905 3.905-10.237 0-14.143-20.441-20.44-53.701-20.44-74.143 0-12.643 12.644-33.215 12.644-45.857 0-3.905-3.905-10.237-3.905-14.143 0-3.905 3.905-3.905 10.237 0 14.143 20.442 20.441 53.701 20.441 74.143 0z"/><path d="m449.071 137.071c12.643-12.644 33.215-12.644 45.857 0 3.905 3.905 10.237 3.905 14.143 0 3.905-3.905 3.905-10.237 0-14.143-20.441-20.44-53.701-20.44-74.143 0-12.643 12.644-33.215 12.644-45.857 0-3.905-3.905-10.237-3.905-14.143 0-3.905 3.905-3.905 10.237 0 14.143 20.442 20.441 53.701 20.441 74.143 0z"/><circle cx="145" cy="502" r="10"/><path d="m10 512h90c5.523 0 10-4.477 10-10s-4.477-10-10-10h-80v-7.57c0-24.69 9.614-47.902 27.071-65.359 21.235-21.235 32.929-49.468 32.929-79.501v-79.57h40v122c0 38.598 31.402 70 70 70h30c24.146 0 44.349 17.206 48.996 40h-78.996c-5.523 0-10 4.477-10 10s4.477 10 10 10h90c5.523 0 10-4.477 10-10 0-38.598-31.402-70-70-70h-30c-27.57 0-50-22.43-50-50v-122h46v20c0 35.202 26.123 64.406 60 69.274v20.726c0 5.523 4.477 10 10 10s10-4.477 10-10v-20.726c33.877-4.869 60-34.072 60-69.274v-180c0-35.202-26.123-64.406-60-69.274v-20.726c0-5.523-4.477-10-10-10s-10 4.477-10 10v20.726c-33.877 4.869-60 34.072-60 69.274v20h-76v-20c0-5.523-4.477-10-10-10s-10 4.477-10 10v20h-20c-38.598 0-70 31.402-70 70 0 35.202 26.123 64.406 60 69.274v80.296c0 24.69-9.614 47.902-27.071 65.359-21.235 21.235-32.929 49.468-32.929 79.501v17.57c0 5.523 4.477 10 10 10zm236-402v40h-40v-40zm20 160v-40h40v40zm-20-60h-40v-40h40zm20-40h40v40h-40zm-60 60h40v40h-40zm100-80h-40v-40h40zm-98.994 140h38.994v38.994c-19.562-3.987-35.007-19.432-38.994-38.994zm58.994 38.994v-39.004h38.994c-3.987 19.572-19.432 35.017-38.994 39.004zm38.994-238.994h-38.994v-38.994c19.562 3.987 35.007 19.432 38.994 38.994zm-58.994-38.994v38.994h-38.994c3.987-19.562 19.432-35.007 38.994-38.994zm-226 138.994c0-27.57 22.43-50 50-50h116v100h-116c-27.57 0-50-22.43-50-50z"/></g></svg>