<?xml version="1.0" encoding="UTF-8"?>
<svg id="Layer_1" data-name="Layer 1" xmlns="http://www.w3.org/2000/svg" width="960" height="960" viewBox="0 0 960 960">
  <defs>
    <style>
      .cls-1 {
        stroke-width: 40px;
      }

      .cls-1, .cls-2, .cls-3 {
        fill: none;
        stroke: #000;
      }

      .cls-1, .cls-3 {
        stroke-linecap: round;
        stroke-linejoin: round;
      }

      .cls-2, .cls-3 {
        stroke-width: 20px;
      }
    </style>
  </defs>
  <path class="cls-3" d="m395.362,929c-24.29,0-44.052-19.797-44.052-44.132V75.131c0-24.334,19.761-44.131,44.051-44.131,1.242,0,2.505.053,3.752.157l340.722,28.477c22.684,1.896,40.452,21.211,40.452,43.974v752.783c0,22.763-17.769,42.079-40.452,43.975l-340.722,28.478c-1.247.104-2.509.156-3.751.156Z"/>
  <path class="cls-3" d="m372.649,26.019l-177.775,106.53c-15.609,9.353-25.161,26.214-25.161,44.411v247.271c0,16.11,13.455,28.956,29.548,28.21l45.592-2.113c16.093-.746,29.548,12.1,29.548,28.21v369.133c0,18.541,9.915,35.667,25.994,44.899l71.455,41.028"/>
  <ellipse class="cls-2" cx="574.226" cy="675.324" rx="166.442" ry="178.299"/>
  <path class="cls-2" d="m492.155,659.219l171.559-6.271c12.633-.462,23.126,9.654,23.126,22.296v.448c0,12.027-9.533,21.89-21.554,22.298l-171.559,5.823c-12.611.428-23.067-9.679-23.067-22.298h0c0-12.005,9.499-21.857,21.496-22.296Z"/>
  <ellipse cx="578.75" cy="340.948" rx="13.376" ry="14.329"/>
  <g>
    <path class="cls-1" d="m790.29,103.61v752.78c0,28.15-21.57,51.6-49.62,53.94l-340.72,28.48c-10.07.84-19.68-1.12-28.1-5.21l-6.44-3.7-65.02-37.33c-16.07-9.23-25.99-26.36-25.99-44.9v-369.13c0-16.11-13.45-28.96-29.55-28.21l-45.59,2.11c-16.09.75-29.55-12.1-29.55-28.21v-247.27c0-18.2,9.56-35.06,25.16-44.41L363.01,31.8l9.62-5.77.02-.01c8.23-3.83,17.55-5.65,27.3-4.83l340.72,28.48c28.05,2.34,49.62,25.79,49.62,53.94Z"/>
    <path class="cls-1" d="m365.41,929.9l6.44,3.7c-2.23-1.08-4.39-2.32-6.44-3.7Z"/>
    <path class="cls-1" d="m372.63,26.03l-9.62,5.77c2.98-2.25,6.21-4.18,9.62-5.77Z"/>
  </g>
</svg>