<svg id="Capa_1" enable-background="new 0 0 511.335 511.335" height="512" viewBox="0 0 511.335 511.335" width="512" xmlns="http://www.w3.org/2000/svg"><path d="m300.185 127.019h-246.008c-29.873 0-54.177 24.304-54.177 54.178v58.573c0 4.143 3.358 7.5 7.5 7.5s7.5-3.357 7.5-7.5v-58.573c0-21.603 17.575-39.178 39.177-39.178h246.007c21.603 0 39.178 17.575 39.178 39.178v241.382c0 21.603-17.575 39.178-39.178 39.178h-246.007c-21.602-.001-39.177-17.576-39.177-39.178v-150.846c0-4.143-3.358-7.5-7.5-7.5s-7.5 3.357-7.5 7.5v150.846c0 29.874 24.304 54.178 54.177 54.178h246.007c29.874 0 54.178-24.304 54.178-54.178v-241.382c0-29.874-24.303-54.178-54.177-54.178z"/><path d="m139.614 268.661c-4.142 0-7.5 3.357-7.5 7.5v5.955h-4.171c-4.142 0-7.5 3.357-7.5 7.5s3.358 7.5 7.5 7.5h4.171v36.514c0 12.019 9.778 21.797 21.796 21.797 4.142 0 7.5-3.357 7.5-7.5s-3.358-7.5-7.5-7.5c-3.748 0-6.796-3.049-6.796-6.797v-36.514h4.376c4.142 0 7.5-3.357 7.5-7.5s-3.358-7.5-7.5-7.5h-4.376v-5.955c0-4.143-3.358-7.5-7.5-7.5z"/><path d="m209.845 351.856c3.917 0 7.504-2.301 9.138-5.862l24.171-52.707c1.727-3.765.074-8.217-3.691-9.943-3.765-1.728-8.217-.073-9.944 3.691l-19.673 42.899-19.673-42.899c-1.727-3.767-6.179-5.419-9.944-3.691-3.765 1.727-5.417 6.179-3.691 9.943l24.171 52.708c1.632 3.56 5.219 5.861 9.136 5.861z"/><path d="m486.336 34.579h-89.374c-13.784 0-24.998 11.214-24.998 24.998v48.108c0 4.143 3.357 7.5 7.5 7.5s7.5-3.357 7.5-7.5v-48.108c0-5.513 4.485-9.998 9.998-9.998h89.374c5.514 0 9.999 4.485 9.999 9.998v162.101h-109.371v-82.029c0-4.143-3.357-7.5-7.5-7.5s-7.5 3.357-7.5 7.5v312.109c0 13.784 11.214 24.999 24.998 24.999h89.374c13.784 0 24.999-11.215 24.999-24.999v-392.181c0-13.785-11.215-24.998-24.999-24.998zm0 427.177h-89.374c-5.513 0-9.998-4.485-9.998-9.999v-215.08h109.371v215.08c0 5.514-4.485 9.999-9.999 9.999z"/><path d="m441.649 254.091c-13.009 0-23.593 10.583-23.593 23.592v55.15c0 13.009 10.584 23.593 23.593 23.593s23.593-10.584 23.593-23.593v-9.711c0-4.143-3.357-7.5-7.5-7.5s-7.5 3.357-7.5 7.5v9.711c0 4.738-3.854 8.593-8.593 8.593s-8.593-3.854-8.593-8.593v-55.15c0-4.737 3.854-8.592 8.593-8.592s8.593 3.854 8.593 8.592v13.477c0 4.143 3.357 7.5 7.5 7.5s7.5-3.357 7.5-7.5v-13.477c0-13.009-10.584-23.592-23.593-23.592z"/><path d="m442.873 203.826c15.602 0 28.294-12.692 28.294-28.294s-12.692-28.294-28.294-28.294-28.294 12.692-28.294 28.294 12.692 28.294 28.294 28.294zm0-41.588c7.33 0 13.294 5.964 13.294 13.294s-5.964 13.294-13.294 13.294-13.294-5.964-13.294-13.294 5.964-13.294 13.294-13.294z"/><path d="m442.873 131.167c15.602 0 28.294-12.692 28.294-28.294s-12.692-28.294-28.294-28.294-28.294 12.692-28.294 28.294 12.692 28.294 28.294 28.294zm0-41.588c7.33 0 13.294 5.964 13.294 13.294s-5.964 13.294-13.294 13.294-13.294-5.964-13.294-13.294 5.964-13.294 13.294-13.294z"/></svg>