<?xml version="1.0" encoding="UTF-8"?>
<svg id="Layer_1" data-name="Layer 1" xmlns="http://www.w3.org/2000/svg" width="960" height="960" viewBox="0 0 960 960">
  <defs>
    <style>
      .cls-1 {
        stroke-width: 40px;
      }

      .cls-1, .cls-2 {
        fill: none;
        stroke: #000;
        stroke-linecap: round;
        stroke-linejoin: round;
      }

      .cls-2 {
        stroke-width: 20px;
      }
    </style>
  </defs>
  <path class="cls-2" d="m171.741,895.646c-18.952,0-38.033-1.615-56.714-4.801-19.133-3.264-33.02-19.828-33.02-39.388V108.656c0-19.519,13.857-36.078,32.95-39.375,18.927-3.27,38.259-4.928,57.458-4.928,40.636,0,82.565,7.436,124.624,22.098,16.174,5.639,27.041,20.848,27.042,37.845l.015,711.178c0,16.972-10.848,32.174-26.992,37.829-42.327,14.826-84.506,22.343-125.363,22.343Z"/>
  <ellipse cx="269.189" cy="143.535" rx="24.024" ry="25.736"/>
  <ellipse cx="278.761" cy="223.263" rx="24.024" ry="25.736"/>
  <ellipse cx="210.714" cy="220.742" rx="24.024" ry="25.736"/>
  <ellipse cx="210.714" cy="299.727" rx="24.024" ry="25.736"/>
  <ellipse cx="210.714" cy="775.166" rx="24.024" ry="25.736"/>
  <ellipse cx="142.668" cy="219.952" rx="24.024" ry="25.736"/>
  <ellipse cx="278.761" cy="303.804" rx="24.024" ry="25.736"/>
  <ellipse cx="142.668" cy="298.411" rx="24.024" ry="25.736"/>
  <ellipse cx="142.668" cy="779.078" rx="24.024" ry="25.736"/>
  <ellipse cx="278.761" cy="771.601" rx="24.024" ry="25.736"/>
  <path d="m115.404,598.877v107.207c0,16.404,13.374,29.661,29.777,29.517h.059c13.671-.12,24.691-11.237,24.691-24.909v-116.424c0-13.548-10.828-24.612-24.373-24.903h0c-16.547-.356-30.153,12.96-30.153,29.511Z"/>
  <path d="m251.932,597.144v100.91c0,15.44,13.161,27.919,29.303,27.783h.058c13.454-.113,24.298-10.577,24.298-23.445v-109.585c0-12.752-10.656-23.166-23.985-23.44h0c-16.284-.335-29.673,12.199-29.673,27.778Z"/>
  <path class="cls-2" d="m96.354,65.676l-51.893,32.049c-14.584,9.007-23.462,24.925-23.462,42.065v680.547c0,17.232,8.972,33.22,23.68,42.199l52.54,32.074"/>
  <path class="cls-2" d="m561.677,839.69c-40.371,0-73.215-32.897-73.215-73.333v-303.963c0-40.434,32.877-73.328,73.288-73.328.599,0,1.193.007,1.796.021l293.882,7.038c19.25.461,37.26,8.304,50.712,22.081s20.86,31.97,20.86,51.226v273.51c0,18.494-6.91,36.162-19.457,49.749-12.548,13.587-29.611,21.878-48.047,23.347l-293.882,23.415c-1.974.157-3.971.237-5.938.237Z"/>
  <path class="cls-2" d="m552.287,379.733l-73.57,6.238c-41.414,3.565-73.217,38.222-73.217,79.789v278.5c0,34.465,22.05,65.064,54.744,75.969l79.494,26.516"/>
  <line class="cls-1" x1="97.22" y1="894.61" x2="91.43" y2="891.08"/>
  <path class="cls-1" d="m334.1,835.47c0,21.33-13.56,40.22-33.69,47.271-62.62,21.94-124.98,28.55-187.06,17.96-8.23-1.4-15.68-4.79-21.92-9.62l-.02-.02-46.73-28.52c-14.71-8.98-23.68-24.97-23.68-42.2V139.79c0-17.14,8.88-33.06,23.46-42.07l50.4-31.12,1.49-.92c5.08-3.03,10.78-5.19,16.91-6.25,62.09-10.73,124.45-4.25,187.07,17.58,20.16,7.03,33.75,25.94,33.75,47.29l.02,711.17Z"/>
  <path class="cls-1" d="m939,469.43v273.51c0,43.46-33.39,79.62-76.71,83.07l-293.88,23.41c-10.02.8-19.74-.21-28.86-2.73l-8.21-2.74-.03-.01-71.07-23.71c-32.69-10.91-54.74-41.51-54.74-75.97v-278.5c0-41.57,31.8-76.22,73.22-79.79l70.91-6.01c4.6-.69,9.33-.99,14.15-.87l293.89,7.04c45.23,1.08,81.33,38.06,81.33,83.3Z"/>
  <path class="cls-1" d="m539.55,846.69c-2.8-.77-5.53-1.69-8.21-2.74l8.21,2.74Z"/>
  <line class="cls-1" x1="539.74" y1="846.75" x2="539.55" y2="846.69"/>
  <line class="cls-1" x1="552.29" y1="379.73" x2="549.63" y2="379.96"/>
  <path d="m207.958,368.405c-19.612,0-37.667,7.163-51.997,19.177-3.213,2.694-3.508,7.533-.633,10.583l15.329,16.261c2.514,2.667,6.636,3.069,9.578.883,7.98-5.928,17.668-9.399,28.122-9.399,10.7,0,20.599,3.639,28.688,9.827,2.845,2.177,6.87,1.896,9.477-.561l15.825-14.917c3.082-2.906,3.059-7.841-.089-10.675-14.68-13.217-33.62-21.18-54.299-21.18Zm-45.851,60.341l-15.629-16.578c-3.412-3.619-9.356-2.817-11.714,1.561-7.159,13.288-11.256,28.704-11.256,45.139,0,17.62,4.71,34.071,12.848,47.977,2.351,4.017,7.857,4.762,11.244,1.57l16.086-15.163c2.346-2.211,2.991-5.72,1.498-8.577-3.99-7.635-6.261-16.436-6.261-25.807,0-7.921,1.626-15.432,4.536-22.178,1.161-2.692.66-5.81-1.351-7.944Zm108.847-14.541l-15.707,14.802c-2.218,2.09-2.971,5.343-1.791,8.153,2.783,6.626,4.335,13.975,4.335,21.708,0,11.339-3.332,21.845-9.001,30.46-1.831,2.782-1.445,6.473.84,8.897l14.721,15.615c3.144,3.335,8.588,2.992,11.216-.762,10.576-15.107,16.841-33.874,16.841-54.209,0-15.408-3.601-29.919-9.951-42.619-2.181-4.363-7.953-5.389-11.503-2.044Zm-62.598,97.62c-9.196,0-17.797-2.688-25.167-7.369-2.809-1.784-6.466-1.443-8.888.839l-16.601,15.645c-3.223,3.037-3.03,8.255.455,10.987,13.96,10.945,31.177,17.404,49.802,17.404,16.026,0,31.012-4.778,43.774-13.082,3.782-2.461,4.37-7.775,1.275-11.058l-15.639-16.592c-2.171-2.303-5.594-2.964-8.433-1.567-6.262,3.081-13.231,4.793-20.578,4.793Z"/>
  <ellipse cx="208.357" cy="458.868" rx="41.676" ry="44.646"/>
</svg>