<?xml version="1.0" encoding="UTF-8"?>
<svg id="Layer_1" data-name="Layer 1" xmlns="http://www.w3.org/2000/svg" width="960" height="960" viewBox="0 0 960 960">
  <defs>
    <style>
      .cls-1 {
        stroke-width: 40px;
      }

      .cls-1, .cls-2 {
        fill: none;
        stroke: #000;
        stroke-linecap: round;
        stroke-linejoin: round;
      }

      .cls-2 {
        stroke-width: 20px;
      }

      .cls-3 {
        fill-rule: evenodd;
      }
    </style>
  </defs>
  <g id="homey-smartphone-app-_-custom-devices-_--speaker" data-name="homey-smartphone-app-/-custom-devices-/--speaker">
    <path id="Path-176" class="cls-1" d="m162.734,146.682v628.437c0,7.325,3.09,14.311,8.511,19.239l146.03,132.752c5.724,5.203,13.467,7.588,21.127,6.506l451.987-63.861c12.827-1.812,22.363-12.79,22.363-25.744V109.734c0-13.078-9.714-24.12-22.685-25.788L335.916,25.558c-6.195-.797-12.471.664-17.678,4.115l-143.866,95.336c-7.268,4.816-11.638,12.954-11.638,21.673Z"/>
    <line id="Path-177" class="cls-2" x1="326.311" y1="24.323" x2="326.311" y2="935.323"/>
    <path id="Oval" class="cls-2" d="m548.355,836.8c100.405,14.111,194.589-65.456,210.366-177.717,15.777-112.262-52.827-214.707-153.231-228.818-100.405-14.111-194.589,65.456-210.366,177.717-15.777,112.262,52.827,214.707,153.231,228.818Z"/>
    <path id="Oval-2" data-name="Oval" class="cls-2" d="m551.753,791.275c77.917,10.951,151.007-50.796,163.251-137.914,12.244-87.118-40.995-166.619-118.912-177.57-77.917-10.951-151.007,50.796-163.251,137.914-12.244,87.118,40.995,166.619,118.912,177.57Z"/>
    <path id="Oval-3" data-name="Oval" class="cls-2" d="m543.554,828.547c97.305,13.646,188.581-63.298,203.871-171.859,15.29-108.561-51.196-207.63-148.501-221.275-97.305-13.646-188.581,63.298-203.871,171.859-15.29,108.561,51.196,207.63,148.501,221.275Z"/>
    <path id="Oval-4" data-name="Oval" class="cls-3" d="m565.129,720.308c42.863,6.024,83.07-27.943,89.805-75.868s-22.552-91.658-65.415-97.682c-42.863-6.024-83.07,27.943-89.805,75.868s22.552,91.658,65.415,97.682Z"/>
    <path id="Oval-5" data-name="Oval" class="cls-2" d="m558.68,356.924c64.113,8.596,124.255-39.873,134.329-108.258,10.075-68.385-33.732-130.79-97.846-139.386-64.113-8.596-124.255,39.873-134.329,108.258-10.075,68.385,33.732,130.79,97.846,139.386Z"/>
    <path id="Oval-6" data-name="Oval" class="cls-2" d="m564.206,319.414c44.691,5.992,86.613-27.794,93.636-75.462s-23.514-91.169-68.205-97.161c-44.691-5.992-86.613,27.794-93.636,75.462-7.023,47.669,23.514,91.169,68.205,97.161Z"/>
    <path id="Oval-7" data-name="Oval" class="cls-2" d="m556.044,348.661c62.411,8.094,120.956-37.547,130.763-101.943,9.807-64.396-32.837-123.161-95.248-131.255s-120.956,37.547-130.763,101.943c-9.807,64.396,32.837,123.161,95.248,131.255Z"/>
    <path id="Oval-8" data-name="Oval" class="cls-3" d="m567.711,277.746c23.116,3.099,44.8-14.376,48.432-39.032s-12.162-47.156-35.278-50.256-44.8,14.376-48.432,39.032,12.162,47.156,35.278,50.256Z"/>
  </g>
</svg>