<?xml version="1.0" standalone="no"?>
<!DOCTYPE svg PUBLIC "-//W3C//DTD SVG 20010904//EN"
 "http://www.w3.org/TR/2001/REC-SVG-20010904/DTD/svg10.dtd">
<svg version="1.0" xmlns="http://www.w3.org/2000/svg"
 width="612.000000pt" height="612.000000pt" viewBox="0 0 612.000000 612.000000"
 preserveAspectRatio="xMidYMid meet">
<metadata>
Created by potrace 1.13, written by Peter Selinger 2001-2015
</metadata>
<g transform="translate(0.000000,612.000000) scale(0.100000,-0.100000)"
fill="#000000" stroke="none">
<path d="M1755 6106 c-219 -50 -393 -211 -467 -431 l-23 -70 -3 -1638 -2
-1638 -84 -82 c-204 -201 -340 -463 -382 -739 -19 -125 -14 -354 11 -468 177
-810 1045 -1259 1803 -932 542 234 864 809 777 1387 -45 298 -166 537 -381
749 l-83 82 -4 1635 c-3 1539 -4 1638 -21 1694 -61 203 -217 367 -411 432 -79
27 -85 27 -375 30 -220 2 -310 -1 -355 -11z m660 -267 c74 -28 132 -73 177
-139 72 -106 68 10 68 -1823 0 -1399 2 -1652 14 -1675 8 -15 37 -44 64 -65
108 -82 225 -224 289 -352 237 -471 89 -1052 -341 -1339 -196 -131 -374 -186
-598 -186 -499 0 -928 350 -1030 840 -26 126 -21 356 10 471 58 210 130 327
307 503 l140 139 5 1686 5 1686 27 57 c46 98 137 178 238 209 14 4 147 8 297
8 253 1 276 -1 328 -20z"/>
<path d="M1988 5396 c-56 -20 -116 -73 -146 -130 l-27 -51 -3 -1578 -2 -1578
-46 -19 c-127 -55 -262 -171 -344 -295 -95 -147 -136 -300 -127 -475 7 -126
25 -197 78 -307 191 -398 674 -564 1071 -368 169 84 310 232 381 401 48 112
61 180 60 314 0 153 -21 239 -90 373 -38 75 -64 109 -143 187 -79 80 -111 104
-190 145 -52 26 -98 53 -102 59 -4 6 -8 713 -8 1571 l0 1560 -24 50 c-46 98
-135 155 -241 154 -33 0 -77 -6 -97 -13z m-98 -3681 c36 -19 50 -43 50 -89 0
-28 -10 -46 -45 -86 -79 -89 -98 -141 -96 -273 1 -85 0 -90 -28 -118 -57 -57
-142 -27 -161 56 -32 137 15 311 119 441 38 48 88 83 119 84 7 0 26 -7 42 -15z"/>
<path d="M3658 5578 c-173 -246 -269 -465 -253 -578 23 -156 120 -263 272
-301 102 -25 242 38 312 142 88 127 81 259 -24 464 -46 89 -224 365 -236 365
-3 0 -35 -42 -71 -92z m44 -305 c24 -21 23 -64 -2 -110 -11 -21 -20 -50 -20
-64 0 -66 -76 -103 -121 -58 -19 19 -21 28 -14 82 11 99 55 167 108 167 17 0
39 -7 49 -17z"/>
<path d="M4826 5472 c-203 -330 -351 -636 -423 -877 -14 -46 -18 -93 -17 -200
0 -128 3 -146 28 -215 39 -104 85 -176 153 -242 65 -61 110 -87 192 -112 232
-68 480 116 558 414 23 90 21 243 -5 340 -35 130 -90 269 -182 455 -73 148
-243 449 -269 477 -3 4 -20 -14 -35 -40z m-29 -677 c11 -8 27 -30 33 -50 11
-32 9 -42 -13 -88 -14 -29 -29 -74 -32 -102 -11 -79 -29 -114 -71 -131 -45
-19 -84 -11 -115 22 -21 22 -24 35 -22 88 3 90 20 154 55 210 47 72 104 90
165 51z"/>
<path d="M3935 3953 c-147 -261 -226 -467 -226 -590 0 -105 55 -240 122 -299
58 -51 94 -64 172 -64 68 0 79 3 123 33 136 91 195 279 145 459 -24 89 -92
251 -153 363 -73 136 -113 205 -118 205 -3 0 -32 -48 -65 -107z m29 -339 c21
-20 20 -32 -4 -72 -11 -18 -20 -39 -20 -48 0 -8 -7 -28 -15 -44 -17 -33 -54
-40 -75 -15 -16 19 -6 83 20 135 29 57 65 74 94 44z"/>
</g>
</svg>
