<svg id="Capa_1" enable-background="new 0 0 512 512" height="512" viewBox="0 0 512 512" width="512" xmlns="http://www.w3.org/2000/svg"><g><g><path d="m399.885 205.966c-1.498-3.862-5.843-5.778-9.704-4.282-3.862 1.497-5.779 5.842-4.282 9.704 24.225 62.488 37.078 119.101 38.27 168.434h-336.337c1.192-49.333 14.045-105.945 38.27-168.434 1.497-3.862-.42-8.207-4.282-9.704-3.861-1.493-8.206.421-9.704 4.282-26.133 67.413-39.384 128.43-39.384 181.355v56.569c0 37.556 30.554 68.109 68.11 68.109h230.316c37.557 0 68.11-30.554 68.11-68.109v-56.569c.001-52.925-13.25-113.942-39.383-181.355zm-28.727 291.034h-230.316c-29.285 0-53.11-23.825-53.11-53.109v-49.069h336.537v49.069c0 29.284-23.826 53.109-53.111 53.109z"/><path d="m129.527 183.044c3.791 1.662 8.217-.061 9.882-3.854 3.258-7.424 6.438-14.365 9.454-20.746h214.274c3.016 6.381 6.196 13.323 9.454 20.746 1.234 2.813 3.985 4.488 6.872 4.488 1.007 0 2.029-.204 3.01-.634 3.793-1.665 5.519-6.09 3.854-9.882-17.427-39.707-32.309-65.333-32.934-66.405-1.344-2.304-3.811-3.721-6.479-3.721h-181.83c-2.668 0-5.135 1.417-6.479 3.721-.625 1.072-15.507 26.698-32.934 66.405-1.662 3.792.063 8.217 3.856 9.882zm39.935-65.008h173.076c2.577 4.634 7.348 13.43 13.318 25.407h-199.712c5.97-11.976 10.741-20.773 13.318-25.407z"/><path d="m294.968 80.235c0 4.143 3.357 7.5 7.5 7.5s7.5-3.357 7.5-7.5c0-3.79.987-5.271 2.781-7.961 2.236-3.355 5.3-7.95 5.3-16.282s-3.063-12.928-5.3-16.283c-1.793-2.69-2.781-4.172-2.781-7.963s.988-5.272 2.781-7.963c2.236-3.355 5.3-7.951 5.3-16.283 0-4.143-3.357-7.5-7.5-7.5s-7.5 3.357-7.5 7.5c0 3.791-.988 5.272-2.781 7.963-2.236 3.355-5.3 7.951-5.3 16.283s3.063 12.928 5.3 16.283c1.793 2.69 2.781 4.172 2.781 7.963 0 3.79-.988 5.272-2.781 7.962-2.237 3.356-5.3 7.95-5.3 16.281z"/><path d="m244.459 80.235c0 4.143 3.357 7.5 7.5 7.5s7.5-3.357 7.5-7.5c0-3.789.988-5.271 2.781-7.96 2.237-3.355 5.301-7.951 5.301-16.283s-3.063-12.928-5.301-16.283c-1.793-2.69-2.781-4.172-2.781-7.963s.988-5.272 2.781-7.963c2.237-3.355 5.301-7.951 5.301-16.283 0-4.143-3.357-7.5-7.5-7.5s-7.5 3.357-7.5 7.5c0 3.791-.988 5.272-2.781 7.963-2.237 3.355-5.301 7.951-5.301 16.283s3.063 12.928 5.301 16.283c1.793 2.69 2.781 4.172 2.781 7.963 0 3.79-.988 5.271-2.781 7.962-2.238 3.355-5.301 7.95-5.301 16.281z"/><path d="m193.951 80.235c0 4.143 3.357 7.5 7.5 7.5s7.5-3.357 7.5-7.5c0-3.79.987-5.271 2.781-7.961 2.236-3.355 5.3-7.95 5.3-16.282s-3.063-12.928-5.3-16.283c-1.793-2.69-2.781-4.172-2.781-7.963s.988-5.272 2.781-7.963c2.236-3.355 5.3-7.951 5.3-16.283 0-4.143-3.357-7.5-7.5-7.5s-7.5 3.357-7.5 7.5c0 3.791-.988 5.272-2.781 7.963-2.236 3.355-5.3 7.951-5.3 16.283s3.063 12.928 5.3 16.283c1.793 2.69 2.781 4.172 2.781 7.963 0 3.79-.987 5.272-2.781 7.962-2.236 3.356-5.3 7.95-5.3 16.281z"/><path d="m256 413.156c-18.061 0-32.754 14.693-32.754 32.754 0 18.062 14.693 32.755 32.754 32.755s32.754-14.693 32.754-32.755c0-18.06-14.693-32.754-32.754-32.754zm0 50.509c-9.789 0-17.754-7.965-17.754-17.755 0-9.789 7.965-17.754 17.754-17.754s17.754 7.965 17.754 17.754c0 9.79-7.965 17.755-17.754 17.755z"/><path d="m334.793 438.41h-20.203c-4.143 0-7.5 3.357-7.5 7.5s3.357 7.5 7.5 7.5h20.203c4.143 0 7.5-3.357 7.5-7.5s-3.357-7.5-7.5-7.5z"/><path d="m197.41 438.41h-20.203c-4.143 0-7.5 3.357-7.5 7.5s3.357 7.5 7.5 7.5h20.203c4.143 0 7.5-3.357 7.5-7.5s-3.357-7.5-7.5-7.5z"/><circle cx="256" cy="182.258" r="7.071"/><path d="m287.315 194.38c0-3.905-3.166-7.071-7.071-7.071s-7.071 3.166-7.071 7.071 3.166 7.071 7.071 7.071 7.071-3.166 7.071-7.071z"/><path d="m256 213.573c3.905 0 7.071-3.166 7.071-7.071s-3.166-7.071-7.071-7.071-7.071 3.166-7.071 7.071 3.166 7.071 7.071 7.071z"/><path d="m311.559 182.258c0-3.905-3.166-7.071-7.071-7.071s-7.071 3.166-7.071 7.071 3.166 7.071 7.071 7.071 7.071-3.166 7.071-7.071z"/><path d="m238.827 194.38c0-3.905-3.166-7.071-7.071-7.071s-7.071 3.166-7.071 7.071 3.166 7.071 7.071 7.071 7.071-3.166 7.071-7.071z"/><path d="m207.512 189.329c3.905 0 7.071-3.166 7.071-7.071s-3.166-7.071-7.071-7.071-7.071 3.166-7.071 7.071 3.166 7.071 7.071 7.071z"/><path d="m192.941 323.681v30.305c0 4.143 3.357 7.5 7.5 7.5h111.117c4.143 0 7.5-3.357 7.5-7.5v-30.305c0-4.143-3.357-7.5-7.5-7.5h-111.117c-4.142 0-7.5 3.357-7.5 7.5zm15 7.5h96.117v15.305h-96.117z"/></g></g></svg>