<?xml version="1.0" encoding="UTF-8"?>
<svg id="Layer_1" data-name="Layer 1" xmlns="http://www.w3.org/2000/svg" width="960" height="960" viewBox="0 0 960 960">
  <defs>
    <style>
      .cls-1 {
        stroke-width: 40px;
      }

      .cls-1, .cls-2 {
        fill: none;
        stroke: #000;
        stroke-linecap: round;
        stroke-linejoin: round;
      }

      .cls-2 {
        stroke-width: 20px;
      }
    </style>
  </defs>
  <path class="cls-2" d="m267.674,881.174c-56.983,0-103.342-46.42-103.342-103.479v-498.187c0-57.059,46.359-103.479,103.342-103.479,2.274,0,4.584.075,6.866.224l557.726,36.39c54.244,3.54,96.735,48.894,96.735,103.252v425.411c0,54.359-42.491,99.713-96.735,103.252l-557.727,36.39c-2.281.149-4.59.224-6.865.224Z"/>
  <path class="cls-2" d="m223.581,174.971l-152.88,77.573c-30.49,15.471-49.701,46.762-49.701,80.952v389.027c0,33.974,18.971,65.104,49.165,80.678l152.255,78.531"/>
  <polyline class="cls-2" points="552.776 184.385 552.776 68.826 620.008 74.76 620.008 188.777"/>
  <polyline class="cls-2" points="462.589 178.508 462.589 108.632 552.776 68.826"/>
  <g>
    <path class="cls-1" d="m939,315.9v425.41c0,59.8-46.41,109.33-106.08,113.23l-557.73,36.39c-18.77,1.22-36.72-2.17-52.77-9.2l-.06-.03-12.88-6.65-139.32-71.85c-30.19-15.57-49.16-46.7-49.16-80.68v-389.02c0-34.19,19.21-65.49,49.7-80.96l139.12-70.59,13.76-6.98c15.75-6.68,33.29-9.89,51.61-8.69l187.4,12.23v-69.88l90.19-39.8,67.23,5.93v114.02l212.91,13.89c59.67,3.89,106.08,53.43,106.08,113.23Z"/>
    <path class="cls-1" d="m222.36,881.7c-4.45-1.94-8.75-4.16-12.88-6.65l12.88,6.65Z"/>
    <path class="cls-1" d="m223.58,174.97l-13.76,6.98c4.4-2.63,9-4.96,13.76-6.98Z"/>
  </g>
</svg>